<svg width="302" height="154" viewBox="0 0 302 154" fill="none" xmlns="http://www.w3.org/2000/svg">
<g filter="url(#filter0_ddd_75_4703)">
<path d="M135.151 99.5462C134.263 99.5462 133.452 99.5462 132.572 99.5462C132.572 98.0981 132.572 96.6686 132.572 95.2392C132.52 95.2192 132.468 95.1979 132.416 95.178C132.3 95.3655 132.181 95.549 132.072 95.7405C130.357 98.7218 127.873 100.384 124.344 100.106C121.568 99.8879 119.499 98.4452 117.978 96.1594C116.647 94.1594 115.982 91.9135 115.687 89.5692C115.276 86.3086 115.405 83.0627 116.462 79.9179C117.385 77.1733 118.842 74.8064 121.588 73.5245C125.449 71.7227 129.707 72.9966 131.981 76.5882C132.121 76.8089 132.262 77.0284 132.489 77.3834C132.517 77.0736 132.546 76.9127 132.544 76.7531C132.512 74.8064 132.592 72.8476 132.413 70.9142C132.127 67.8146 129.766 65.8864 126.783 65.5859C125.398 65.4463 123.945 65.562 122.574 65.8239C120.119 66.292 118.53 67.8345 117.919 70.2839C117.801 70.756 117.627 70.9102 117.169 70.865C116.818 70.8304 116.461 70.857 116.107 70.8544C116.042 70.8544 115.975 70.8397 115.8 70.8185C115.8 70.1124 115.768 69.3903 115.805 68.6723C116.003 64.8373 116.768 61.1579 118.994 57.9359C120.306 56.037 122.018 54.6235 124.388 54.2778C127.819 53.7778 131.037 55.4719 132.756 58.5835C134.178 61.1566 134.83 63.9437 135.008 66.8399C135.138 68.9382 135.143 71.0458 135.147 73.1482C135.162 81.6346 135.153 90.121 135.153 98.6074C135.151 98.8933 135.151 99.1805 135.151 99.5462ZM125.389 89.7899C127.285 89.7686 129.143 89.5386 130.863 88.6756C132.016 88.0971 132.936 87.2793 133.084 85.9057C133.243 84.4191 132.423 83.1771 130.917 82.4377C129.059 81.5255 127.082 81.3101 125.047 81.338C123.229 81.3633 121.487 81.6718 119.872 82.5415C117.846 83.6319 117.277 85.9177 118.667 87.5453C119.03 87.9708 119.511 88.3325 120.005 88.6051C121.676 89.5266 123.514 89.758 125.389 89.7899Z" fill="white"/>
<path d="M93.4902 77.123C93.4902 76.1563 93.5021 75.1883 93.4875 74.2215C93.4689 73.0487 93.558 71.8546 93.3718 70.707C92.9024 67.8122 90.7733 65.8282 87.8171 65.5822C86.4686 65.4692 85.067 65.541 83.7331 65.7764C81.136 66.2351 79.4896 67.8321 78.842 70.4145C78.8101 70.5422 78.7702 70.6685 78.725 70.8227C78.1079 70.8227 77.4922 70.8227 76.8392 70.8227C76.81 70.7376 76.7448 70.6379 76.7462 70.5395C76.8113 66.0795 77.3539 61.7353 79.9684 57.9349C81.3541 55.9203 83.1706 54.4789 85.6907 54.2408C88.7639 53.951 91.2268 55.1118 93.062 57.5905C94.7043 59.8085 95.4743 62.3709 95.7669 65.057C95.9969 67.1646 96.0674 69.2975 96.0741 71.4184C96.106 80.5032 96.0874 89.5894 96.0874 98.6755C96.0874 98.9401 96.0874 99.2034 96.0874 99.5212C95.2296 99.5212 94.4224 99.5212 93.5208 99.5212C93.5208 98.1343 93.5208 96.7301 93.5208 95.3246C93.4649 95.3059 93.4077 95.2887 93.3519 95.27C93.2508 95.4136 93.1324 95.548 93.0527 95.7035C89.9169 101.75 82.2889 101.328 79.0056 96.2487C77.5241 93.9576 76.8259 91.4231 76.5826 88.7463C76.2714 85.3302 76.5267 81.9713 77.8752 78.7719C79.1478 75.7521 81.1679 73.5394 84.5417 72.8878C87.9048 72.2389 90.9688 73.5487 92.8532 76.4316C93.0088 76.6696 93.1617 76.909 93.316 77.1483C93.3745 77.1417 93.433 77.1324 93.4902 77.123ZM86.4739 81.3423C84.5683 81.321 82.7624 81.5178 81.1399 82.4314C80.4857 82.7997 79.8207 83.2984 79.3979 83.9034C78.334 85.4246 78.8965 87.4711 80.6838 88.4086C81.7397 88.9631 82.9259 89.3753 84.1002 89.5787C86.7372 90.0348 89.3504 89.8487 91.8186 88.6865C92.7854 88.2317 93.5859 87.5748 93.9397 86.5177C94.4729 84.9246 93.7136 83.3702 91.9914 82.4886C90.2361 81.5883 88.3503 81.3077 86.4739 81.3423Z" fill="white"/>
<path d="M163.696 78.9341C163.833 81.3675 164.29 83.6068 165.523 85.6134C167.078 88.1439 169.426 89.1226 172.317 88.8327C174.751 88.588 176.718 87.4843 177.944 85.3182C178.393 84.5243 178.626 83.6055 178.99 82.6587C179.49 82.6587 180.121 82.6587 180.759 82.6587C180.759 83.7132 180.827 84.7717 180.746 85.8182C180.514 88.7888 179.96 91.6983 178.718 94.4296C177.847 96.3471 176.715 98.0784 174.848 99.2034C172.243 100.774 168.909 100.359 166.654 98.1675C165.243 96.7965 164.341 95.1064 163.635 93.2953C162.377 90.068 161.79 86.6905 161.555 83.2624C161.358 80.3942 161.238 77.5086 161.308 74.6364C161.413 70.203 161.91 65.8042 163.422 61.5889C164.1 59.7007 165.026 57.9561 166.406 56.4628C169.316 53.314 173.982 53.4642 176.691 56.7939C178.492 59.0079 179.369 61.6142 179.956 64.3349C180.804 68.2736 180.972 72.2761 180.891 76.2906C180.878 76.9767 180.779 77.6602 180.774 78.345C180.77 78.8184 180.573 78.9474 180.129 78.9408C178.711 78.9208 177.292 78.9341 175.875 78.9341C172.109 78.9341 168.341 78.9341 164.575 78.9341C164.314 78.9341 164.052 78.9341 163.696 78.9341ZM178.227 72.9941C178.28 71.703 177.484 69.4052 176.541 68.0834C174.327 64.9771 169.571 64.5662 166.828 67.2071C165.381 68.6007 164.624 70.332 164.152 72.2282C164.092 72.4702 164.064 72.7189 164.016 72.9941C168.813 72.9941 173.521 72.9941 178.227 72.9941Z" fill="white"/>
<path d="M226.236 82.6435C226.236 83.7459 226.307 84.807 226.223 85.8562C225.991 88.7816 225.446 91.6472 224.235 94.3426C223.41 96.1776 222.365 97.8651 220.627 99.002C217.894 100.79 214.516 100.467 212.153 98.1842C210.704 96.784 209.791 95.0513 209.077 93.195C207.843 89.9837 207.263 86.6274 207.033 83.2219C206.842 80.375 206.721 77.512 206.787 74.6611C206.892 70.2277 207.384 65.8289 208.894 61.6123C209.64 59.5286 210.649 57.5952 212.293 56.0593C215.228 53.3187 219.554 53.6245 222.112 56.7189C223.961 58.9542 224.849 61.603 225.444 64.3715C226.284 68.2903 226.449 72.2689 226.373 76.2621C226.361 76.8591 226.283 77.4549 226.256 78.0506C226.219 78.9309 226.227 78.9322 225.372 78.9322C220.941 78.9322 216.51 78.9322 212.077 78.9322C211.132 78.9322 210.186 78.9322 209.168 78.9322C209.363 81.7074 209.872 84.2884 211.603 86.4519C213.142 88.3774 215.241 89.0529 217.636 88.8441C220.151 88.626 222.18 87.5183 223.443 85.2817C223.892 84.4892 224.112 83.5663 224.461 82.6408C224.981 82.6435 225.595 82.6435 226.236 82.6435ZM223.864 72.9856C223.592 71.975 223.39 71.0269 223.082 70.1147C222.579 68.6307 221.705 67.3767 220.382 66.5151C217.764 64.809 214.391 65.1827 212.156 67.3701C210.585 68.9073 209.91 70.8593 209.468 72.9856C214.273 72.9856 218.999 72.9856 223.864 72.9856Z" fill="white"/>
<path d="M203.649 72.9426C203.052 72.9426 202.5 72.9852 201.961 72.9161C201.808 72.8961 201.622 72.5623 201.582 72.3496C201.286 70.7566 200.724 69.2938 199.695 68.0173C196.821 64.4509 190.039 64.1557 187.616 69.9427C186.879 71.702 186.534 73.5464 186.422 75.4293C186.241 78.4558 186.374 81.4623 187.582 84.3026C188.761 87.0765 190.765 88.8051 193.906 88.8636C197.527 88.9315 200.341 86.7733 201.284 83.2654C201.404 82.8186 201.505 82.3625 201.569 81.9051C201.617 81.558 201.743 81.3918 202.117 81.4104C202.598 81.4344 203.082 81.4158 203.691 81.4158C203.629 82.8266 203.623 84.171 203.498 85.5047C203.175 88.9394 202.508 92.2944 200.881 95.3834C199.856 97.3314 198.488 98.9551 196.348 99.7516C193.565 100.789 190.421 99.7449 188.518 97.2144C186.663 94.7464 185.716 91.9048 185.103 88.9381C184.031 83.7455 183.83 78.4917 184.113 73.2086C184.325 69.2606 184.821 65.3631 186.156 61.6172C186.829 59.7263 187.752 57.9804 189.131 56.4844C192.063 53.3024 196.749 53.4712 199.466 56.8395C201.255 59.0562 202.187 61.6425 202.808 64.3538C203.396 66.9256 203.671 69.5465 203.65 72.1927C203.646 72.4081 203.649 72.6262 203.649 72.9426Z" fill="white"/>
<path d="M138.847 54.8391C139.688 54.8391 140.498 54.8391 141.402 54.8391C141.402 66.0727 141.402 77.2904 141.402 88.56C143.104 88.6118 144.657 88.3406 146.177 87.8406C150.952 86.2688 153.699 82.8062 155.119 78.1561C156.062 75.0671 156.219 71.885 155.949 68.687C155.764 66.4982 154.07 64.9664 151.879 64.8839C150.48 64.8307 149.131 64.973 147.929 65.9756C147.91 65.719 147.884 65.5342 147.884 65.348C147.881 62.0901 147.898 58.8323 147.866 55.5757C147.861 55.0026 148.08 54.7473 148.573 54.5532C151.174 53.5279 154.121 54.4986 155.791 56.9587C157.131 58.9333 157.705 61.1793 158.028 63.4957C158.695 68.2841 158.638 73.0844 158.022 77.8689C157.385 82.8261 155.871 87.5015 153.119 91.7075C150.988 94.9653 148.255 97.5597 144.51 98.9107C142.688 99.5676 140.794 99.6208 138.847 99.5583C138.847 84.6559 138.847 69.7947 138.847 54.8391Z" fill="white"/>
<path d="M73.3615 50.5493C73.3615 52.7253 73.3615 54.8006 73.3615 56.9643C72.3321 56.9643 71.3081 56.9643 70.139 56.9643C70.5472 57.5689 70.8931 58.0319 71.1874 58.5262C72.8448 61.3082 73.6057 64.3652 73.8878 67.5598C74.2119 71.2242 74.0505 74.8531 72.9723 78.3977C72.2724 80.7031 71.2512 82.8341 69.4907 84.5336C66.1637 87.7486 60.8172 87.3891 57.8795 83.8064C55.8423 81.3226 54.8455 78.4249 54.3802 75.3134C53.6655 70.5379 53.8581 65.8141 55.5331 61.2388C56.4893 58.6284 57.9351 56.3448 60.4781 54.9953C62.7662 53.7807 65.1072 53.7575 67.4359 54.9054C67.7696 55.0702 67.9744 55.0661 68.266 54.8156C69.7552 53.5287 71.2688 52.2678 72.7743 51.0014C72.9384 50.8598 73.1174 50.7359 73.3615 50.5493ZM64.0818 77.7577C65.1004 77.5847 66.1379 77.4853 67.1321 77.2225C69.8162 76.5144 71.5577 74.2649 71.6309 71.5278C71.715 68.3932 70.2014 66.13 67.4061 65.2054C65.8762 64.7002 64.2947 64.6321 62.7174 64.786C59.2114 65.1292 56.7036 67.1676 56.4635 70.8102C56.294 73.373 57.5919 75.7587 59.9085 76.8372C61.2282 77.4527 62.6251 77.646 64.0818 77.7577Z" fill="white"/>
<path d="M234.485 54.7954C234.485 56.8804 234.485 58.8671 234.485 60.8537C234.538 60.867 234.59 60.8803 234.643 60.8936C234.749 60.5811 234.851 60.2659 234.965 59.9574C235.73 57.883 236.752 56.0054 238.767 54.8539C240.908 53.6292 243.992 54.189 245.63 56.048C247.217 57.8485 247.892 60.0226 248.358 62.2951C248.93 65.0863 249.048 67.912 248.984 70.8041C248.285 70.8041 247.609 70.8041 246.868 70.8041C246.816 70.5182 246.774 70.1965 246.699 69.8826C246.324 68.2963 245.352 67.2245 243.847 66.6301C241.744 65.7977 239.639 65.8349 237.587 66.7591C235.796 67.5662 234.92 69.0396 234.898 70.9837C234.869 73.7974 234.89 76.6125 234.89 79.4262C234.89 85.8528 234.89 92.2781 234.89 98.7048C234.89 98.9667 234.89 99.23 234.89 99.5345C234.029 99.5345 233.217 99.5345 232.317 99.5345C232.317 88.2211 232.317 76.8917 232.317 65.4386C231.377 65.4386 230.522 65.4386 229.668 65.4386C228.006 65.4386 228.006 65.4386 228.006 63.7738C228.006 61.0039 228.018 58.2341 227.995 55.4642C227.991 54.943 228.145 54.7781 228.671 54.7861C230.574 54.8113 232.478 54.7954 234.485 54.7954Z" fill="white"/>
<path d="M98.348 50.6062C100.65 50.6062 102.903 50.6062 105.231 50.6062C105.231 50.92 105.231 51.2006 105.231 51.4825C105.231 62.5406 105.23 73.5988 105.237 84.6569C105.237 85.2061 105.267 85.7672 105.382 86.3031C105.63 87.464 106.429 88.1129 107.674 88.2578C108.709 88.3775 109.762 87.8031 110.221 86.8204C110.396 86.4441 110.553 86.0292 110.583 85.6223C110.622 85.0771 110.878 84.9614 111.353 84.996C111.766 85.0266 112.184 85.0026 112.657 85.0026C112.657 86.6116 112.716 88.1568 112.644 89.6966C112.539 91.9519 112.365 94.2084 111.63 96.3679C111.391 97.074 111.085 97.7788 110.685 98.4051C109.124 100.852 105.868 100.736 104.421 98.2083C103.431 96.477 102.972 94.5701 102.913 92.6181C102.758 87.4161 102.679 82.2128 102.631 77.0082C102.588 72.0895 102.622 67.1695 102.622 62.2494C102.622 61.9649 102.622 61.6803 102.622 61.3199C101.185 61.3199 99.8002 61.3199 98.3467 61.3199C98.348 57.719 98.348 54.1925 98.348 50.6062Z" fill="white"/>
<path d="M73.3673 100.023C72.8425 100.023 72.3948 100.044 71.9525 100.009C71.8159 99.9986 71.6631 99.8544 71.5697 99.7318C71.4791 99.6132 71.4575 99.442 71.398 99.2965C70.3294 96.6549 68.2289 96.4986 66.1758 97.6495C65.4156 98.0754 64.7434 98.659 64.0374 99.1792C63.0243 99.9272 61.9233 100.473 60.6492 100.569C58.285 100.747 56.8716 99.8666 55.7665 97.5471C54.8157 95.5511 54.5019 92.101 54.694 89.8152C55.1498 89.8152 55.6272 89.7546 56.0763 89.8435C56.2737 89.8826 56.4766 90.198 56.5645 90.4311C57.2313 92.2088 58.3026 92.9716 60.1691 92.7775C60.8616 92.7047 61.5703 92.4231 62.1857 92.0834C63.3841 91.4204 64.4851 90.5794 65.6997 89.95C66.4395 89.5659 67.2997 89.3193 68.1315 89.2155C70.2726 88.9486 71.9728 90.2411 72.691 92.5808C73.4254 94.977 73.4133 97.4433 73.3673 100.023Z" fill="white"/>
<path d="M188.036 49.4271C189.622 49.8739 191.164 50.2595 192.672 50.7515C193.574 51.0454 194.396 51.0626 195.305 50.7674C196.856 50.2648 198.445 49.8778 200.139 49.4084C200.139 49.9696 200.169 50.447 200.121 50.915C200.107 51.048 199.884 51.2249 199.726 51.2674C197.91 51.7554 196.091 52.2235 194.271 52.6929C194.167 52.7195 194.047 52.7474 193.95 52.7222C191.982 52.2129 190.017 51.6969 188.038 51.1783C188.036 50.5946 188.036 50.052 188.036 49.4271Z" fill="white"/>
</g>
<path d="M61.7585 86.3267C58.2901 85.6159 55.7405 89.5386 57.3042 91.7113C56.625 93.9155 54.8781 96.6235 54.6506 91.3334C54.4232 86.0434 58.0466 84.9412 59.9104 83.9651C63.1327 85.7127 66.8288 87.3659 61.7585 86.3267Z" fill="white"/>
<defs>
<filter id="filter0_ddd_75_4703" x="0.987793" y="-3.59155" width="301.012" height="157.182" filterUnits="userSpaceOnUse" color-interpolation-filters="sRGB">
<feFlood flood-opacity="0" result="BackgroundImageFix"/>
<feColorMatrix in="SourceAlpha" type="matrix" values="0 0 0 0 0 0 0 0 0 0 0 0 0 0 0 0 0 0 127 0" result="hardAlpha"/>
<feOffset dy="7"/>
<feGaussianBlur stdDeviation="14.5"/>
<feComposite in2="hardAlpha" operator="out"/>
<feColorMatrix type="matrix" values="0 0 0 0 0 0 0 0 0 0 0 0 0 0 0 0 0 0 1 0"/>
<feBlend mode="normal" in2="BackgroundImageFix" result="effect1_dropShadow_75_4703"/>
<feColorMatrix in="SourceAlpha" type="matrix" values="0 0 0 0 0 0 0 0 0 0 0 0 0 0 0 0 0 0 127 0" result="hardAlpha"/>
<feOffset dy="6"/>
<feGaussianBlur stdDeviation="18.5"/>
<feComposite in2="hardAlpha" operator="out"/>
<feColorMatrix type="matrix" values="0 0 0 0 0 0 0 0 0 0 0 0 0 0 0 0 0 0 1 0"/>
<feBlend mode="normal" in2="effect1_dropShadow_75_4703" result="effect2_dropShadow_75_4703"/>
<feColorMatrix in="SourceAlpha" type="matrix" values="0 0 0 0 0 0 0 0 0 0 0 0 0 0 0 0 0 0 127 0" result="hardAlpha"/>
<feOffset/>
<feGaussianBlur stdDeviation="26.5"/>
<feComposite in2="hardAlpha" operator="out"/>
<feColorMatrix type="matrix" values="0 0 0 0 0 0 0 0 0 0 0 0 0 0 0 0 0 0 1 0"/>
<feBlend mode="normal" in2="effect2_dropShadow_75_4703" result="effect3_dropShadow_75_4703"/>
<feBlend mode="normal" in="SourceGraphic" in2="effect3_dropShadow_75_4703" result="shape"/>
</filter>
</defs>
</svg>
