<svg width="857" height="225" viewBox="0 0 857 225" fill="none" xmlns="http://www.w3.org/2000/svg">
<path d="M356.633 220.306C352.729 220.306 349.165 220.306 345.297 220.306C345.297 213.943 345.297 207.662 345.297 201.381C345.069 201.293 344.841 201.2 344.613 201.112C344.105 201.936 343.579 202.742 343.1 203.584C335.567 216.683 324.652 223.987 309.144 222.766C296.949 221.808 287.857 215.468 281.172 205.424C275.323 196.636 272.401 186.768 271.104 176.467C269.298 162.14 269.865 147.878 274.511 134.059C278.566 121.999 284.97 111.599 297.037 105.967C314 98.0494 332.71 103.647 342.702 119.429C343.316 120.398 343.935 121.363 344.934 122.923C345.057 121.561 345.186 120.854 345.174 120.153C345.034 111.599 345.384 102.992 344.601 94.4969C343.345 80.8772 332.967 72.405 319.861 71.0845C313.778 70.471 307.391 70.9793 301.367 72.1303C290.58 74.187 283.597 80.9648 280.915 91.7274C280.395 93.8016 279.629 94.4794 277.619 94.2807C276.077 94.1288 274.505 94.2457 272.95 94.234C272.664 94.234 272.372 94.1697 271.601 94.0762C271.601 90.9737 271.46 87.801 271.624 84.6458C272.495 67.7949 275.855 51.6277 285.636 37.4703C291.404 29.1267 298.924 22.9157 309.337 21.3966C324.413 19.1996 338.553 26.6435 346.109 40.3158C352.355 51.6218 355.219 63.8685 356.002 76.5943C356.574 85.8144 356.598 95.0754 356.615 104.313C356.679 141.602 356.639 178.892 356.639 216.181C356.633 217.437 356.633 218.699 356.633 220.306ZM313.737 177.437C322.069 177.343 330.233 176.332 337.788 172.54C342.854 169.999 346.898 166.405 347.546 160.37C348.248 153.837 344.642 148.38 338.028 145.131C329.864 141.123 321.175 140.177 312.235 140.299C304.247 140.41 296.593 141.766 289.493 145.587C280.594 150.378 278.093 160.422 284.199 167.574C285.794 169.444 287.909 171.033 290.077 172.231C297.422 176.28 305.498 177.297 313.737 177.437Z" fill="white"/>
<path d="M173.573 121.778C173.573 117.53 173.625 113.277 173.561 109.029C173.479 103.876 173.871 98.6286 173.053 93.5862C170.99 80.8662 161.635 72.1486 148.645 71.0677C142.72 70.5711 136.561 70.8866 130.7 71.9208C119.288 73.9366 112.054 80.9539 109.209 92.3008C109.068 92.8617 108.893 93.4168 108.694 94.0945C105.983 94.0945 103.278 94.0945 100.409 94.0945C100.28 93.7206 99.9937 93.2824 99.9995 92.85C100.286 73.2529 102.67 54.1642 114.158 37.4653C120.247 28.6133 128.229 22.2796 139.302 21.2337C152.806 19.96 163.627 25.0608 171.691 35.9519C178.908 45.6979 182.291 56.9571 183.577 68.7598C184.587 78.0207 184.897 87.3927 184.926 96.7121C185.067 136.631 184.985 176.555 184.985 216.48C184.985 217.642 184.985 218.799 184.985 220.196C181.216 220.196 177.669 220.196 173.707 220.196C173.707 214.102 173.707 207.932 173.707 201.756C173.462 201.674 173.21 201.598 172.965 201.516C172.521 202.147 172.001 202.737 171.65 203.421C157.872 229.988 124.354 228.136 109.927 205.816C103.418 195.749 100.35 184.613 99.2808 172.851C97.9135 157.84 99.0354 143.081 104.96 129.023C110.553 115.754 119.429 106.032 134.253 103.169C149.031 100.317 162.494 106.072 170.774 118.74C171.457 119.786 172.129 120.837 172.807 121.889C173.064 121.86 173.321 121.819 173.573 121.778ZM142.743 140.318C134.37 140.224 126.435 141.089 119.306 145.103C116.431 146.721 113.509 148.912 111.651 151.571C106.976 158.255 109.448 167.247 117.302 171.367C121.941 173.803 127.153 175.615 132.313 176.508C143.9 178.513 155.382 177.695 166.228 172.588C170.476 170.59 173.993 167.703 175.548 163.058C177.891 156.058 174.554 149.228 166.987 145.354C159.274 141.399 150.988 140.166 142.743 140.318Z" fill="white"/>
<path d="M482.059 129.735C482.661 140.428 484.671 150.267 490.088 159.084C496.919 170.203 507.238 174.503 519.942 173.23C530.635 172.155 539.277 167.305 544.665 157.787C546.64 154.299 547.662 150.261 549.263 146.101C551.46 146.101 554.23 146.101 557.035 146.101C557.035 150.735 557.333 155.385 556.977 159.984C555.96 173.037 553.523 185.821 548.066 197.822C544.238 206.248 539.265 213.855 531.061 218.798C519.614 225.699 504.965 223.876 495.055 214.247C488.855 208.223 484.893 200.796 481.791 192.838C476.263 178.658 473.686 163.817 472.652 148.754C471.787 136.151 471.261 123.472 471.565 110.851C472.026 91.3708 474.212 72.0425 480.856 53.5205C483.836 45.2236 487.903 37.5577 493.968 30.9962C506.753 17.1602 527.257 17.8205 539.16 32.4511C547.072 42.1795 550.929 53.6315 553.506 65.5861C557.234 82.8927 557.97 100.48 557.614 118.119C557.555 121.134 557.123 124.138 557.099 127.147C557.082 129.227 556.217 129.794 554.265 129.764C548.036 129.677 541.801 129.735 535.572 129.735C519.024 129.735 502.47 129.735 485.922 129.735C484.777 129.735 483.625 129.735 482.059 129.735ZM545.909 103.635C546.143 97.9615 542.643 87.865 538.5 82.0572C528.771 68.4082 507.875 66.6027 495.82 78.2067C489.463 84.3301 486.138 91.9375 484.064 100.269C483.801 101.333 483.678 102.426 483.468 103.635C504.544 103.635 525.23 103.635 545.909 103.635Z" fill="white"/>
<path d="M756.858 146.037C756.858 150.881 757.168 155.543 756.8 160.153C755.783 173.008 753.388 185.599 748.064 197.443C744.441 205.506 739.849 212.92 732.211 217.916C720.203 225.775 705.361 224.355 694.978 214.323C688.608 208.17 684.6 200.557 681.462 192.4C676.04 178.29 673.492 163.542 672.481 148.578C671.639 136.069 671.108 123.489 671.4 110.962C671.862 91.4818 674.024 72.1535 680.656 53.6257C683.934 44.4699 688.369 35.9743 695.591 29.2258C708.487 17.1836 727.496 18.5275 738.738 32.1239C746.861 41.9458 750.764 53.5848 753.376 65.7497C757.069 82.9687 757.793 100.451 757.46 117.997C757.408 120.62 757.063 123.238 756.946 125.855C756.782 129.723 756.818 129.729 753.06 129.729C733.59 129.729 714.12 129.729 694.645 129.729C690.49 129.729 686.335 129.729 681.859 129.729C682.718 141.923 684.956 153.264 692.559 162.771C699.325 171.231 708.546 174.2 719.07 173.282C730.119 172.324 739.036 167.457 744.588 157.629C746.557 154.147 747.527 150.092 749.058 146.025C751.342 146.037 754.042 146.037 756.858 146.037ZM746.434 103.6C745.242 99.1593 744.354 94.9933 742.998 90.9851C740.789 84.4645 736.95 78.9546 731.136 75.1684C719.631 67.672 704.812 69.3138 694.989 78.9254C688.088 85.6798 685.12 94.2571 683.18 103.6C704.292 103.6 725.059 103.6 746.434 103.6Z" fill="white"/>
<path d="M657.609 103.408C654.986 103.408 652.561 103.595 650.194 103.291C649.522 103.203 648.704 101.737 648.529 100.802C647.226 93.8023 644.76 87.3751 640.237 81.7659C627.61 66.0953 597.809 64.7982 587.162 90.2264C583.925 97.9566 582.406 106.061 581.915 114.334C581.12 127.633 581.705 140.843 587.01 153.324C592.193 165.512 600.999 173.108 614.801 173.365C630.712 173.663 643.077 164.18 647.22 148.766C647.746 146.803 648.19 144.799 648.47 142.789C648.681 141.264 649.236 140.534 650.878 140.615C652.993 140.721 655.12 140.639 657.796 140.639C657.522 146.838 657.498 152.745 656.949 158.606C655.529 173.698 652.596 188.44 645.449 202.013C640.944 210.572 634.931 217.707 625.53 221.206C613.299 225.764 599.486 221.177 591.124 210.058C582.973 199.214 578.812 186.728 576.118 173.692C571.409 150.876 570.526 127.79 571.771 104.577C572.7 87.229 574.88 70.1035 580.746 53.6441C583.703 45.3355 587.758 37.6638 593.818 31.0906C606.702 17.1085 627.294 17.8506 639.232 32.6506C647.091 42.3907 651.188 53.7551 653.916 65.6688C656.499 76.9689 657.709 88.4853 657.615 100.113C657.598 101.059 657.609 102.017 657.609 103.408Z" fill="white"/>
<path d="M372.872 23.8629C376.565 23.8629 380.123 23.8629 384.097 23.8629C384.097 73.2236 384.097 122.514 384.097 172.033C391.576 172.261 398.401 171.069 405.08 168.872C426.057 161.965 438.13 146.751 444.37 126.318C448.513 112.745 449.203 98.7629 448.017 84.7108C447.204 75.0934 439.76 68.3624 430.13 68.0001C423.983 67.7664 418.058 68.3916 412.776 72.7971C412.694 71.6694 412.577 70.8573 412.577 70.0393C412.565 55.7242 412.641 41.4091 412.501 27.0999C412.478 24.5816 413.442 23.4598 415.604 22.6067C427.033 18.1018 439.982 22.3671 447.321 33.1765C453.211 41.8532 455.73 51.7218 457.15 61.9001C460.083 82.9404 459.832 104.033 457.126 125.056C454.327 146.838 447.672 167.382 435.582 185.863C426.215 200.178 414.207 211.577 397.752 217.514C389.747 220.4 381.426 220.634 372.872 220.359C372.872 154.878 372.872 89.5779 372.872 23.8629Z" fill="white"/>
<path d="M85.1283 5.01367C85.1283 14.5751 85.1283 23.6937 85.1283 33.2013C80.605 33.2013 76.1055 33.2013 70.9684 33.2013C72.7622 35.8579 74.2819 37.8923 75.5752 40.0642C82.8577 52.2882 86.201 65.7209 87.4406 79.7579C88.8649 95.8591 88.1558 111.805 83.4179 127.379C80.3428 137.509 75.8552 146.873 68.1198 154.34C53.501 168.467 30.0084 166.888 17.1001 151.145C8.14882 140.232 3.76855 127.499 1.72443 113.827C-1.41625 92.8435 -0.569999 72.0872 6.79004 51.9831C10.9915 40.513 17.3444 30.4789 28.5186 24.5494C38.5723 19.2122 48.8585 19.1105 59.091 24.1545C60.5571 24.8784 61.457 24.8605 62.7383 23.7596C69.2819 18.1053 75.9327 12.5647 82.5478 7.00015C83.2689 6.37788 84.0556 5.83339 85.1283 5.01367ZM44.3531 124.567C48.8287 123.807 53.3878 123.371 57.7561 122.216C69.55 119.104 77.2021 109.22 77.5239 97.1934C77.8934 83.4197 71.2426 73.4753 58.9599 69.4126C52.2376 67.1928 45.2887 66.8936 38.3578 67.5698C22.9523 69.0776 11.9331 78.0346 10.8783 94.0401C10.1334 105.301 15.8366 115.784 26.0155 120.523C31.8142 123.227 37.9525 124.077 44.3531 124.567Z" fill="white"/>
<path d="M793.105 23.6691C793.105 32.8307 793.105 41.56 793.105 50.2893C793.338 50.3477 793.566 50.4061 793.8 50.4646C794.267 49.0915 794.711 47.7067 795.214 46.3512C798.574 37.2363 803.067 28.9861 811.92 23.9262C821.328 18.5449 834.878 21.0047 842.077 29.1731C849.049 37.0843 852.017 46.6375 854.062 56.623C856.575 68.8872 857.095 81.3033 856.814 94.0116C853.741 94.0116 850.772 94.0116 847.518 94.0116C847.29 92.7554 847.103 91.3414 846.775 89.9625C845.128 82.9919 840.856 78.2825 834.242 75.6708C825.003 72.0131 815.753 72.1767 806.737 76.2375C798.866 79.7842 795.015 86.2581 794.922 94.8004C794.793 107.164 794.887 119.533 794.887 131.897C794.887 160.136 794.887 188.368 794.887 216.607C794.887 217.758 794.887 218.915 794.887 220.253C791.1 220.253 787.536 220.253 783.58 220.253C783.58 170.542 783.58 120.76 783.58 70.4355C779.449 70.4355 775.691 70.4355 771.94 70.4355C764.636 70.4355 764.636 70.4355 764.636 63.1202C764.636 50.9495 764.689 38.7788 764.589 26.608C764.572 24.3176 765.249 23.5931 767.558 23.6282C775.919 23.7392 784.287 23.6691 793.105 23.6691Z" fill="white"/>
<path d="M194.919 5.2644C205.034 5.2644 214.933 5.2644 225.164 5.2644C225.164 6.64333 225.164 7.87618 225.164 9.11487C225.164 57.7043 225.158 106.294 225.188 154.883C225.188 157.296 225.322 159.762 225.824 162.117C226.917 167.218 230.429 170.069 235.898 170.706C240.444 171.232 245.072 168.708 247.088 164.39C247.86 162.736 248.549 160.913 248.678 159.125C248.853 156.73 249.975 156.221 252.061 156.373C253.878 156.508 255.713 156.402 257.793 156.402C257.793 163.472 258.05 170.262 257.735 177.028C257.273 186.937 256.508 196.853 253.282 206.342C252.23 209.444 250.886 212.541 249.128 215.293C242.268 226.044 227.963 225.535 221.606 214.428C217.252 206.821 215.236 198.442 214.979 189.865C214.296 167.007 213.951 144.144 213.741 121.275C213.548 99.6621 213.7 78.0434 213.7 56.4247C213.7 55.1744 213.7 53.924 213.7 52.3406C207.383 52.3406 201.3 52.3406 194.913 52.3406C194.919 36.518 194.919 21.0227 194.919 5.2644Z" fill="white"/>
<path d="M85.152 222.399C82.8461 222.399 80.8789 222.494 78.9355 222.34C78.3353 222.293 77.6637 221.659 77.2536 221.12C76.8555 220.599 76.7604 219.847 76.4989 219.207C71.8038 207.6 62.5742 206.913 53.5525 211.971C50.2125 213.842 47.2588 216.406 44.1565 218.692C39.7051 221.979 34.8674 224.377 29.269 224.798C18.8804 225.579 12.6699 221.712 7.81438 211.521C3.63638 202.75 2.25758 187.59 3.1015 177.547C5.10433 177.547 7.20224 177.28 9.17535 177.671C10.043 177.843 10.9345 179.229 11.3208 180.253C14.2508 188.064 18.9577 191.416 27.1592 190.563C30.2021 190.243 33.3163 189.006 36.0204 187.513C41.286 184.6 46.1236 180.904 51.4606 178.139C54.7114 176.451 58.4913 175.367 62.1463 174.911C71.5542 173.739 79.0247 179.418 82.1805 189.698C85.4076 200.228 85.3541 211.065 85.152 222.399Z" fill="white"/>
<path d="M589.009 0.0818004C595.974 2.04501 602.753 3.73945 609.379 5.90132C613.341 7.1926 616.952 7.26855 620.949 5.97143C627.762 3.76282 634.745 2.06254 642.189 0C642.189 2.4657 642.318 4.5633 642.107 6.61999C642.049 7.20428 641.067 7.98139 640.372 8.16836C632.396 10.3127 624.402 12.3694 616.402 14.4319C615.947 14.5488 615.421 14.6715 614.994 14.5605C606.346 12.3227 597.71 10.0556 589.015 7.77689C589.009 5.21186 589.009 2.82796 589.009 0.0818004Z" fill="white"/>
<path d="M34.1437 162.217C18.9035 159.093 7.70054 176.33 14.5716 185.876C11.5872 195.562 3.91105 207.461 2.91163 184.216C1.9122 160.972 17.8336 156.129 26.0233 151.84C40.1818 159.519 56.4224 166.783 34.1437 162.217Z" fill="white"/>
</svg>
