<svg width="26" height="27" viewBox="0 0 26 27" fill="none" xmlns="http://www.w3.org/2000/svg">
<path d="M7.1509 0.597656C3.1904 0.597656 0 3.78806 0 7.74855V19.19C0 23.1505 3.1904 26.3409 7.1509 26.3409H18.5923C22.5528 26.3409 25.7432 23.1505 25.7432 19.19V7.74855C25.7432 3.78806 22.5528 0.597656 18.5923 0.597656H7.1509ZM7.1509 3.45801H18.5923C20.9576 3.45801 22.8829 5.38326 22.8829 7.74855V19.19C22.8829 21.5553 20.9576 23.4805 18.5923 23.4805H7.1509C4.7856 23.4805 2.86036 21.5553 2.86036 19.19V7.74855C2.86036 5.38326 4.7856 3.45801 7.1509 3.45801ZM20.0225 4.88819C19.2524 4.88819 18.5923 5.54828 18.5923 6.31837C18.5923 7.08847 19.2524 7.74855 20.0225 7.74855C20.7926 7.74855 21.4527 7.08847 21.4527 6.31837C21.4527 5.54828 20.7926 4.88819 20.0225 4.88819ZM12.8716 6.31837C8.91112 6.31837 5.72072 9.50877 5.72072 13.4693C5.72072 17.4298 8.91112 20.6202 12.8716 20.6202C16.8321 20.6202 20.0225 17.4298 20.0225 13.4693C20.0225 9.50877 16.8321 6.31837 12.8716 6.31837ZM12.8716 9.17873C15.2369 9.17873 17.1622 11.104 17.1622 13.4693C17.1622 15.8346 15.2369 17.7598 12.8716 17.7598C10.5063 17.7598 8.58108 15.8346 8.58108 13.4693C8.58108 11.104 10.5063 9.17873 12.8716 9.17873Z" fill="white"/>
</svg>
