<svg width="343" height="56" viewBox="0 0 343 56" fill="none" xmlns="http://www.w3.org/2000/svg">
<path d="M42.901 41.7243V43.7433H37.3488V51.0621H35.3298V35.1626H43.9105V37.1816H37.3488V41.7243H42.901Z" fill="black"/>
<path d="M50.2205 50.0537C49.9682 50.3061 49.211 51.0632 47.6968 51.0632C45.4254 51.0632 44.1636 49.8014 44.1636 47.7824C44.1636 45.511 45.6778 44.2492 47.6968 44.2492C48.7063 44.2492 49.7158 44.7539 50.2205 45.0063V43.7444C50.2205 42.4825 49.4634 41.9778 48.2015 41.9778C46.9397 41.9778 45.9302 42.4825 45.1731 42.7349L44.9207 40.9683C45.6778 40.7159 46.6873 40.2112 48.2015 40.2112C50.4729 40.2112 51.9871 41.473 51.9871 43.7444V50.8109H49.9682V50.0537H50.2205ZM50.2205 47.53C50.2205 46.7729 49.211 46.2681 48.2015 46.2681C47.1921 46.2681 46.1826 46.7729 46.1826 48.0348C46.1826 49.0442 47.1921 49.549 48.2015 49.549C49.4634 49.549 50.2205 48.7919 50.2205 48.0348V47.53Z" fill="black"/>
<path d="M57.2888 51.0621H55.2698V35.1626H57.2888V44.7528L60.822 40.4624H63.3457L59.5601 45.0052L64.1028 51.0621H61.5791L57.5411 45.5099V51.0621H57.2888Z" fill="black"/>
<path d="M71.1657 50.0528C70.9133 50.5576 70.1562 51.0623 68.6419 51.0623C66.623 51.0623 65.3611 49.5481 65.3611 47.2767V40.4626H67.3801V47.2767C67.3801 48.5386 67.8848 49.2957 69.1467 49.2957C70.6609 49.2957 71.418 48.2862 71.418 47.0243V40.4626H73.1847V51.0623H71.1657V50.0528Z" fill="black"/>
<path d="M78.2329 35.1626V51.0621H76.2139V35.1626H78.2329Z" fill="black"/>
<path d="M86.0608 50.8095C85.8084 51.0618 85.3036 51.0618 84.2941 51.0618C83.0323 51.0618 81.7704 50.5571 81.7704 48.2857V41.9764H80.5085V40.2098H81.7704V36.1718L83.7894 35.9194V40.2098H85.556V41.9764H83.7894V48.2857C83.7894 49.0428 84.2941 49.2952 84.5465 49.2952C85.0513 49.2952 85.556 49.0428 85.8084 49.0428L86.0608 50.8095Z" fill="black"/>
<path d="M93.3731 50.0537C93.1207 50.3061 92.3636 51.0632 90.8494 51.0632C88.578 51.0632 87.3162 49.8014 87.3162 47.7824C87.3162 45.511 88.8304 44.2492 90.8494 44.2492C91.8589 44.2492 92.8684 44.7539 93.3731 45.0063V43.7444C93.3731 42.4825 92.616 41.9778 91.3541 41.9778C90.0923 41.9778 89.0828 42.4825 88.3257 42.7349V40.9683C89.0828 40.7159 90.0923 40.2112 91.6065 40.2112C93.8779 40.2112 95.3921 41.473 95.3921 43.7444V50.8109H93.3731V50.0537ZM93.3731 47.53C93.3731 46.7729 92.3636 46.2681 91.3541 46.2681C90.3446 46.2681 89.3352 46.7729 89.3352 48.0348C89.3352 49.0442 90.3446 49.549 91.3541 49.549C92.616 49.549 93.3731 48.7919 93.3731 48.0348V47.53Z" fill="black"/>
<path d="M109.023 50.0537C108.77 50.3061 108.013 51.0632 106.499 51.0632C104.227 51.0632 102.966 49.8014 102.966 47.7824C102.966 45.511 104.48 44.2492 106.499 44.2492C107.508 44.2492 108.518 44.7539 109.023 45.0063V43.7444C109.023 42.4825 108.265 41.9778 107.004 41.9778C105.742 41.9778 104.732 42.4825 103.975 42.7349L103.723 40.9683C104.48 40.7159 105.489 40.2112 107.004 40.2112C109.275 40.2112 110.789 41.473 110.789 43.7444V50.8109H108.77V50.0537H109.023ZM109.023 47.53C109.023 46.7729 108.013 46.2681 107.004 46.2681C105.994 46.2681 104.985 46.7729 104.985 48.0348C104.985 49.0442 105.994 49.549 107.004 49.549C108.265 49.549 109.023 48.7919 109.023 48.0348V47.53Z" fill="black"/>
<path d="M118.614 51.0632C117.1 51.0632 116.343 50.5585 116.091 50.0537V55.1012H114.072V40.2112H116.091V41.2207C116.343 40.9683 116.848 40.2112 118.614 40.2112C120.886 40.2112 122.905 41.9778 122.905 45.7634C122.905 49.8014 120.633 51.0632 118.614 51.0632ZM118.362 42.2302C117.1 42.2302 116.091 42.9873 116.091 44.7539V47.0253C116.091 48.7919 117.1 49.549 118.362 49.549C119.876 49.549 120.886 48.7919 120.886 46.2681C120.886 43.2397 119.624 42.2302 118.362 42.2302Z" fill="black"/>
<path d="M127.446 35.1626V51.0621H125.427V35.1626H127.446Z" fill="black"/>
<path d="M131.738 38.4432C130.981 38.4432 130.476 37.9384 130.476 37.1813C130.476 36.4242 130.981 35.9194 131.738 35.9194C132.495 35.9194 133 36.4242 133 37.1813C133 38.1908 132.495 38.4432 131.738 38.4432ZM132.747 40.4622V51.0618H130.728V40.4622H132.747Z" fill="black"/>
<path d="M137.798 51.0621H135.779V35.1626H137.798V44.7528L141.331 40.4624H143.855L140.069 45.0052L144.612 51.0621H142.088L138.05 45.5099V51.0621H137.798Z" fill="black"/>
<path d="M149.151 51.0623C146.628 51.0623 144.356 49.5481 144.356 45.7625C144.356 41.9769 146.628 40.4626 149.151 40.4626C151.675 40.4626 153.946 41.9769 153.946 45.7625C153.946 49.8005 151.675 51.0623 149.151 51.0623ZM149.151 42.2293C147.637 42.2293 146.375 43.4911 146.375 45.7625C146.375 48.0338 147.637 49.2957 149.151 49.2957C150.666 49.2957 151.927 48.0338 151.927 45.7625C151.675 43.4911 150.666 42.2293 149.151 42.2293Z" fill="black"/>
<path d="M154.45 40.4626H156.469L158.993 48.2862L161.517 40.4626H164.04L160.255 51.0623H158.236L154.45 40.4626Z" fill="black"/>
<path d="M170.349 50.0537C170.097 50.3061 169.34 51.0632 167.825 51.0632C165.554 51.0632 164.292 49.8014 164.292 47.7824C164.292 45.511 165.806 44.2492 167.825 44.2492C168.835 44.2492 169.844 44.7539 170.349 45.0063V43.7444C170.349 42.4825 169.592 41.9778 168.33 41.9778C167.068 41.9778 166.059 42.4825 165.302 42.7349L165.049 40.9683C165.806 40.7159 166.816 40.2112 168.33 40.2112C170.602 40.2112 172.116 41.473 172.116 43.7444V50.8109H170.097V50.0537H170.349ZM170.349 47.53C170.349 46.7729 169.34 46.2681 168.33 46.2681C167.321 46.2681 166.311 46.7729 166.311 48.0348C166.311 49.0442 167.321 49.549 168.33 49.549C169.592 49.549 170.349 48.7919 170.349 48.0348V47.53Z" fill="black"/>
<path d="M181.452 44.2492C181.452 42.9873 180.695 42.2302 179.686 42.2302C178.424 42.2302 177.667 42.9873 177.667 44.2492V51.0632H175.648V40.4636H177.667V41.2207C177.919 40.7159 178.929 40.2112 180.19 40.2112C182.209 40.2112 183.724 41.7254 183.724 43.9968V50.8109H181.705V44.2492H181.452Z" fill="black"/>
<path d="M188.017 46.5193C188.269 48.5383 189.279 49.2954 190.793 49.2954C192.307 49.2954 193.317 49.043 194.074 48.5383L194.326 50.5573C193.317 51.062 192.307 51.3144 190.793 51.3144C188.269 51.3144 185.998 49.8001 185.998 46.0145C185.998 42.4813 188.017 40.4623 190.541 40.4623C193.317 40.4623 194.831 42.4813 194.831 45.5098V46.5193H188.017ZM192.56 45.005C192.56 43.2384 191.55 42.2289 190.288 42.2289C189.279 42.2289 188.269 42.7337 188.017 45.005H192.56ZM190.541 35.6672H192.812L190.793 39.2005H189.279L190.541 35.6672Z" fill="black"/>
<path d="M203.16 38.4432C202.402 38.4432 201.898 37.9384 201.898 37.1813C201.898 36.4242 202.402 35.9194 203.16 35.9194C203.917 35.9194 204.421 36.4242 204.421 37.1813C204.421 38.1908 204.169 38.4432 203.16 38.4432ZM204.169 40.4622V51.0618H202.15V40.4622H204.169Z" fill="black"/>
<path d="M213.252 44.2492C213.252 42.9873 212.495 42.2302 211.486 42.2302C210.224 42.2302 209.467 42.9873 209.467 44.2492V51.0632H207.448V40.4636H209.467V41.2207C209.719 40.7159 210.729 40.2112 211.99 40.2112C214.009 40.2112 215.524 41.7254 215.524 43.9968V50.8109H213.505V44.2492H213.252Z" fill="black"/>
<path d="M223.095 37.1818C222.843 36.9294 222.086 36.677 221.581 36.677C220.824 36.677 220.572 37.1818 220.572 37.9389V40.4626H222.338V42.2292H220.572V51.0623H218.553V42.2292H217.291V40.4626H218.553V38.1913C218.553 35.9199 219.815 34.9104 221.581 34.9104C222.591 34.9104 223.095 35.1628 223.348 35.4151L223.095 37.1818Z" fill="black"/>
<path d="M228.395 51.0623C225.871 51.0623 223.6 49.5481 223.6 45.7625C223.6 41.9769 225.871 40.4626 228.395 40.4626C230.918 40.4626 233.19 41.9769 233.19 45.7625C233.19 49.8005 230.918 51.0623 228.395 51.0623ZM228.395 42.2293C226.88 42.2293 225.619 43.4911 225.619 45.7625C225.619 48.0338 226.88 49.2957 228.395 49.2957C229.909 49.2957 231.171 48.0338 231.171 45.7625C231.171 43.4911 229.909 42.2293 228.395 42.2293Z" fill="black"/>
<path d="M240.256 42.734C240.003 42.734 239.499 42.4816 238.994 42.4816C238.237 42.4816 237.48 43.2388 237.48 44.2482V51.0623H235.461V40.4626H237.48V41.7245C237.732 40.9674 238.237 40.4626 239.499 40.4626C240.003 40.4626 240.256 40.4626 240.508 40.715L240.256 42.734Z" fill="black"/>
<path d="M254.138 44.2492C254.138 42.9873 253.381 42.2302 252.371 42.2302C251.109 42.2302 250.352 42.9873 250.352 44.2492V51.0632H248.333V44.2492C248.333 42.9873 247.576 42.2302 246.567 42.2302C245.305 42.2302 244.548 42.9873 244.548 44.2492V51.0632H242.529V40.4636H244.548V41.2207C244.8 40.7159 245.809 40.2112 247.071 40.2112C248.333 40.2112 249.343 40.7159 250.1 41.7254C250.605 40.9683 251.614 40.2112 253.128 40.2112C255.147 40.2112 256.661 41.7254 256.661 43.9968V50.8109H254.642V44.2492H254.138Z" fill="black"/>
<path d="M264.736 50.0537C264.484 50.3061 263.727 51.0632 262.213 51.0632C259.941 51.0632 258.679 49.8014 258.679 47.7824C258.679 45.511 260.194 44.2492 262.213 44.2492C263.222 44.2492 264.232 44.7539 264.736 45.0063V43.7444C264.736 42.4825 263.979 41.9778 262.717 41.9778C261.456 41.9778 260.446 42.4825 259.689 42.7349L259.437 40.9683C260.194 40.7159 261.203 40.2112 262.717 40.2112C264.989 40.2112 266.503 41.473 266.503 43.7444V50.8109H264.484V50.0537H264.736ZM264.736 47.53C264.736 46.7729 263.727 46.2681 262.717 46.2681C261.708 46.2681 260.698 46.7729 260.698 48.0348C260.698 49.0442 261.708 49.549 262.717 49.549C263.979 49.549 264.736 48.7919 264.736 48.0348V47.53Z" fill="black"/>
<path d="M274.33 50.8095C274.077 51.0618 273.572 51.0618 272.563 51.0618C271.301 51.0618 270.039 50.5571 270.039 48.2857V41.9764H268.777V40.2098H270.039V36.1718L272.058 35.9194V40.2098H273.825V41.9764H272.058V48.2857C272.058 49.0428 272.563 49.2952 272.815 49.2952C273.32 49.2952 273.825 49.0428 274.077 49.0428L274.33 50.8095Z" fill="black"/>
<path d="M277.357 38.4432C276.6 38.4432 276.095 37.9384 276.095 37.1813C276.095 36.4242 276.6 35.9194 277.357 35.9194C278.114 35.9194 278.619 36.4242 278.619 37.1813C278.619 38.1908 278.114 38.4432 277.357 38.4432ZM278.367 40.4622V51.0618H276.348V40.4622H278.367Z" fill="black"/>
<path d="M283.413 51.0621H281.394V35.1626H283.413V44.7528L286.946 40.4624H289.469L285.684 45.0052L290.227 51.0621H287.703L283.665 45.5099V51.0621H283.413Z" fill="black"/>
<path d="M294.013 55.3527V49.2957L289.975 40.4626H292.246L295.022 47.0243L297.798 40.4626H300.07L296.032 49.2957V55.3527H294.013Z" fill="black"/>
<path d="M18.6756 0.839844L0 7.14917V0.839844H18.6756ZM0 8.15867C0 9.16816 1.51424 9.92528 3.28085 9.92528C4.03797 9.92528 4.54272 9.6729 5.04746 9.6729C5.80458 9.42053 22.966 3.36358 22.966 3.36358V28.3485C22.966 28.3485 5.55221 34.4055 5.04746 34.6578C4.54272 34.9102 3.7856 34.9102 3.28085 34.9102C1.51424 34.9102 0 33.9007 0 32.3865V8.15867Z" fill="#FCC400"/>
<path d="M46.4376 17.4956C46.4376 21.5335 44.9234 23.8049 40.8854 23.8049C36.8474 23.8049 35.0808 21.5335 35.0808 17.4956V5.63403H37.3522V17.4956C37.3522 20.2717 38.1093 21.7859 40.633 21.7859C43.1568 21.7859 43.9139 20.2717 43.9139 17.4956V5.63403H46.1852V17.4956H46.4376Z" fill="black"/>
<path d="M56.7831 15.9822C56.7831 14.7204 56.026 13.7109 54.7642 13.7109C53.2499 13.7109 52.4928 14.7204 52.4928 15.9822V23.8058H50.2214V11.6919H52.4928V12.7014C52.9975 12.1966 53.7547 11.6919 55.2689 11.6919C57.5403 11.6919 59.3069 13.2061 59.3069 15.9822V23.8058H57.0355V15.9822H56.7831Z" fill="black"/>
<path d="M63.5987 9.42057C62.5892 9.42057 62.0845 8.91582 62.0845 7.90633C62.0845 6.89684 62.5892 6.39209 63.5987 6.39209C64.6082 6.39209 65.1129 6.89684 65.1129 7.90633C65.1129 9.16819 64.6082 9.42057 63.5987 9.42057ZM64.8606 11.6919V23.8058H62.5892V11.6919H64.8606Z" fill="black"/>
<path d="M66.6284 11.6919H69.1521L72.1806 20.7773L75.2091 11.6919H77.7328L73.1901 23.8058H70.9188L66.6284 11.6919Z" fill="black"/>
<path d="M80.5079 18.7583C80.7602 21.0296 82.0221 21.7868 83.5363 21.7868C85.303 21.7868 86.3124 21.282 87.0696 20.7773L87.5743 23.0486C86.5648 23.5534 85.303 23.8057 83.5363 23.8057C80.5079 23.8057 77.9841 22.0391 77.9841 17.7488C77.9841 13.7108 80.2555 11.4395 83.0316 11.4395C86.3125 11.4395 88.0791 13.7108 88.0791 17.244V18.5059H80.5079V18.7583ZM85.8077 16.9917C85.8077 14.9727 84.7982 13.7108 83.284 13.7108C82.0221 13.7108 80.7602 14.4679 80.5079 16.9917H85.8077Z" fill="black"/>
<path d="M96.152 14.2156C95.8996 14.2156 95.3948 13.9632 94.6377 13.9632C93.8806 13.9632 93.3759 14.7203 93.3759 15.9822V23.8057H91.1045V11.6918H93.3759V12.9537C93.6282 12.1966 94.3854 11.4395 95.6472 11.4395C96.152 11.4395 96.4043 11.4395 96.6567 11.6918L96.152 14.2156Z" fill="black"/>
<path d="M106.504 23.8058H97.6707L103.475 13.7109H97.923V11.6919H106.756L101.204 21.7868H106.504V23.8058Z" fill="black"/>
<path d="M110.287 9.42057C109.278 9.42057 108.773 8.91582 108.773 7.90633C108.773 6.89684 109.278 6.39209 110.287 6.39209C111.297 6.39209 111.801 6.89684 111.801 7.90633C111.801 9.16819 111.044 9.42057 110.287 9.42057ZM111.297 11.6919V23.8058H109.025V11.6919H111.297Z" fill="black"/>
<path d="M120.637 23.5531C120.132 23.8055 119.627 24.0579 118.618 24.0579C117.356 24.0579 115.589 23.5531 115.589 21.0294V13.7106H114.075V11.6916H115.589V7.14886L117.861 6.89648V11.6916H119.88V13.4582H117.861V20.5246C117.861 21.2818 118.365 21.5341 118.87 21.5341C119.375 21.5341 119.88 21.2818 120.384 21.2818L120.637 23.5531Z" fill="black"/>
<path d="M128.962 22.7963C128.71 23.0487 127.953 23.8058 126.186 23.8058C123.662 23.8058 122.148 22.5439 122.148 20.0202C122.148 17.4965 123.915 16.2346 126.186 16.2346C127.448 16.2346 128.457 16.7394 128.962 17.2441V15.7299C128.962 14.2156 127.953 13.7109 126.691 13.7109C125.176 13.7109 123.915 14.2156 123.41 14.468L123.157 12.449C123.915 12.1966 125.176 11.6919 126.943 11.6919C129.719 11.6919 131.233 13.2061 131.233 15.7299V23.8058H128.962V22.7963ZM128.962 19.7678C128.962 18.7583 127.953 18.2536 126.691 18.2536C125.429 18.2536 124.419 18.7583 124.419 20.2726C124.419 21.5344 125.429 22.0392 126.691 22.0392C127.953 22.0392 128.962 21.2821 128.962 20.2726V19.7678Z" fill="black"/>
<path d="M144.106 23.8049V7.90539H139.815V5.63403H150.92V7.90539H146.377V23.8049H144.106Z" fill="black"/>
<path d="M155.463 23.8058C152.434 23.8058 149.91 22.0392 149.91 17.7488C149.91 13.2061 152.434 11.6919 155.463 11.6919C158.239 11.6919 161.015 13.4585 161.015 17.7488C161.015 22.2916 158.491 23.8058 155.463 23.8058ZM155.463 13.7109C153.696 13.7109 152.434 15.2251 152.434 17.7488C152.434 20.2726 153.696 21.7868 155.463 21.7868C157.229 21.7868 158.491 20.525 158.491 17.7488C158.491 14.9727 157.229 13.7109 155.463 13.7109Z" fill="black"/>
<path d="M177.165 15.9822C177.165 14.7204 176.408 13.7109 175.146 13.7109C173.632 13.7109 172.875 14.7204 172.875 15.9822V23.8058H170.604V15.9822C170.604 14.7204 169.847 13.7109 168.585 13.7109C167.07 13.7109 166.313 14.7204 166.313 15.9822V23.8058H164.042V11.6919H166.313V12.7014C166.818 12.1966 167.575 11.6919 169.089 11.6919C170.604 11.6919 171.866 12.1966 172.37 13.4585C173.127 12.449 174.137 11.6919 175.651 11.6919C177.923 11.6919 179.689 13.2061 179.689 15.9822V23.8058H177.418V15.9822H177.165Z" fill="black"/>
<path d="M189.279 22.7973C189.027 23.302 188.018 24.0591 186.503 24.0591C183.98 24.0591 182.465 22.7973 182.465 20.2735C182.465 17.7498 184.232 16.4879 186.503 16.4879C187.765 16.4879 188.775 16.9927 189.279 17.4974V15.7308C189.279 14.2166 188.27 13.7118 187.008 13.7118C185.494 13.7118 184.232 14.2166 183.727 14.4689L183.475 12.45C184.232 12.1976 185.494 11.6928 187.26 11.6928C190.037 11.6928 191.551 13.2071 191.551 15.7308V23.8068H189.279V22.7973ZM189.279 19.7688C189.279 18.7593 188.27 18.2545 187.008 18.2545C185.746 18.2545 184.737 18.7593 184.737 20.2735C184.737 21.5354 185.746 22.0401 187.008 22.0401C188.27 21.7878 189.279 21.0306 189.279 20.0212V19.7688ZM187.765 6.14062H190.289L188.018 10.1786H186.251L187.765 6.14062Z" fill="black"/>
<path d="M198.112 23.8067C196.346 23.8067 194.831 23.302 194.074 23.0496L194.831 21.0306C195.841 21.5354 197.103 21.7878 198.365 21.7878C199.374 21.7878 200.384 21.5354 200.384 20.5259C200.384 19.5164 199.122 19.264 197.86 18.7593C196.093 18.2545 194.327 17.7498 194.327 15.2261C194.327 12.7023 196.093 11.6928 198.869 11.6928C200.636 11.6928 201.645 11.9452 202.403 12.45L201.898 14.4689C200.888 13.9642 200.131 13.7118 198.617 13.7118C197.355 13.7118 196.346 14.2166 196.346 15.2261C196.346 15.9832 197.355 16.2356 198.365 16.7403C200.131 17.245 202.403 17.7498 202.403 20.2735C202.655 22.5449 201.393 23.8067 198.112 23.8067ZM195.084 6.14062H197.103L198.617 8.41198L200.131 6.14062H202.15L199.879 10.1786H197.355L195.084 6.14062Z" fill="black"/>
<path d="M207.199 18.7583C207.451 21.0296 208.713 21.7868 210.227 21.7868C211.994 21.7868 213.003 21.282 213.76 20.7773L214.265 23.0486C213.256 23.5534 211.994 23.8057 210.227 23.8057C207.199 23.8057 204.675 22.0391 204.675 17.7488C204.675 13.7108 206.946 11.4395 209.722 11.4395C213.003 11.4395 214.77 13.7108 214.77 17.244V18.5059H207.199V18.7583ZM212.498 16.9917C212.498 14.9727 211.489 13.7108 209.975 13.7108C208.713 13.7108 207.451 14.4679 207.199 16.9917H212.498Z" fill="black"/>
<path d="M228.647 23.8049H223.6V5.63403H228.9C232.181 5.63403 234.2 7.40065 234.2 10.4291C234.2 12.4481 233.19 13.71 231.676 14.4671C233.19 15.2242 234.452 16.7385 234.452 18.7574C234.452 21.7859 232.181 23.8049 228.647 23.8049ZM228.9 7.90539H225.871V13.2052H228.647C230.414 13.2052 231.676 12.1957 231.676 10.4291C231.676 8.66251 230.666 7.90539 228.9 7.90539ZM228.647 15.4766H225.871V21.5335H228.647C230.414 21.5335 231.928 20.5241 231.928 18.7574C231.928 16.7385 230.414 15.4766 228.647 15.4766Z" fill="black"/>
<path d="M243.539 22.7963C243.287 23.3011 242.278 24.0582 240.763 24.0582C238.24 24.0582 236.725 22.7963 236.725 20.2726C236.725 17.7489 238.492 16.487 240.763 16.487C242.025 16.487 243.035 16.9917 243.539 17.4965V15.7299C243.539 14.2156 242.53 13.7109 241.268 13.7109C239.754 13.7109 238.492 14.2156 237.987 14.468L237.735 12.449C238.492 12.1966 239.754 11.6919 241.52 11.6919C244.297 11.6919 245.811 13.2061 245.811 15.7299V23.8058H243.539V22.7963ZM243.539 19.7678C243.539 18.7583 242.53 18.2536 241.268 18.2536C240.006 18.2536 238.997 18.7583 238.997 20.2726C238.997 21.5344 240.006 22.0392 241.268 22.0392C242.53 22.0392 243.539 21.2821 243.539 20.2726V19.7678Z" fill="black"/>
<path d="M254.644 23.5531C254.14 23.8055 253.635 24.0579 252.625 24.0579C251.364 24.0579 249.597 23.5531 249.597 21.0294V13.7106H248.083V11.6916H249.849V7.14886L252.121 6.89648V11.6916H254.14V13.4582H252.121V20.5246C252.121 21.2818 252.625 21.5341 253.13 21.5341C253.635 21.5341 254.14 21.2818 254.644 21.2818V23.5531Z" fill="black"/>
<path d="M258.179 9.42057C257.169 9.42057 256.664 8.91582 256.664 7.90633C256.664 6.89684 257.169 6.39209 258.179 6.39209C259.188 6.39209 259.693 6.89684 259.693 7.90633C259.693 9.16819 258.936 9.42057 258.179 9.42057ZM259.188 11.6919V23.8058H256.917V11.6919H259.188Z" fill="black"/>
<path d="M266.76 11.6919H269.283L272.312 20.7773L275.34 11.6919H277.864L273.574 23.8058H271.302L266.76 11.6919Z" fill="black"/>
<path d="M280.638 18.7583C280.89 21.0296 282.152 21.7868 283.666 21.7868C285.433 21.7868 286.442 21.282 287.199 20.7773L287.704 23.0486C286.695 23.5534 285.433 23.8057 283.666 23.8057C280.638 23.8057 278.114 22.0391 278.114 17.7488C278.114 13.7108 280.385 11.4395 283.161 11.4395C286.442 11.4395 288.209 13.7108 288.209 17.244V18.5059H280.638V18.7583ZM285.938 16.9917C285.938 14.9727 284.928 13.7108 283.414 13.7108C282.152 13.7108 280.89 14.4679 280.638 16.9917H285.938Z" fill="black"/>
<path d="M306.382 23.8049H295.782L303.354 7.90539H296.287V5.63403H306.887L299.316 21.5335H306.382V23.8049Z" fill="black"/>
<path d="M311.429 5.63403V23.8049H309.157V5.63403H311.429Z" fill="black"/>
<path d="M316.476 6.14062H319L316.728 10.1786H314.962L316.476 6.14062ZM317.233 11.6928V23.8067H314.962V11.6928H317.233Z" fill="black"/>
<path d="M327.583 15.9822C327.583 14.7204 326.826 13.7109 325.564 13.7109C324.05 13.7109 323.293 14.7204 323.293 15.9822V23.8058H321.021V11.6919H323.293V12.7014C323.797 12.1966 324.554 11.6919 326.069 11.6919C328.34 11.6919 330.107 13.2061 330.107 15.9822V23.8058H327.835V15.9822H327.583Z" fill="black"/>
<path d="M334.9 18.7593C335.152 21.0306 336.414 21.7878 337.928 21.7878C339.695 21.7878 340.704 21.283 341.461 20.7783L341.966 23.0496C340.957 23.5544 339.695 23.8067 337.928 23.8067C334.9 23.8067 332.376 22.0401 332.376 17.7498C332.376 13.7118 334.647 11.4405 337.423 11.4405C340.704 11.4405 342.471 13.7118 342.471 17.245V18.5069H334.9V18.7593ZM334.143 6.14062H336.162L337.676 8.41198L339.19 6.14062H341.209L338.938 10.1786H336.414L334.143 6.14062ZM340.2 16.9927C340.2 14.9737 339.19 13.7118 337.676 13.7118C336.414 13.7118 335.152 14.4689 334.9 16.9927H340.2Z" fill="black"/>
</svg>
