<svg width="346" height="56" viewBox="0 0 346 56" fill="none" xmlns="http://www.w3.org/2000/svg">
<path d="M43.0705 41.7409V43.7599H37.5183V51.0787H35.4993V35.1792H44.08V37.1982H37.5183V41.7409H43.0705Z" fill="black"/>
<path d="M50.39 50.0684C50.1376 50.3208 49.3805 51.0779 47.8662 51.0779C45.5949 51.0779 44.333 49.816 44.333 47.797C44.333 45.5257 45.8472 44.2638 47.8662 44.2638C48.8757 44.2638 49.8852 44.7685 50.39 45.0209V43.7591C50.39 42.4972 49.6328 41.9924 48.371 41.9924C47.1091 41.9924 46.0996 42.4972 45.3425 42.7496L45.0901 40.9829C45.8472 40.7306 46.8567 40.2258 48.371 40.2258C50.6423 40.2258 52.1566 41.4877 52.1566 43.7591V50.8255H50.1376V50.0684H50.39ZM50.39 47.5447C50.39 46.7875 49.3805 46.2828 48.371 46.2828C47.3615 46.2828 46.352 46.7875 46.352 48.0494C46.352 49.0589 47.3615 49.5636 48.371 49.5636C49.6328 49.5636 50.39 48.8065 50.39 48.0494V47.5447Z" fill="black"/>
<path d="M57.4582 51.0787H55.4392V35.1792H57.4582V44.7694L60.9914 40.479H63.5152L59.7296 45.0218L64.2723 51.0787H61.7485L57.7106 45.5265V51.0787H57.4582Z" fill="black"/>
<path d="M71.3351 50.0702C71.0827 50.5749 70.3256 51.0797 68.8114 51.0797C66.7924 51.0797 65.5305 49.5654 65.5305 47.2941V40.48H67.5495V47.2941C67.5495 48.5559 68.0542 49.313 69.3161 49.313C70.8304 49.313 71.5875 48.3035 71.5875 47.0417V40.48H73.3541V51.0797H71.3351V50.0702Z" fill="black"/>
<path d="M78.4023 35.1792V51.0787H76.3833V35.1792H78.4023Z" fill="black"/>
<path d="M86.2263 50.8261C85.9739 51.0784 85.4692 51.0784 84.4597 51.0784C83.1978 51.0784 81.9359 50.5737 81.9359 48.3023V41.993H80.6741V40.2264H81.9359V36.1884L83.9549 35.936V40.2264H85.7215V41.993H83.9549V48.3023C83.9549 49.0594 84.4597 49.3118 84.712 49.3118C85.2168 49.3118 85.7215 49.0594 85.9739 49.0594L86.2263 50.8261Z" fill="black"/>
<path d="M93.5426 50.0684C93.2902 50.3208 92.5331 51.0779 91.0188 51.0779C88.7475 51.0779 87.4856 49.816 87.4856 47.797C87.4856 45.5257 88.9998 44.2638 91.0188 44.2638C92.0283 44.2638 93.0378 44.7685 93.5426 45.0209V43.7591C93.5426 42.4972 92.7854 41.9924 91.5236 41.9924C90.2617 41.9924 89.2522 42.4972 88.4951 42.7496V40.9829C89.2522 40.7306 90.2617 40.2258 91.7759 40.2258C94.0473 40.2258 95.5615 41.4877 95.5615 43.7591V50.8255H93.5426V50.0684ZM93.5426 47.5447C93.5426 46.7875 92.5331 46.2828 91.5236 46.2828C90.5141 46.2828 89.5046 46.7875 89.5046 48.0494C89.5046 49.0589 90.5141 49.5636 91.5236 49.5636C92.7854 49.5636 93.5426 48.8065 93.5426 48.0494V47.5447Z" fill="black"/>
<path d="M115.502 44.2638C115.502 43.0019 114.745 42.2448 113.735 42.2448C112.473 42.2448 111.716 43.0019 111.716 44.2638V51.0779H109.697V44.2638C109.697 43.0019 108.94 42.2448 107.931 42.2448C106.669 42.2448 105.912 43.0019 105.912 44.2638V51.0779H103.64V40.4782H105.659V41.2353C105.912 40.7306 106.921 40.2258 108.183 40.2258C109.445 40.2258 110.454 40.7306 111.212 41.7401C111.716 40.983 112.726 40.2258 114.24 40.2258C116.259 40.2258 117.773 41.7401 117.773 44.0114V50.8255H115.754V44.2638H115.502Z" fill="black"/>
<path d="M125.852 50.0684C125.6 50.3208 124.843 51.0779 123.328 51.0779C121.057 51.0779 119.795 49.816 119.795 47.797C119.795 45.5257 121.309 44.2638 123.328 44.2638C124.338 44.2638 125.347 44.7685 125.852 45.0209V43.7591C125.852 42.4972 125.095 41.9924 123.833 41.9924C122.571 41.9924 121.562 42.4972 120.805 42.7496L120.552 40.9829C121.309 40.7306 122.319 40.2258 123.833 40.2258C126.104 40.2258 127.619 41.4877 127.619 43.7591V50.8255H125.6V50.0684H125.852ZM125.852 47.5447C125.852 46.7875 124.843 46.2828 123.833 46.2828C122.824 46.2828 121.814 46.7875 121.814 48.0494C121.814 49.0589 122.824 49.5636 123.833 49.5636C125.095 49.5636 125.852 48.8065 125.852 48.0494V47.5447Z" fill="black"/>
<path d="M136.953 44.2638C136.953 43.0019 136.195 42.2448 135.186 42.2448C133.924 42.2448 133.167 43.0019 133.167 44.2638V51.0779H131.148V40.4782H133.167V41.2353C133.419 40.7306 134.429 40.2258 135.691 40.2258C137.71 40.2258 139.224 41.7401 139.224 44.0114V50.8255H137.205V44.2638H136.953Z" fill="black"/>
<path d="M147.303 50.0684C147.05 50.3208 146.293 51.0779 144.779 51.0779C142.508 51.0779 141.246 49.816 141.246 47.797C141.246 45.5257 142.76 44.2638 144.779 44.2638C145.789 44.2638 146.798 44.7685 147.303 45.0209V43.7591C147.303 42.4972 146.546 41.9924 145.284 41.9924C144.022 41.9924 143.012 42.4972 142.255 42.7496L142.003 40.9829C142.76 40.7306 143.77 40.2258 145.284 40.2258C147.555 40.2258 149.069 41.4877 149.069 43.7591V50.8255H147.05V50.0684H147.303ZM147.303 47.5447C147.303 46.7875 146.293 46.2828 145.284 46.2828C144.274 46.2828 143.265 46.7875 143.265 48.0494C143.265 49.0589 144.274 49.5636 145.284 49.5636C146.546 49.5636 147.303 48.8065 147.303 48.0494V47.5447Z" fill="black"/>
<path d="M160.928 51.0787C160.928 54.3596 159.162 55.3691 156.638 55.3691C154.871 55.3691 153.609 54.8643 153.105 54.612L153.357 52.8454C154.114 53.0977 155.124 53.6025 156.385 53.6025C157.647 53.6025 158.657 52.593 158.657 51.0787V49.8169C158.404 50.0693 157.395 51.0787 155.881 51.0787C153.862 51.0787 151.59 49.8169 151.59 46.0313C151.59 42.2457 153.609 40.7314 155.881 40.7314C157.647 40.7314 158.152 41.2362 158.404 41.7409V40.9838H160.423V51.0787H160.928ZM158.909 44.517C158.909 42.7504 157.9 41.9933 156.638 41.9933C155.376 41.9933 154.114 43.0028 154.114 45.5265C154.114 48.0503 155.124 48.8074 156.638 48.8074C157.9 48.8074 159.162 48.0503 159.162 46.2837V44.517H158.909Z" fill="black"/>
<path d="M165.474 46.5369C165.726 48.5559 166.735 49.313 168.25 49.313C169.764 49.313 170.773 49.0607 171.531 48.5559L171.783 50.5749C170.773 51.0797 169.764 51.332 168.25 51.332C165.726 51.332 163.455 49.8178 163.455 46.0322C163.455 42.499 165.474 40.48 167.997 40.48C170.773 40.48 172.288 42.499 172.288 45.5274V46.5369H165.474ZM170.269 45.0227C170.269 43.2561 169.259 42.2466 167.997 42.2466C166.988 42.2466 165.978 42.7513 165.726 45.0227H170.269Z" fill="black"/>
<path d="M186.418 44.2638C186.418 43.0019 185.661 42.2448 184.652 42.2448C183.39 42.2448 182.633 43.0019 182.633 44.2638V51.0779H180.614V44.2638C180.614 43.0019 179.857 42.2448 178.847 42.2448C177.585 42.2448 176.828 43.0019 176.828 44.2638V51.0779H174.809V40.4782H176.828V41.2353C177.08 40.7306 178.09 40.2258 179.352 40.2258C180.614 40.2258 181.623 40.7306 182.38 41.7401C182.885 40.983 183.895 40.2258 185.409 40.2258C187.428 40.2258 188.942 41.7401 188.942 44.0114V50.8255H186.923V44.2638H186.418Z" fill="black"/>
<path d="M192.98 46.5369C193.232 48.5559 194.242 49.313 195.756 49.313C197.27 49.313 198.28 49.0607 199.037 48.5559L199.289 50.5749C198.28 51.0797 197.27 51.332 195.756 51.332C193.232 51.332 190.961 49.8178 190.961 46.0322C190.961 42.499 192.98 40.48 195.504 40.48C198.28 40.48 199.794 42.499 199.794 45.5274V46.5369H192.98ZM197.775 45.0227C197.775 43.2561 196.766 42.2466 195.504 42.2466C194.494 42.2466 193.485 42.7513 193.232 45.0227H197.775Z" fill="black"/>
<path d="M208.121 44.2638C208.121 43.0019 207.364 42.2448 206.354 42.2448C205.093 42.2448 204.335 43.0019 204.335 44.2638V51.0779H202.316V40.4782H204.335V41.2353C204.588 40.7306 205.597 40.2258 206.859 40.2258C208.878 40.2258 210.392 41.7401 210.392 44.0114V50.8255H208.373V44.2638H208.121Z" fill="black"/>
<path d="M217.967 50.8261C217.714 51.0784 217.21 51.0784 216.2 51.0784C214.938 51.0784 213.676 50.5737 213.676 48.3023V41.993H212.162V40.2264H213.424V36.1884L215.443 35.936V40.2264H217.21V41.993H215.443V48.3023C215.443 49.0594 215.948 49.3118 216.2 49.3118C216.705 49.3118 217.21 49.0594 217.462 49.0594L217.967 50.8261Z" fill="black"/>
<path d="M225.788 50.0702C225.536 50.5749 224.779 51.0797 223.265 51.0797C221.246 51.0797 219.984 49.5654 219.984 47.2941V40.48H222.003V47.2941C222.003 48.5559 222.508 49.313 223.769 49.313C225.284 49.313 226.041 48.3035 226.041 47.0417V40.48H228.06V51.0797H226.041V50.0702H225.788Z" fill="black"/>
<path d="M241.185 50.0684C240.932 50.3208 240.175 51.0779 238.661 51.0779C236.39 51.0779 235.128 49.816 235.128 47.797C235.128 45.5257 236.642 44.2638 238.661 44.2638C239.67 44.2638 240.68 44.7685 241.185 45.0209V43.7591C241.185 42.4972 240.428 41.9924 239.166 41.9924C237.904 41.9924 236.894 42.4972 236.137 42.7496L235.885 40.9829C236.642 40.7306 237.651 40.2258 239.166 40.2258C241.437 40.2258 242.951 41.4877 242.951 43.7591V50.8255H240.932V50.0684H241.185ZM241.185 47.5447C241.185 46.7875 240.175 46.2828 239.166 46.2828C238.156 46.2828 237.147 46.7875 237.147 48.0494C237.147 49.0589 238.156 49.5636 239.166 49.5636C240.428 49.5636 241.185 48.8065 241.185 48.0494V47.5447Z" fill="black"/>
<path d="M253.046 46.5369C253.298 48.5559 254.308 49.313 255.822 49.313C257.336 49.313 258.346 49.0607 259.103 48.5559L259.355 50.5749C258.346 51.0797 257.336 51.332 255.822 51.332C253.298 51.332 251.027 49.8178 251.027 46.0322C251.027 42.499 253.046 40.48 255.57 40.48C258.346 40.48 259.86 42.499 259.86 45.5274V46.5369H253.046ZM257.589 45.0227C257.589 43.2561 256.579 42.2466 255.317 42.2466C254.308 42.2466 253.298 42.7513 253.046 45.0227H257.589Z" fill="black"/>
<path d="M264.151 51.0787H262.132V35.1792H264.151V44.7694L267.685 40.479H270.208L266.423 45.0218L270.965 51.0787H268.442L264.404 45.5265V51.0787H264.151Z" fill="black"/>
<path d="M275.509 51.0797C272.985 51.0797 270.714 49.5654 270.714 45.7798C270.714 41.9942 272.985 40.48 275.509 40.48C278.033 40.48 280.304 41.9942 280.304 45.7798C280.304 49.8178 278.033 51.0797 275.509 51.0797ZM275.509 42.2466C273.995 42.2466 272.733 43.5085 272.733 45.7798C272.733 48.0512 273.995 49.313 275.509 49.313C277.023 49.313 278.285 48.0512 278.285 45.7798C278.285 43.5085 277.023 42.2466 275.509 42.2466Z" fill="black"/>
<path d="M288.632 44.2638C288.632 43.0019 287.875 42.2448 286.865 42.2448C285.603 42.2448 284.846 43.0019 284.846 44.2638V51.0779H282.827V40.4782H284.846V41.2353C285.099 40.7306 286.108 40.2258 287.37 40.2258C289.389 40.2258 290.903 41.7401 290.903 44.0114V50.8255H288.884V44.2638H288.632Z" fill="black"/>
<path d="M297.714 51.0797C295.19 51.0797 292.918 49.5654 292.918 45.7798C292.918 41.9942 295.19 40.48 297.714 40.48C300.237 40.48 302.509 41.9942 302.509 45.7798C302.509 49.8178 300.237 51.0797 297.714 51.0797ZM297.714 42.2466C296.199 42.2466 294.937 43.5085 294.937 45.7798C294.937 48.0512 296.199 49.313 297.714 49.313C299.228 49.313 300.49 48.0512 300.49 45.7798C300.49 43.5085 299.48 42.2466 297.714 42.2466Z" fill="black"/>
<path d="M316.898 44.2638C316.898 43.0019 316.141 42.2448 315.132 42.2448C313.87 42.2448 313.113 43.0019 313.113 44.2638V51.0779H311.094V44.2638C311.094 43.0019 310.337 42.2448 309.327 42.2448C308.065 42.2448 307.308 43.0019 307.308 44.2638V51.0779H305.289V40.4782H307.308V41.2353C307.56 40.7306 308.57 40.2258 309.832 40.2258C311.094 40.2258 312.103 40.7306 312.86 41.7401C313.365 40.983 314.374 40.2258 315.889 40.2258C317.908 40.2258 319.422 41.7401 319.422 44.0114V50.8255H317.403V44.2638H316.898Z" fill="black"/>
<path d="M322.951 38.4598C322.194 38.4598 321.689 37.955 321.689 37.1979C321.689 36.4408 322.194 35.936 322.951 35.936C323.708 35.936 324.213 36.4408 324.213 37.1979C324.213 38.2074 323.708 38.4598 322.951 38.4598ZM323.961 40.4788V51.0784H321.942V40.4788H323.961Z" fill="black"/>
<path d="M329.011 51.0787H326.992V35.1792H329.011V44.7694L332.544 40.479H335.068L331.282 45.0218L335.825 51.0787H333.301L329.263 45.5265V51.0787H329.011Z" fill="black"/>
<path d="M339.608 55.37V49.313L335.57 40.48H337.841L340.617 47.0417L343.393 40.48H345.665L341.627 49.313V55.37H339.608Z" fill="black"/>
<path d="M18.8446 0.855469L0.168945 7.1648V0.855469H18.8446ZM0.168945 8.17429C0.168945 9.18378 1.68318 9.9409 3.4498 9.9409C4.20692 9.9409 4.71166 9.68853 5.21641 9.68853C5.97353 9.43616 23.1349 3.3792 23.1349 3.3792V28.3641C23.1349 28.3641 5.72116 34.4211 5.21641 34.6735C4.71166 34.9258 3.95454 34.9258 3.4498 34.9258C1.68318 34.9258 0.168945 33.9164 0.168945 32.4021V8.17429Z" fill="#64B9E4"/>
<path d="M46.6066 17.5112C46.6066 21.5492 45.0923 23.8205 41.0543 23.8205C37.0164 23.8205 35.2498 21.5492 35.2498 17.5112V5.64966H37.5211V17.5112C37.5211 20.2873 38.2782 21.8015 40.802 21.8015C43.3257 21.8015 44.0828 20.2873 44.0828 17.5112V5.64966H46.3542V17.5112H46.6066Z" fill="black"/>
<path d="M56.9521 15.9979C56.9521 14.736 56.195 13.7265 54.9331 13.7265C53.4189 13.7265 52.6617 14.736 52.6617 15.9979V23.8214H50.3904V11.7075H52.6617V12.717C53.1665 12.2123 53.9236 11.7075 55.4378 11.7075C57.7092 11.7075 59.4758 13.2218 59.4758 15.9979V23.8214H57.2045V15.9979H56.9521Z" fill="black"/>
<path d="M63.7677 9.43619C62.7582 9.43619 62.2534 8.93145 62.2534 7.92195C62.2534 6.91246 62.7582 6.40771 63.7677 6.40771C64.7772 6.40771 65.2819 6.91246 65.2819 7.92195C65.2819 9.18382 64.7772 9.43619 63.7677 9.43619ZM65.0295 11.7076V23.8215H62.7582V11.7076H65.0295Z" fill="black"/>
<path d="M66.7974 11.7075H69.3211L72.3496 20.793L75.3781 11.7075H77.9018L73.3591 23.8214H71.0877L66.7974 11.7075Z" fill="black"/>
<path d="M80.6768 18.7739C80.9292 21.0453 82.191 21.8024 83.7053 21.8024C85.4719 21.8024 86.4814 21.2976 87.2385 20.7929L87.7433 23.0642C86.7338 23.569 85.4719 23.8214 83.7053 23.8214C80.6768 23.8214 78.1531 22.0548 78.1531 17.7644C78.1531 13.7264 80.4244 11.4551 83.2005 11.4551C86.4814 11.4551 88.248 13.7264 88.248 17.2597V18.5215H80.6768V18.7739ZM85.9766 17.0073C85.9766 14.9883 84.9672 13.7264 83.4529 13.7264C82.191 13.7264 80.9292 14.4836 80.6768 17.0073H85.9766Z" fill="black"/>
<path d="M96.3209 14.2312C96.0685 14.2312 95.5638 13.9788 94.8067 13.9788C94.0495 13.9788 93.5448 14.7359 93.5448 15.9978V23.8214H91.2734V11.7075H93.5448V12.9693C93.7972 12.2122 94.5543 11.4551 95.8162 11.4551C96.3209 11.4551 96.5733 11.4551 96.8256 11.7075L96.3209 14.2312Z" fill="black"/>
<path d="M106.673 23.8214H97.8396L103.644 13.7265H98.092V11.7075H106.925L101.373 21.8024H106.673V23.8214Z" fill="black"/>
<path d="M110.456 9.43619C109.447 9.43619 108.942 8.93145 108.942 7.92195C108.942 6.91246 109.447 6.40771 110.456 6.40771C111.466 6.40771 111.97 6.91246 111.97 7.92195C111.97 9.18382 111.213 9.43619 110.456 9.43619ZM111.466 11.7076V23.8215H109.194V11.7076H111.466Z" fill="black"/>
<path d="M120.806 23.5687C120.301 23.8211 119.796 24.0735 118.787 24.0735C117.525 24.0735 115.758 23.5687 115.758 21.045V13.7262H114.244V11.7072H115.758V7.16448L118.029 6.91211V11.7072H120.048V13.4738H118.029V20.5403C118.029 21.2974 118.534 21.5498 119.039 21.5498C119.544 21.5498 120.048 21.2974 120.553 21.2974L120.806 23.5687Z" fill="black"/>
<path d="M129.131 22.8119C128.879 23.0643 128.121 23.8214 126.355 23.8214C123.831 23.8214 122.317 22.5596 122.317 20.0358C122.317 17.5121 124.084 16.2502 126.355 16.2502C127.617 16.2502 128.626 16.755 129.131 17.2597V15.7455C129.131 14.2313 128.121 13.7265 126.86 13.7265C125.345 13.7265 124.084 14.2313 123.579 14.4836L123.326 12.4646C124.084 12.2123 125.345 11.7075 127.112 11.7075C129.888 11.7075 131.402 13.2218 131.402 15.7455V23.8214H129.131V22.8119ZM129.131 19.7835C129.131 18.774 128.121 18.2692 126.86 18.2692C125.598 18.2692 124.588 18.774 124.588 20.2882C124.588 21.5501 125.598 22.0548 126.86 22.0548C128.121 22.0548 129.131 21.2977 129.131 20.2882V19.7835Z" fill="black"/>
<path d="M144.275 23.8205V7.92102H139.984V5.64966H151.089V7.92102H146.546V23.8205H144.275Z" fill="black"/>
<path d="M155.632 23.8214C152.603 23.8214 150.079 22.0548 150.079 17.7645C150.079 13.2218 152.603 11.7075 155.632 11.7075C158.408 11.7075 161.184 13.4741 161.184 17.7645C161.184 22.3072 158.66 23.8214 155.632 23.8214ZM155.632 13.7265C153.865 13.7265 152.603 15.2407 152.603 17.7645C152.603 20.2882 153.865 21.8024 155.632 21.8024C157.398 21.8024 158.66 20.5406 158.66 17.7645C158.66 14.9884 157.398 13.7265 155.632 13.7265Z" fill="black"/>
<path d="M177.334 15.9979C177.334 14.736 176.577 13.7265 175.315 13.7265C173.801 13.7265 173.044 14.736 173.044 15.9979V23.8214H170.773V15.9979C170.773 14.736 170.016 13.7265 168.754 13.7265C167.239 13.7265 166.482 14.736 166.482 15.9979V23.8214H164.211V11.7075H166.482V12.717C166.987 12.2123 167.744 11.7075 169.258 11.7075C170.773 11.7075 172.035 12.2123 172.539 13.4741C173.296 12.4646 174.306 11.7075 175.82 11.7075C178.091 11.7075 179.858 13.2218 179.858 15.9979V23.8214H177.587V15.9979H177.334Z" fill="black"/>
<path d="M189.448 22.8129C189.196 23.3176 188.186 24.0747 186.672 24.0747C184.149 24.0747 182.634 22.8129 182.634 20.2892C182.634 17.7654 184.401 16.5036 186.672 16.5036C187.934 16.5036 188.944 17.0083 189.448 17.513V15.7464C189.448 14.2322 188.439 13.7274 187.177 13.7274C185.663 13.7274 184.401 14.2322 183.896 14.4846L183.644 12.4656C184.401 12.2132 185.663 11.7085 187.429 11.7085C190.205 11.7085 191.72 13.2227 191.72 15.7464V23.8224H189.448V22.8129ZM189.448 19.7844C189.448 18.7749 188.439 18.2702 187.177 18.2702C185.915 18.2702 184.906 18.7749 184.906 20.2892C184.906 21.551 185.915 22.0558 187.177 22.0558C188.439 21.8034 189.448 21.0463 189.448 20.0368V19.7844ZM187.934 6.15625H190.458L188.186 10.1942H186.42L187.934 6.15625Z" fill="black"/>
<path d="M198.281 23.8224C196.515 23.8224 195 23.3176 194.243 23.0653L195 21.0463C196.01 21.551 197.272 21.8034 198.534 21.8034C199.543 21.8034 200.552 21.551 200.552 20.5415C200.552 19.532 199.291 19.2797 198.029 18.7749C196.262 18.2702 194.496 17.7654 194.496 15.2417C194.496 12.718 196.262 11.7085 199.038 11.7085C200.805 11.7085 201.814 11.9608 202.571 12.4656L202.067 14.4846C201.057 13.9798 200.3 13.7274 198.786 13.7274C197.524 13.7274 196.515 14.2322 196.515 15.2417C196.515 15.9988 197.524 16.2512 198.534 16.7559C200.3 17.2607 202.571 17.7654 202.571 20.2891C202.824 22.5605 201.562 23.8224 198.281 23.8224ZM195.253 6.15625H197.272L198.786 8.42761L200.3 6.15625H202.319L200.048 10.1942H197.524L195.253 6.15625Z" fill="black"/>
<path d="M207.367 18.7739C207.62 21.0453 208.882 21.8024 210.396 21.8024C212.163 21.8024 213.172 21.2976 213.929 20.7929L214.434 23.0642C213.424 23.569 212.163 23.8214 210.396 23.8214C207.367 23.8214 204.844 22.0548 204.844 17.7644C204.844 13.7264 207.115 11.4551 209.891 11.4551C213.172 11.4551 214.939 13.7264 214.939 17.2597V18.5215H207.367V18.7739ZM212.667 17.0073C212.667 14.9883 211.658 13.7264 210.144 13.7264C208.882 13.7264 207.62 14.4836 207.367 17.0073H212.667Z" fill="black"/>
<path d="M228.816 23.8205H223.769V5.64966H229.069C232.349 5.64966 234.368 7.41627 234.368 10.4447C234.368 12.4637 233.359 13.7256 231.845 14.4827C233.359 15.2398 234.621 16.7541 234.621 18.7731C234.621 21.8015 232.349 23.8205 228.816 23.8205ZM229.069 7.92102H226.04V13.2209H228.816C230.583 13.2209 231.845 12.2114 231.845 10.4447C231.845 8.67814 230.835 7.92102 229.069 7.92102ZM228.816 15.4922H226.04V21.5492H228.816C230.583 21.5492 232.097 20.5397 232.097 18.7731C232.097 16.7541 230.583 15.4922 228.816 15.4922Z" fill="black"/>
<path d="M243.708 22.8119C243.456 23.3167 242.446 24.0738 240.932 24.0738C238.409 24.0738 236.894 22.8119 236.894 20.2882C236.894 17.7645 238.661 16.5026 240.932 16.5026C242.194 16.5026 243.204 17.0074 243.708 17.5121V15.7455C243.708 14.2313 242.699 13.7265 241.437 13.7265C239.923 13.7265 238.661 14.2313 238.156 14.4836L237.904 12.4646C238.661 12.2123 239.923 11.7075 241.689 11.7075C244.465 11.7075 245.98 13.2218 245.98 15.7455V23.8214H243.708V22.8119ZM243.708 19.7835C243.708 18.774 242.699 18.2692 241.437 18.2692C240.175 18.2692 239.166 18.774 239.166 20.2882C239.166 21.5501 240.175 22.0548 241.437 22.0548C242.699 22.0548 243.708 21.2977 243.708 20.2882V19.7835Z" fill="black"/>
<path d="M254.813 23.5687C254.309 23.8211 253.804 24.0735 252.794 24.0735C251.533 24.0735 249.766 23.5687 249.766 21.045V13.7262H248.252V11.7072H250.018V7.16448L252.29 6.91211V11.7072H254.309V13.4738H252.29V20.5403C252.29 21.2974 252.794 21.5498 253.299 21.5498C253.804 21.5498 254.309 21.2974 254.813 21.2974V23.5687Z" fill="black"/>
<path d="M258.348 9.43619C257.338 9.43619 256.833 8.93145 256.833 7.92195C256.833 6.91246 257.338 6.40771 258.348 6.40771C259.357 6.40771 259.862 6.91246 259.862 7.92195C259.862 9.18382 259.105 9.43619 258.348 9.43619ZM259.357 11.7076V23.8215H257.086V11.7076H259.357Z" fill="black"/>
<path d="M266.928 11.7075H269.452L272.481 20.793L275.509 11.7075H278.033L273.743 23.8214H271.471L266.928 11.7075Z" fill="black"/>
<path d="M280.807 18.7739C281.059 21.0453 282.321 21.8024 283.835 21.8024C285.602 21.8024 286.611 21.2976 287.368 20.7929L287.873 23.0642C286.864 23.569 285.602 23.8214 283.835 23.8214C280.807 23.8214 278.283 22.0548 278.283 17.7644C278.283 13.7264 280.554 11.4551 283.33 11.4551C286.611 11.4551 288.378 13.7264 288.378 17.2597V18.5215H280.807V18.7739ZM286.107 17.0073C286.107 14.9883 285.097 13.7264 283.583 13.7264C282.321 13.7264 281.059 14.4836 280.807 17.0073H286.107Z" fill="black"/>
<path d="M306.551 23.8205H295.951L303.523 7.92102H296.456V5.64966H307.056L299.485 21.5492H306.551V23.8205Z" fill="black"/>
<path d="M311.598 5.64966V23.8205H309.326V5.64966H311.598Z" fill="black"/>
<path d="M316.645 6.15625H319.169L316.897 10.1942H315.131L316.645 6.15625ZM317.402 11.7085V23.8224H315.131V11.7085H317.402Z" fill="black"/>
<path d="M327.752 15.9979C327.752 14.736 326.995 13.7265 325.733 13.7265C324.219 13.7265 323.462 14.736 323.462 15.9979V23.8214H321.19V11.7075H323.462V12.717C323.966 12.2123 324.723 11.7075 326.238 11.7075C328.509 11.7075 330.276 13.2218 330.276 15.9979V23.8214H328.004V15.9979H327.752Z" fill="black"/>
<path d="M335.069 18.7749C335.321 21.0463 336.583 21.8034 338.097 21.8034C339.864 21.8034 340.873 21.2986 341.63 20.7939L342.135 23.0653C341.126 23.57 339.864 23.8224 338.097 23.8224C335.069 23.8224 332.545 22.0558 332.545 17.7654C332.545 13.7274 334.816 11.4561 337.592 11.4561C340.873 11.4561 342.64 13.7274 342.64 17.2607V18.5225H335.069V18.7749ZM334.312 6.15625H336.331L337.845 8.42761L339.359 6.15625H341.378L339.107 10.1942H336.583L334.312 6.15625ZM340.369 17.0083C340.369 14.9893 339.359 13.7274 337.845 13.7274C336.583 13.7274 335.321 14.4846 335.069 17.0083H340.369Z" fill="black"/>
</svg>
