<svg width="343" height="52" viewBox="0 0 343 52" fill="none" xmlns="http://www.w3.org/2000/svg">
<path d="M43.1134 41.5273V43.5463H37.3088V50.8651H35.2898V34.9656H43.8705V36.9846H37.3088V41.5273H43.1134Z" fill="black"/>
<path d="M50.4337 49.8555C50.1813 50.1079 49.4242 50.865 47.9099 50.865C45.6386 50.865 44.3767 49.6031 44.3767 47.5841C44.3767 45.3128 45.8909 44.0509 47.9099 44.0509C48.9194 44.0509 49.9289 44.5557 50.4337 44.808V43.5462C50.4337 42.2843 49.6765 41.7795 48.4147 41.7795C47.1528 41.7795 46.1433 42.2843 45.3862 42.5367L45.1338 40.7701C45.8909 40.5177 46.9004 40.0129 48.4147 40.0129C50.686 40.0129 52.2003 41.2748 52.2003 43.5462V50.6126H50.1813V49.8555H50.4337ZM50.4337 47.3318C50.4337 46.5746 49.4242 46.0699 48.4147 46.0699C47.4052 46.0699 46.3957 46.5746 46.3957 47.8365C46.3957 48.846 47.4052 49.3507 48.4147 49.3507C49.6765 49.3507 50.4337 48.5936 50.4337 47.8365V47.3318Z" fill="black"/>
<path d="M57.4978 50.8651H55.7312V34.9656H57.4978V44.5558L61.031 40.2654H63.5548L59.7692 44.8081L64.3119 50.8651H61.5358L57.4978 45.3129V50.8651Z" fill="black"/>
<path d="M71.3778 49.8556C71.1255 50.3603 70.3683 50.8651 68.8541 50.8651C66.8351 50.8651 65.5732 49.3508 65.5732 47.0795V40.2654H67.5922V47.0795C67.5922 48.3413 68.097 49.0984 69.3588 49.0984C70.8731 49.0984 71.6302 48.0889 71.6302 46.8271V40.2654H73.3968V50.8651H71.3778V49.8556Z" fill="black"/>
<path d="M78.445 34.9656H76.426V50.8651H78.445V34.9656Z" fill="black"/>
<path d="M86.269 50.6124C86.0166 50.8648 85.5119 50.8648 84.5024 50.8648C83.2405 50.8648 81.9787 50.3601 81.9787 48.0887V41.7794H80.7168V40.0128H81.9787V35.9748L83.9977 35.7224V40.0128H85.7643V41.7794H83.9977V48.0887C83.9977 48.8458 84.5024 49.0982 84.7548 49.0982C85.2595 49.0982 85.7643 48.8458 86.0166 48.8458L86.269 50.6124Z" fill="black"/>
<path d="M93.5892 49.8555C93.3368 50.1079 92.5797 50.865 91.0655 50.865C88.7941 50.865 87.5322 49.6031 87.5322 47.5841C87.5322 45.3128 89.0465 44.0509 91.0655 44.0509C92.0749 44.0509 93.0844 44.5557 93.5892 44.808V43.5462C93.5892 42.2843 92.8321 41.7795 91.5702 41.7795C90.3083 41.7795 89.2988 42.2843 88.5417 42.5367V40.7701C89.2988 40.5177 90.3083 40.0129 91.8226 40.0129C94.0939 40.0129 95.6082 41.2748 95.6082 43.5462V50.6126H93.5892V49.8555ZM93.5892 47.3318C93.5892 46.5746 92.5797 46.0699 91.5702 46.0699C90.5607 46.0699 89.5512 46.5746 89.5512 47.8365C89.5512 48.846 90.5607 49.3507 91.5702 49.3507C92.8321 49.3507 93.5892 48.5936 93.5892 47.8365V47.3318Z" fill="black"/>
<path d="M109.741 44.051C109.741 42.7891 108.984 42.032 107.974 42.032C106.713 42.032 105.955 42.7891 105.955 44.051V50.8651H103.684V34.9656H105.703V41.2749C105.955 40.7702 106.965 40.2654 108.227 40.2654C110.246 40.2654 111.76 41.7797 111.76 44.051V50.8651H109.741V44.051Z" fill="black"/>
<path d="M120.591 49.8556C120.339 50.3603 119.581 50.8651 118.067 50.8651C116.048 50.8651 114.786 49.3508 114.786 47.0795V40.2654H116.805V47.0795C116.805 48.3413 117.31 49.0984 118.572 49.0984C120.086 49.0984 120.843 48.0889 120.843 46.8271V40.2654H122.862V50.8651H120.843V49.8556H120.591Z" fill="black"/>
<path d="M137.498 44.0509C137.498 42.789 136.741 42.0319 135.731 42.0319C134.469 42.0319 133.712 42.789 133.712 44.0509V50.865H131.693V44.0509C131.693 42.789 130.936 42.0319 129.927 42.0319C128.665 42.0319 127.908 42.789 127.908 44.0509V50.865H125.889V40.2653H127.908V41.0224C128.16 40.5177 129.17 40.0129 130.431 40.0129C131.693 40.0129 132.703 40.5177 133.46 41.5272C133.965 40.7701 134.974 40.0129 136.488 40.0129C138.507 40.0129 140.022 41.5272 140.022 43.7985V50.6126H138.003V44.0509H137.498Z" fill="black"/>
<path d="M147.848 49.8555C147.596 50.1079 146.839 50.865 145.324 50.865C143.053 50.865 141.791 49.6031 141.791 47.5841C141.791 45.3128 143.306 44.0509 145.324 44.0509C146.334 44.0509 147.343 44.5557 147.848 44.808V43.5462C147.848 42.2843 147.091 41.7795 145.829 41.7795C144.567 41.7795 143.558 42.2843 142.801 42.5367L142.548 40.7701C143.306 40.5177 144.315 40.0129 145.829 40.0129C148.101 40.0129 149.615 41.2748 149.615 43.5462V50.6126H147.596V49.8555H147.848ZM147.848 47.3318C147.848 46.5746 146.839 46.0699 145.829 46.0699C144.82 46.0699 143.81 46.5746 143.81 47.8365C143.81 48.846 144.82 49.3507 145.829 49.3507C147.091 49.3507 147.848 48.5936 147.848 47.8365V47.3318Z" fill="black"/>
<path d="M158.95 44.0509C158.95 42.789 158.193 42.0319 157.184 42.0319C155.922 42.0319 155.165 42.789 155.165 44.0509V50.865H153.146V40.2653H155.165V41.0224C155.417 40.5177 156.427 40.0129 157.688 40.0129C159.707 40.0129 161.222 41.5272 161.222 43.7985V50.6126H159.203V44.0509H158.95Z" fill="black"/>
<path d="M165.008 38.2461C164.251 38.2461 163.747 37.7414 163.747 36.9843C163.747 36.2272 164.251 35.7224 165.008 35.7224C165.766 35.7224 166.27 36.2272 166.27 36.9843C166.27 37.9938 165.766 38.2461 165.008 38.2461ZM166.018 50.8648H163.999V40.2651H166.018V50.8648Z" fill="black"/>
<path d="M174.095 50.6132C173.843 50.8656 173.338 50.8656 172.328 50.8656C171.066 50.8656 169.805 50.3609 169.805 48.0895V41.7802H168.543V40.0136H169.805V35.9756H171.824V40.2659H173.59V42.0325H171.824V48.3419C171.824 49.099 172.328 49.3514 172.581 49.3514C173.085 49.3514 173.59 49.099 173.843 49.099L174.095 50.6132Z" fill="black"/>
<path d="M181.921 44.0509C181.921 42.789 181.164 42.0319 180.154 42.0319C178.892 42.0319 178.135 42.789 178.135 44.0509V50.865H176.116V40.2653H178.135V41.0224C178.388 40.5177 179.397 40.0129 180.659 40.0129C182.678 40.0129 184.192 41.5272 184.192 43.7985V50.6126H181.921V44.0509Z" fill="black"/>
<path d="M188.476 35.47H190.748L188.729 39.0032H186.962L188.476 35.47ZM188.981 50.8647H186.962V40.2651H188.981V50.8647Z" fill="black"/>
<path d="M198.824 50.3601C198.572 50.6125 197.31 51.1173 196.048 51.1173C194.029 51.1173 191.505 50.1078 191.505 45.8174C191.505 41.5271 194.029 40.5176 196.048 40.5176C197.31 40.5176 198.319 41.0223 198.824 41.2747L198.319 43.0413C197.814 42.7889 196.805 42.2842 196.048 42.2842C194.786 42.2842 193.776 43.2937 193.776 45.8174C193.776 48.3411 195.038 49.3506 196.048 49.3506C196.805 49.3506 197.814 48.8459 198.319 48.5935L198.824 50.3601Z" fill="black"/>
<path d="M206.903 44.051C206.903 42.7891 206.146 42.032 205.137 42.032C203.875 42.032 203.118 42.7891 203.118 44.051V50.8651H201.099V34.9656H203.118V41.2749C203.37 40.7702 204.379 40.2654 205.641 40.2654C207.66 40.2654 209.175 41.7797 209.175 44.051V50.8651H207.156V44.051H206.903Z" fill="black"/>
<path d="M220.025 50.8651C218.258 50.8651 217.249 50.3603 216.492 50.1079L216.744 48.3413C217.501 48.8461 218.763 49.0984 219.773 49.0984C220.782 49.0984 221.539 48.8461 221.539 47.8366C221.539 46.8271 220.53 46.5747 219.52 46.3223C218.006 46.07 216.492 45.5652 216.492 43.2939C216.492 41.2749 218.006 40.2654 220.53 40.2654C222.044 40.2654 223.053 40.5178 223.811 40.7701L223.558 42.5367C222.801 42.2844 222.044 41.7796 220.782 41.7796C219.52 41.7796 218.763 42.2844 218.763 43.0415C218.763 43.7986 219.52 44.051 220.53 44.3034C222.044 44.8081 224.063 45.3128 224.063 47.5842C223.811 49.8556 222.801 50.8651 220.025 50.8651Z" fill="black"/>
<path d="M230.878 50.6124C230.625 50.8648 230.121 50.8648 229.111 50.8648C227.849 50.8648 226.587 50.3601 226.587 48.0887V41.7794H225.325V40.0128H226.587V35.9748L228.606 35.7224V40.0128H230.373V41.7794H228.606V48.0887C228.606 48.8458 229.111 49.0982 229.363 49.0982C229.868 49.0982 230.373 48.8458 230.625 48.8458L230.878 50.6124Z" fill="black"/>
<path d="M238.703 49.8556C238.451 50.3603 237.694 50.8651 236.18 50.8651C234.161 50.8651 232.899 49.3508 232.899 47.0795V40.2654H234.918V47.0795C234.918 48.3413 235.422 49.0984 236.684 49.0984C238.199 49.0984 238.956 48.0889 238.956 46.8271V40.2654H240.975V50.8651H238.956V49.8556H238.703Z" fill="black"/>
<path d="M250.31 49.8545C250.057 50.1069 249.048 50.864 247.534 50.864C245.515 50.864 243.243 49.6022 243.243 45.5642C243.243 41.7786 245.262 40.012 247.534 40.012C249.3 40.012 249.805 40.5167 250.057 41.0215V34.7122H252.076V50.6117H250.057V49.8545H250.31ZM250.31 44.3023C250.31 42.5357 249.3 41.7786 248.038 41.7786C246.776 41.7786 245.515 42.7881 245.515 45.5642C245.515 48.0879 246.524 48.8451 248.038 48.8451C249.3 48.8451 250.562 48.0879 250.562 46.3213V44.3023H250.31Z" fill="black"/>
<path d="M256.37 38.2461C255.613 38.2461 255.108 37.7414 255.108 36.9843C255.108 36.2272 255.613 35.7224 256.37 35.7224C257.127 35.7224 257.632 36.2272 257.632 36.9843C257.885 37.9938 257.38 38.2461 256.37 38.2461ZM257.38 50.8648H255.361V40.2651H257.38V50.8648Z" fill="black"/>
<path d="M262.423 35.47H264.694L262.675 39.0032H261.161L262.423 35.47ZM263.18 50.8647H261.161V40.2651H263.18V50.8647Z" fill="black"/>
<path d="M18.8846 0.642578L0.208984 6.95191V0.642578H18.8846ZM0.208984 7.9614C0.208984 8.97089 1.72322 9.72801 3.48984 9.72801C4.24696 9.72801 4.7517 9.47564 5.25645 9.47564C6.01357 9.22327 23.1749 3.16631 23.1749 3.16631V28.1513C23.1749 28.1513 5.76119 34.2082 5.25645 34.4606C4.7517 34.713 3.99458 34.713 3.48984 34.713C1.72322 34.713 0.208984 33.7035 0.208984 32.1892V7.9614Z" fill="#8F3E0F"/>
<path d="M46.6466 17.2995C46.6466 21.3375 45.1324 23.6089 41.0944 23.6089C37.0564 23.6089 35.2898 21.3375 35.2898 17.2995V5.43799H37.5612V17.2995C37.5612 20.0756 38.3183 21.5899 40.842 21.5899C43.3657 21.5899 44.1229 20.0756 44.1229 17.2995V5.43799H46.3942V17.2995H46.6466Z" fill="black"/>
<path d="M56.9921 15.785C56.9921 14.5231 56.235 13.5136 54.9731 13.5136C53.4589 13.5136 52.7018 14.5231 52.7018 15.785V23.6085H50.4304V11.4946H52.7018V12.5041C53.2065 11.9994 53.9636 11.4946 55.4779 11.4946C57.7492 11.4946 59.5159 13.0089 59.5159 15.785V23.6085H57.2445V15.785H56.9921Z" fill="black"/>
<path d="M63.8077 9.2233C62.7982 9.2233 62.2935 8.71856 62.2935 7.70906C62.2935 6.69957 62.7982 6.19482 63.8077 6.19482C64.8172 6.19482 65.3219 6.69957 65.3219 7.70906C65.3219 8.97093 64.8172 9.2233 63.8077 9.2233ZM65.0696 23.6086H62.7982V11.4947H65.0696V23.6086Z" fill="black"/>
<path d="M66.8374 11.4946H69.3611L72.1372 20.5801L75.1657 11.4946H77.6895L73.3991 23.6085H71.1277L66.8374 11.4946Z" fill="black"/>
<path d="M80.7168 18.561C80.9692 20.8324 82.2311 21.5895 83.7453 21.5895C85.5119 21.5895 86.5214 21.0847 87.2786 20.58L87.7833 22.8514C86.7738 23.3561 85.5119 23.6085 83.7453 23.6085C80.7168 23.6085 78.1931 21.8419 78.1931 17.5515C78.1931 13.5135 80.4645 11.2422 83.2406 11.2422C86.5214 11.2422 88.288 13.5135 88.288 17.0468V18.3086H80.7168V18.561ZM86.0167 16.7944C86.0167 14.7754 85.0072 13.5135 83.493 13.5135C82.2311 13.5135 80.9692 14.2707 80.7168 16.7944H86.0167Z" fill="black"/>
<path d="M96.3609 14.0183C96.1086 13.7659 95.6038 13.7659 94.8467 13.7659C94.0896 13.7659 93.5848 14.523 93.5848 15.7849V23.6085H91.3135V11.4946H93.5848V12.7564C93.8372 11.9993 94.5943 11.2422 95.8562 11.2422C96.3609 11.2422 96.8657 11.4946 96.8657 11.4946L96.3609 14.0183Z" fill="black"/>
<path d="M106.713 23.6085H97.8796L103.432 13.5136H98.132V11.4946H106.965L101.413 21.5896H106.713V23.6085Z" fill="black"/>
<path d="M110.496 9.2233C109.487 9.2233 108.982 8.71856 108.982 7.70906C108.982 6.69957 109.487 6.19482 110.496 6.19482C111.506 6.19482 112.01 6.69957 112.01 7.70906C112.01 8.97093 111.253 9.2233 110.496 9.2233ZM111.506 23.6086H109.234V11.4947H111.506V23.6086Z" fill="black"/>
<path d="M120.846 23.3559C120.341 23.6082 119.836 23.8606 118.827 23.8606C117.312 23.8606 115.798 23.3559 115.798 20.8321V13.5133H114.284V11.4943H115.798V6.95159L118.07 6.69922V11.7467H120.089V13.5133H118.07V20.5797C118.07 21.3369 118.574 21.5892 119.079 21.5892C119.584 21.5892 120.089 21.3369 120.593 21.0845L120.846 23.3559Z" fill="black"/>
<path d="M129.171 22.599C128.919 22.8514 128.162 23.6085 126.395 23.6085C123.871 23.6085 122.357 22.3467 122.357 19.8229C122.357 17.2992 124.124 16.0373 126.395 16.0373C127.657 16.0373 128.666 16.5421 129.171 17.0468V15.5326C129.171 14.0184 128.162 13.5136 126.9 13.5136C125.385 13.5136 124.124 14.0184 123.619 14.2707L123.366 12.2517C124.124 11.9994 125.385 11.4946 127.152 11.4946C129.928 11.4946 131.442 13.0089 131.442 15.5326V23.6085H129.171V22.599ZM129.171 19.5706C129.171 18.5611 127.909 18.0563 126.9 18.0563C125.638 18.0563 124.628 18.5611 124.628 20.0753C124.628 21.3372 125.638 21.8419 126.9 21.8419C128.162 21.8419 129.171 21.0848 129.171 20.0753V19.5706Z" fill="black"/>
<path d="M144.315 23.6089V7.70935H140.024V5.43799H151.129V7.70935H146.586V23.6089H144.315Z" fill="black"/>
<path d="M155.675 23.6085C152.646 23.6085 150.122 21.8419 150.122 17.5516C150.122 13.0089 152.646 11.4946 155.675 11.4946C158.451 11.4946 161.227 13.2612 161.227 17.5516C161.227 22.0943 158.703 23.6085 155.675 23.6085ZM155.675 13.5136C153.908 13.5136 152.646 15.0279 152.646 17.5516C152.646 20.0753 153.908 21.5896 155.675 21.5896C157.441 21.5896 158.703 20.3277 158.703 17.5516C158.703 14.7755 157.441 13.5136 155.675 13.5136Z" fill="black"/>
<path d="M177.374 15.785C177.374 14.5231 176.617 13.5136 175.355 13.5136C173.841 13.5136 173.084 14.5231 173.084 15.785V23.6085H170.813V15.785C170.813 14.5231 170.056 13.5136 168.794 13.5136C167.279 13.5136 166.522 14.5231 166.522 15.785V23.6085H164.251V11.4946H166.522V12.5041C167.027 11.9994 167.784 11.4946 169.298 11.4946C170.813 11.4946 172.075 12.2517 172.579 13.2612C173.336 12.2517 174.346 11.4946 175.86 11.4946C178.131 11.4946 179.898 13.0089 179.898 15.785V23.6085H177.627V15.785H177.374Z" fill="black"/>
<path d="M189.488 22.6C189.236 23.1047 188.227 23.8619 186.712 23.8619C184.189 23.8619 182.674 22.6 182.674 20.0763C182.674 17.5525 184.441 16.2907 186.712 16.2907C187.974 16.2907 188.984 16.7954 189.488 17.3002V15.5335C189.488 14.0193 188.479 13.5146 187.217 13.5146C185.703 13.5146 184.441 14.0193 183.936 14.2717L183.684 12.2527C184.441 12.0003 185.703 11.4956 187.469 11.4956C190.245 11.4956 191.76 13.0098 191.76 15.5335V23.6095H189.488V22.6ZM189.488 19.5715C189.488 18.562 188.479 18.0573 187.217 18.0573C185.955 18.0573 184.946 18.562 184.946 20.0763C184.946 21.3381 185.955 21.8429 187.217 21.8429C188.479 21.5905 189.488 20.8334 189.488 19.8239V19.5715ZM187.974 5.94336H190.498L188.227 9.98133H186.46L187.974 5.94336Z" fill="black"/>
<path d="M198.321 23.6095C196.555 23.6095 195.04 23.1047 194.283 22.8524L195.04 20.8334C196.05 21.3381 197.312 21.5905 198.574 21.5905C199.583 21.5905 200.593 21.3381 200.593 20.3286C200.593 19.3191 199.331 19.0668 198.069 18.562C196.302 18.0573 194.536 17.5525 194.536 15.0288C194.536 12.5051 196.302 11.4956 199.078 11.4956C200.845 11.4956 201.854 11.7479 202.612 12.2527L202.359 14.2717C201.35 13.7669 200.593 13.5146 199.078 13.5146C197.816 13.5146 196.807 14.0193 196.807 15.0288C196.807 15.7859 197.816 16.0383 199.078 16.543C200.845 17.0478 203.116 17.5525 203.116 20.0763C202.864 22.3476 201.602 23.6095 198.321 23.6095ZM195.293 5.94336H197.312L198.826 8.21472L200.34 5.94336H202.359L200.088 9.98133H197.564L195.293 5.94336Z" fill="black"/>
<path d="M207.408 18.561C207.66 20.8324 208.922 21.5895 210.436 21.5895C212.203 21.5895 213.212 21.0847 213.969 20.58L214.474 22.8514C213.464 23.3561 212.203 23.6085 210.436 23.6085C207.408 23.6085 204.884 21.8419 204.884 17.5515C204.884 13.5135 207.155 11.2422 209.931 11.2422C213.212 11.2422 214.979 13.5135 214.979 17.0468V18.3086H207.408V18.561ZM212.707 16.7944C212.707 14.7754 211.698 13.5135 210.184 13.5135C208.922 13.5135 207.66 14.2707 207.408 16.7944H212.707Z" fill="black"/>
<path d="M228.856 23.6089H223.809V5.43799H229.109C232.39 5.43799 234.409 7.2046 234.409 10.2331C234.409 12.2521 233.399 13.5139 231.885 14.2711C233.651 15.0282 234.661 16.5424 234.661 18.5614C234.661 21.5899 232.39 23.6089 228.856 23.6089ZM229.109 7.70935H226.08V13.0092H228.856C230.623 13.0092 231.885 11.9997 231.885 10.2331C231.885 8.46647 230.875 7.70935 229.109 7.70935ZM228.856 15.2805H226.08V21.3375H228.856C230.875 21.3375 232.137 20.328 232.137 18.5614C232.137 16.5424 230.623 15.2805 228.856 15.2805Z" fill="black"/>
<path d="M243.748 22.599C243.496 23.1038 242.487 23.8609 240.972 23.8609C238.449 23.8609 236.934 22.599 236.934 20.0753C236.934 17.5516 238.701 16.2897 240.972 16.2897C242.234 16.2897 243.244 16.7945 243.748 17.2992V15.5326C243.748 14.0184 242.739 13.5136 241.477 13.5136C239.963 13.5136 238.701 14.0184 238.196 14.2707L237.944 12.2517C238.701 11.9994 239.963 11.4946 241.729 11.4946C244.506 11.4946 246.02 13.0089 246.02 15.5326V23.6085H243.748V22.599ZM243.748 19.5706C243.748 18.5611 242.739 18.0563 241.477 18.0563C240.215 18.0563 239.206 18.5611 239.206 20.0753C239.206 21.3372 240.215 21.8419 241.477 21.8419C242.739 21.8419 243.748 21.0848 243.748 20.0753V19.5706Z" fill="black"/>
<path d="M254.853 23.3559C254.349 23.6082 253.844 23.8606 252.834 23.8606C251.573 23.8606 249.806 23.3559 249.806 20.8321V13.5133H248.292V11.4943H250.058V6.95159L252.33 6.69922V11.7467H254.349V13.5133H252.33V20.5797C252.33 21.3369 252.834 21.5892 253.339 21.5892C253.844 21.5892 254.349 21.3369 254.853 21.0845V23.3559Z" fill="black"/>
<path d="M258.388 9.2233C257.378 9.2233 256.873 8.71856 256.873 7.70906C256.873 6.69957 257.378 6.19482 258.388 6.19482C259.397 6.19482 259.902 6.69957 259.902 7.70906C259.902 8.97093 259.145 9.2233 258.388 9.2233ZM259.397 23.6086H257.126V11.4947H259.397V23.6086Z" fill="black"/>
<path d="M266.968 11.4946H269.492L272.52 20.5801L275.549 11.4946H278.073L273.53 23.6085H271.511L266.968 11.4946Z" fill="black"/>
<path d="M280.847 18.561C281.099 20.8324 282.361 21.5895 283.875 21.5895C285.642 21.5895 286.651 21.0847 287.408 20.58L287.913 22.8514C286.904 23.3561 285.642 23.6085 283.875 23.6085C280.847 23.6085 278.323 21.8419 278.323 17.5515C278.323 13.5135 280.594 11.2422 283.37 11.2422C286.651 11.2422 288.418 13.5135 288.418 17.0468V18.3086H280.847V18.561ZM286.147 16.7944C286.147 14.7754 285.137 13.5135 283.623 13.5135C282.361 13.5135 281.099 14.2707 280.847 16.7944H286.147Z" fill="black"/>
<path d="M306.591 23.6089H295.991L303.563 7.70935H296.496V5.43799H307.096L299.525 21.3375H306.591V23.6089Z" fill="black"/>
<path d="M311.638 5.43799H309.366V23.6089H311.638V5.43799Z" fill="black"/>
<path d="M316.685 5.94336H319.209L316.937 9.98133H315.171L316.685 5.94336ZM317.442 23.6095H315.171V11.4956H317.442V23.6095Z" fill="black"/>
<path d="M327.792 15.785C327.792 14.5231 327.035 13.5136 325.773 13.5136C324.259 13.5136 323.502 14.5231 323.502 15.785V23.6085H321.23V11.4946H323.502V12.5041C324.006 11.9994 324.763 11.4946 326.278 11.4946C328.549 11.4946 330.316 13.0089 330.316 15.785V23.6085H328.044V15.785H327.792Z" fill="black"/>
<path d="M335.109 18.562C335.361 20.8334 336.623 21.5905 338.137 21.5905C339.904 21.5905 340.913 21.0858 341.67 20.581L342.175 22.8524C341.166 23.3571 339.904 23.6095 338.137 23.6095C335.109 23.6095 332.585 21.8429 332.585 17.5525C332.585 13.5146 334.856 11.2432 337.632 11.2432C340.913 11.2432 342.68 13.5146 342.68 17.0478V18.3096H335.109V18.562ZM334.352 5.94336H336.371L337.885 8.21472L339.399 5.94336H341.418L339.147 9.98133H336.623L334.352 5.94336ZM340.409 16.7954C340.409 14.7764 339.399 13.5146 337.885 13.5146C336.623 13.5146 335.361 14.2717 335.109 16.7954H340.409Z" fill="black"/>
</svg>
