<svg width="344" height="56" viewBox="0 0 344 56" fill="none" xmlns="http://www.w3.org/2000/svg">
<path d="M43.725 41.7419V43.7609H38.1728V51.0797H36.1538V35.1802H44.7345V37.1992H38.1728V41.7419H43.725Z" fill="black"/>
<path d="M51.0445 50.0694C50.7921 50.3217 50.035 51.0789 48.5208 51.0789C46.2494 51.0789 44.9875 49.817 44.9875 47.798C44.9875 45.5266 46.5018 44.2648 48.5208 44.2648C49.5303 44.2648 50.5398 44.7695 51.0445 45.0219V43.76C51.0445 42.4982 50.2874 41.9934 49.0255 41.9934C47.7637 41.9934 46.7542 42.4982 45.997 42.7505L45.7447 40.9839C46.5018 40.7316 47.5113 40.2268 49.0255 40.2268C51.2969 40.2268 52.8111 41.4887 52.8111 43.76V50.8265H50.7921V50.0694H51.0445ZM51.0445 47.5456C51.0445 46.7885 50.035 46.2838 49.0255 46.2838C48.016 46.2838 47.0065 46.7885 47.0065 48.0504C47.0065 49.0599 48.016 49.5646 49.0255 49.5646C50.2874 49.5646 51.0445 48.8075 51.0445 48.0504V47.5456Z" fill="black"/>
<path d="M58.1127 51.0797H56.0938V35.1802H58.1127V44.7704L61.646 40.48H64.1697L60.3841 45.0227L64.9268 51.0797H62.4031L58.3651 45.5275V51.0797H58.1127Z" fill="black"/>
<path d="M71.9896 50.0711C71.7373 50.5759 70.9802 51.0806 69.4659 51.0806C67.4469 51.0806 66.1851 49.5664 66.1851 47.295V40.481H68.204V47.295C68.204 48.5569 68.7088 49.314 69.9707 49.314C71.4849 49.314 72.242 48.3045 72.242 47.0427V40.481H74.0086V51.0806H71.9896V50.0711Z" fill="black"/>
<path d="M79.0568 35.1802V51.0797H77.0378V35.1802H79.0568Z" fill="black"/>
<path d="M86.8808 50.827C86.6284 51.0794 86.1237 51.0794 85.1142 51.0794C83.8523 51.0794 82.5905 50.5747 82.5905 48.3033V41.994H81.3286V40.2274H82.5905V36.1894L84.6095 35.937V40.2274H86.3761V41.994H84.6095V48.3033C84.6095 49.0604 85.1142 49.3128 85.3666 49.3128C85.8713 49.3128 86.3761 49.0604 86.6285 49.0604L86.8808 50.827Z" fill="black"/>
<path d="M94.1971 50.0694C93.9447 50.3217 93.1876 51.0789 91.6734 51.0789C89.402 51.0789 88.1401 49.817 88.1401 47.798C88.1401 45.5266 89.6544 44.2648 91.6734 44.2648C92.6829 44.2648 93.6923 44.7695 94.1971 45.0219V43.76C94.1971 42.4982 93.44 41.9934 92.1781 41.9934C90.9162 41.9934 89.9068 42.4982 89.1496 42.7505V40.9839C89.9068 40.7316 90.9162 40.2268 92.4305 40.2268C94.7018 40.2268 96.2161 41.4887 96.2161 43.76V50.8265H94.1971V50.0694ZM94.1971 47.5456C94.1971 46.7885 93.1876 46.2838 92.1781 46.2838C91.1686 46.2838 90.1591 46.7885 90.1591 48.0504C90.1591 49.0599 91.1686 49.5646 92.1781 49.5646C93.44 49.5646 94.1971 48.8075 94.1971 48.0504V47.5456Z" fill="black"/>
<path d="M106.314 35.1802V51.0797H104.295V35.1802H106.314Z" fill="black"/>
<path d="M113.63 51.0806C111.106 51.0806 108.835 49.5664 108.835 45.7808C108.835 41.9952 111.106 40.481 113.63 40.481C116.154 40.481 118.425 41.9952 118.425 45.7808C118.425 49.8188 116.154 51.0806 113.63 51.0806ZM113.63 42.2476C112.116 42.2476 110.854 43.5094 110.854 45.7808C110.854 48.0522 112.116 49.314 113.63 49.314C115.144 49.314 116.406 48.0522 116.406 45.7808C116.154 43.5094 115.144 42.2476 113.63 42.2476Z" fill="black"/>
<path d="M129.28 51.0797C129.28 54.3606 127.514 55.3701 124.99 55.3701C123.223 55.3701 121.961 54.8653 121.457 54.6129L121.709 52.8463C122.466 53.0987 123.476 53.6035 124.737 53.6035C125.999 53.6035 127.009 52.594 127.009 51.0797V49.8179C126.756 50.0702 125.747 51.0797 124.233 51.0797C122.214 51.0797 119.942 49.8179 119.942 46.0323C119.942 42.2467 121.961 40.7324 124.233 40.7324C125.999 40.7324 126.504 41.2372 126.756 41.7419V40.9848H128.775V51.0797H129.28ZM127.261 44.518C127.261 42.7514 126.252 41.9943 124.99 41.9943C123.728 41.9943 122.466 43.0038 122.466 45.5275C122.466 48.0512 123.476 48.8084 124.99 48.8084C126.252 48.8084 127.514 48.0512 127.514 46.2846V44.518H127.261Z" fill="black"/>
<path d="M133.317 38.4607C132.559 38.4607 132.055 37.956 132.055 37.1989C132.055 36.4418 132.559 35.937 133.317 35.937C134.074 35.937 134.578 36.4418 134.578 37.1989C134.578 38.2084 134.074 38.4607 133.317 38.4607ZM134.326 40.4797V51.0794H132.307V40.4797H134.326Z" fill="black"/>
<path d="M140.131 51.0806C138.364 51.0806 137.355 50.5759 136.598 50.3235L136.85 48.5569C137.607 49.0616 138.869 49.314 139.879 49.314C140.888 49.314 141.645 49.0616 141.645 48.0522C141.645 47.0427 140.636 46.7903 139.626 46.5379C138.112 46.2855 136.598 45.7808 136.598 43.5094C136.598 41.4904 138.112 40.481 140.636 40.481C142.15 40.481 143.159 40.7333 143.916 40.9857L143.664 42.7523C142.907 42.4999 142.15 41.9952 140.888 41.9952C139.626 41.9952 138.869 42.4999 138.869 43.2571C138.869 44.0142 139.626 44.2666 140.636 44.5189C142.15 45.0237 144.169 45.5284 144.169 47.7998C144.169 50.0711 142.907 51.0806 140.131 51.0806Z" fill="black"/>
<path d="M151.238 50.827C150.986 51.0794 150.481 51.0794 149.471 51.0794C148.21 51.0794 146.948 50.5747 146.948 48.3033V41.994H145.686V40.2274H146.948V36.1894L148.967 35.937V40.2274H150.733V41.994H148.967V48.3033C148.967 49.0604 149.471 49.3128 149.724 49.3128C150.229 49.3128 150.733 49.0604 150.986 49.0604L151.238 50.827Z" fill="black"/>
<path d="M154.265 38.4607C153.507 38.4607 153.003 37.956 153.003 37.1989C153.003 36.4418 153.507 35.937 154.265 35.937C155.022 35.937 155.526 36.4418 155.526 37.1989C155.526 38.2084 155.022 38.4607 154.265 38.4607ZM155.274 40.4797V51.0794H153.255V40.4797H155.274Z" fill="black"/>
<path d="M160.321 51.0797H158.302V35.1802H160.321V44.7704L163.854 40.48H166.378L162.34 45.0227L166.882 51.0797H164.359L160.321 45.5275V51.0797Z" fill="black"/>
<path d="M170.921 55.371V49.314L166.883 40.481H169.154L171.931 47.0427L174.707 40.481H176.978L172.94 49.314V55.371H170.921Z" fill="black"/>
<path d="M188.838 50.0694C188.585 50.3217 187.828 51.0789 186.314 51.0789C184.043 51.0789 182.781 49.817 182.781 47.798C182.781 45.5266 184.295 44.2648 186.314 44.2648C187.323 44.2648 188.333 44.7695 188.838 45.0219V43.76C188.838 42.4982 188.081 41.9934 186.819 41.9934C185.557 41.9934 184.547 42.4982 183.79 42.7505L183.538 40.9839C184.295 40.7316 185.304 40.2268 186.819 40.2268C189.09 40.2268 190.604 41.4887 190.604 43.76V50.8265H188.585V50.0694H188.838ZM188.838 47.5456C188.838 46.7885 187.828 46.2838 186.819 46.2838C185.809 46.2838 184.8 46.7885 184.8 48.0504C184.8 49.0599 185.809 49.5646 186.819 49.5646C188.081 49.5646 188.838 48.8075 188.838 48.0504V47.5456Z" fill="black"/>
<path d="M200.956 51.0797H198.937V35.1802H200.956V44.7704L204.489 40.48H207.012L203.227 45.0227L207.77 51.0797H205.246L201.208 45.5275V51.0797H200.956Z" fill="black"/>
<path d="M213.822 42.7523C213.569 42.7523 213.065 42.4999 212.56 42.4999C211.803 42.4999 211.046 43.2571 211.046 44.2666V51.0806H209.027V40.481H211.046V41.7428C211.298 40.9857 211.803 40.481 213.065 40.481C213.569 40.481 213.822 40.481 214.074 40.7333L213.822 42.7523Z" fill="black"/>
<path d="M216.852 38.4607C216.095 38.4607 215.59 37.956 215.59 37.1989C215.59 36.4418 216.095 35.937 216.852 35.937C217.609 35.937 218.114 36.4418 218.114 37.1989C218.366 38.2084 217.861 38.4607 216.852 38.4607ZM217.861 40.4797V51.0794H215.842V40.4797H217.861Z" fill="black"/>
<path d="M227.704 51.0806H219.881L224.928 42.2476H220.133V40.481H227.957L223.161 49.314H227.704V51.0806Z" fill="black"/>
<path d="M234.015 51.0806C231.491 51.0806 229.22 49.5664 229.22 45.7808C229.22 41.9952 231.491 40.481 234.015 40.481C236.539 40.481 238.81 41.9952 238.81 45.7808C238.81 49.8188 236.539 51.0806 234.015 51.0806ZM234.015 42.2476C232.501 42.2476 231.239 43.5094 231.239 45.7808C231.239 48.0522 232.501 49.314 234.015 49.314C235.529 49.314 236.791 48.0522 236.791 45.7808C236.539 43.5094 235.529 42.2476 234.015 42.2476Z" fill="black"/>
<path d="M239.062 40.481H241.333L243.857 48.3045L246.381 40.481H248.652L244.866 51.0806H243.1L239.062 40.481Z" fill="black"/>
<path d="M251.424 46.5369C251.677 48.5558 252.686 49.313 254.2 49.313C255.715 49.313 256.724 49.0606 257.481 48.5558L257.734 50.5748C256.724 51.0796 255.715 51.332 254.2 51.332C251.677 51.332 249.405 49.8177 249.405 46.0321C249.405 42.4989 251.424 40.4799 253.948 40.4799C256.724 40.4799 258.238 42.4989 258.238 45.5274V46.5369H251.424ZM255.967 45.0226C255.967 43.256 254.957 42.2465 253.696 42.2465C252.686 42.2465 251.677 42.7513 251.424 45.0226H255.967ZM253.948 35.6848H256.219L254.2 39.218H252.686L253.948 35.6848Z" fill="black"/>
<path d="M266.32 44.2656C266.32 43.0037 265.563 42.2466 264.553 42.2466C263.291 42.2466 262.534 43.0037 262.534 44.2656V51.0797H260.515V35.1802H262.534V41.4895C262.787 40.9848 263.796 40.48 265.058 40.48C267.077 40.48 268.591 41.9943 268.591 44.2656V51.0797H266.572V44.2656H266.32Z" fill="black"/>
<path d="M275.655 51.0806C273.131 51.0806 270.86 49.5664 270.86 45.7808C270.86 41.9952 273.131 40.481 275.655 40.481C278.179 40.481 280.45 41.9952 280.45 45.7808C280.45 49.8188 278.179 51.0806 275.655 51.0806ZM275.655 42.2476C274.141 42.2476 272.879 43.5094 272.879 45.7808C272.879 48.0522 274.141 49.314 275.655 49.314C277.169 49.314 278.431 48.0522 278.431 45.7808C278.179 43.5094 277.169 42.2476 275.655 42.2476Z" fill="black"/>
<path d="M287.263 35.6848H289.03L290.291 37.7038L291.553 35.6848H293.32L291.301 39.218H289.282L287.263 35.6848ZM292.563 42.7513C292.31 42.7513 291.806 42.4989 291.301 42.4989C290.544 42.4989 289.787 43.256 289.787 44.2655V51.0796H287.768V40.4799H289.787V41.7418C290.039 40.9847 290.544 40.4799 291.806 40.4799C292.31 40.4799 292.563 40.4799 292.815 40.7323L292.563 42.7513Z" fill="black"/>
<path d="M296.099 35.6848H298.371L296.352 39.218H294.837L296.099 35.6848ZM296.856 40.4799V51.0796H294.837V40.4799H296.856Z" fill="black"/>
<path d="M306.446 51.0806H298.623L303.67 42.2476H298.875V40.481H306.698L301.903 49.314H306.446V51.0806Z" fill="black"/>
<path d="M309.978 46.5379C310.23 48.5569 311.24 49.314 312.754 49.314C314.268 49.314 315.278 49.0616 316.035 48.5569L316.287 50.5759C315.278 51.0806 314.268 51.333 312.754 51.333C310.23 51.333 307.959 49.8188 307.959 46.0332C307.959 42.4999 309.978 40.481 312.501 40.481C315.278 40.481 316.792 42.4999 316.792 45.5284V46.5379H309.978ZM314.773 45.0237C314.773 43.2571 313.763 42.2476 312.501 42.2476C311.492 42.2476 310.482 42.7523 310.23 45.0237H314.773Z" fill="black"/>
<path d="M325.122 44.2648C325.122 43.0029 324.365 42.2458 323.355 42.2458C322.094 42.2458 321.336 43.0029 321.336 44.2648V51.0789H319.317V40.4792H321.336V41.2363C321.589 40.7316 322.598 40.2268 323.86 40.2268C325.879 40.2268 327.393 41.741 327.393 44.0124V50.8265H325.374V44.2648H325.122Z" fill="black"/>
<path d="M331.432 35.6848H333.704L331.685 39.218H330.17L331.432 35.6848ZM332.189 40.4799V51.0796H330.17V40.4799H332.189Z" fill="black"/>
<path d="M19.5037 0.856445L0.828125 7.16577V0.856445H19.5037ZM0.828125 8.17527C0.828125 9.18476 2.34236 9.94188 4.10898 9.94188C4.8661 9.94188 5.37084 9.68951 5.87559 9.68951C6.63271 9.43713 23.7941 3.38018 23.7941 3.38018V28.3651C23.7941 28.3651 6.38034 34.4221 5.87559 34.6744C5.37084 34.9268 4.61372 34.9268 4.10898 34.9268C2.34236 34.9268 0.828125 33.9173 0.828125 32.4031V8.17527Z" fill="#C9D30E"/>
<path d="M47.2657 17.5122C47.2657 21.5501 45.7515 23.8215 41.7135 23.8215C37.6756 23.8215 35.9089 21.5501 35.9089 17.5122V5.65063H38.1803V17.5122C38.1803 20.2883 38.9374 21.8025 41.4611 21.8025C43.9849 21.8025 44.742 20.2883 44.742 17.5122V5.65063H47.0134V17.5122H47.2657Z" fill="black"/>
<path d="M57.6113 15.9988C57.6113 14.737 56.8541 13.7275 55.5923 13.7275C54.078 13.7275 53.3209 14.737 53.3209 15.9988V23.8224H51.0496V11.7085H53.3209V12.718C53.8257 12.2132 54.5828 11.7085 56.097 11.7085C58.3684 11.7085 60.135 13.2227 60.135 15.9988V23.8224H57.8636V15.9988H57.6113Z" fill="black"/>
<path d="M64.4268 9.43717C63.4173 9.43717 62.9126 8.93242 62.9126 7.92293C62.9126 6.91344 63.4173 6.40869 64.4268 6.40869C65.4363 6.40869 65.9411 6.91344 65.9411 7.92293C65.9411 9.1848 65.4363 9.43717 64.4268 9.43717ZM65.6887 11.7085V23.8224H63.4173V11.7085H65.6887Z" fill="black"/>
<path d="M67.4565 11.7085H69.9803L73.0088 20.7939L76.0372 11.7085H78.561L74.0182 23.8224H71.7469L67.4565 11.7085Z" fill="black"/>
<path d="M81.336 18.7749C81.5884 21.0462 82.8502 21.8034 84.3645 21.8034C86.1311 21.8034 87.1406 21.2986 87.8977 20.7939L88.4024 23.0652C87.3929 23.57 86.1311 23.8223 84.3645 23.8223C81.336 23.8223 78.8123 22.0557 78.8123 17.7654C78.8123 13.7274 81.0836 11.4561 83.8597 11.4561C87.1406 11.4561 88.9072 13.7274 88.9072 17.2606V18.5225H81.336V18.7749ZM86.6358 17.0083C86.6358 14.9893 85.6263 13.7274 84.1121 13.7274C82.8502 13.7274 81.5884 14.4845 81.336 17.0083H86.6358Z" fill="black"/>
<path d="M96.9801 14.2322C96.7277 14.2322 96.223 13.9798 95.4658 13.9798C94.7087 13.9798 94.204 14.7369 94.204 15.9988V23.8223H91.9326V11.7084H94.204V12.9703C94.4564 12.2132 95.2135 11.4561 96.4753 11.4561C96.9801 11.4561 97.2325 11.4561 97.4848 11.7084L96.9801 14.2322Z" fill="black"/>
<path d="M107.332 23.8224H98.4988L104.303 13.7275H98.7511V11.7085H107.584L102.032 21.8034H107.332V23.8224Z" fill="black"/>
<path d="M111.115 9.43717C110.106 9.43717 109.601 8.93242 109.601 7.92293C109.601 6.91344 110.106 6.40869 111.115 6.40869C112.125 6.40869 112.63 6.91344 112.63 7.92293C112.63 9.1848 111.872 9.43717 111.115 9.43717ZM112.125 11.7085V23.8224H109.853V11.7085H112.125Z" fill="black"/>
<path d="M121.465 23.5697C120.96 23.8221 120.455 24.0745 119.446 24.0745C118.184 24.0745 116.417 23.5697 116.417 21.046V13.7272H114.903V11.7082H116.417V7.16546L118.689 6.91309V11.7082H120.708V13.4748H118.689V20.5412C118.689 21.2984 119.193 21.5507 119.698 21.5507C120.203 21.5507 120.708 21.2984 121.212 21.2984L121.465 23.5697Z" fill="black"/>
<path d="M129.79 22.8129C129.538 23.0653 128.781 23.8224 127.014 23.8224C124.49 23.8224 122.976 22.5605 122.976 20.0368C122.976 17.5131 124.743 16.2512 127.014 16.2512C128.276 16.2512 129.285 16.756 129.79 17.2607V15.7465C129.79 14.2322 128.781 13.7275 127.519 13.7275C126.005 13.7275 124.743 14.2322 124.238 14.4846L123.986 12.4656C124.743 12.2132 126.005 11.7085 127.771 11.7085C130.547 11.7085 132.062 13.2227 132.062 15.7465V23.8224H129.79V22.8129ZM129.79 19.7844C129.79 18.7749 128.781 18.2702 127.519 18.2702C126.257 18.2702 125.247 18.7749 125.247 20.2892C125.247 21.551 126.257 22.0558 127.519 22.0558C128.781 22.0558 129.79 21.2987 129.79 20.2892V19.7844Z" fill="black"/>
<path d="M144.934 23.8215V7.92199H140.644V5.65063H151.748V7.92199H147.205V23.8215H144.934Z" fill="black"/>
<path d="M156.294 23.8224C153.265 23.8224 150.741 22.0558 150.741 17.7655C150.741 13.2227 153.265 11.7085 156.294 11.7085C159.07 11.7085 161.846 13.4751 161.846 17.7655C161.846 22.3082 159.322 23.8224 156.294 23.8224ZM156.294 13.7275C154.527 13.7275 153.265 15.2417 153.265 17.7655C153.265 20.2892 154.527 21.8034 156.294 21.8034C158.06 21.8034 159.322 20.5416 159.322 17.7655C159.322 14.9893 158.06 13.7275 156.294 13.7275Z" fill="black"/>
<path d="M177.994 15.9988C177.994 14.737 177.236 13.7275 175.975 13.7275C174.46 13.7275 173.703 14.737 173.703 15.9988V23.8224H171.432V15.9988C171.432 14.737 170.675 13.7275 169.413 13.7275C167.899 13.7275 167.141 14.737 167.141 15.9988V23.8224H164.87V11.7085H167.141V12.718C167.646 12.2132 168.403 11.7085 169.918 11.7085C171.432 11.7085 172.694 12.2132 173.198 13.4751C173.956 12.4656 174.965 11.7085 176.479 11.7085C178.751 11.7085 180.517 13.2227 180.517 15.9988V23.8224H178.246V15.9988H177.994Z" fill="black"/>
<path d="M190.108 22.8139C189.855 23.3186 188.846 24.0757 187.331 24.0757C184.808 24.0757 183.293 22.8139 183.293 20.2901C183.293 17.7664 185.06 16.5045 187.331 16.5045C188.593 16.5045 189.603 17.0093 190.108 17.514V15.7474C190.108 14.2332 189.098 13.7284 187.836 13.7284C186.322 13.7284 185.06 14.2332 184.555 14.4855L184.303 12.4666C185.06 12.2142 186.322 11.7094 188.089 11.7094C190.865 11.7094 192.379 13.2237 192.379 15.7474V23.8234H190.108V22.8139ZM190.108 19.7854C190.108 18.7759 189.098 18.2711 187.836 18.2711C186.574 18.2711 185.565 18.7759 185.565 20.2901C185.565 21.552 186.574 22.0567 187.836 22.0567C189.098 21.8044 190.108 21.0472 190.108 20.0378V19.7854ZM188.593 6.15723H191.117L188.846 10.1952H187.079L188.593 6.15723Z" fill="black"/>
<path d="M198.94 23.8234C197.174 23.8234 195.659 23.3186 194.902 23.0662L195.659 21.0472C196.669 21.552 197.931 21.8044 199.193 21.8044C200.202 21.8044 201.212 21.552 201.212 20.5425C201.212 19.533 199.95 19.2806 198.688 18.7759C196.921 18.2711 195.155 17.7664 195.155 15.2427C195.155 12.7189 196.921 11.7094 199.697 11.7094C201.464 11.7094 202.474 11.9618 203.231 12.4666L202.726 14.4855C201.716 13.9808 200.959 13.7284 199.445 13.7284C198.183 13.7284 197.174 14.2332 197.174 15.2427C197.174 15.9998 198.183 16.2522 199.193 16.7569C200.959 17.2616 203.231 17.7664 203.231 20.2901C203.483 22.5615 202.221 23.8234 198.94 23.8234ZM195.912 6.15723H197.931L199.445 8.42859L200.959 6.15723H202.978L200.707 10.1952H198.183L195.912 6.15723Z" fill="black"/>
<path d="M208.027 18.7749C208.279 21.0462 209.541 21.8034 211.055 21.8034C212.822 21.8034 213.831 21.2986 214.588 20.7939L215.093 23.0652C214.084 23.57 212.822 23.8223 211.055 23.8223C208.027 23.8223 205.503 22.0557 205.503 17.7654C205.503 13.7274 207.774 11.4561 210.55 11.4561C213.831 11.4561 215.598 13.7274 215.598 17.2606V18.5225H208.027V18.7749ZM213.326 17.0083C213.326 14.9893 212.317 13.7274 210.803 13.7274C209.541 13.7274 208.279 14.4845 208.027 17.0083H213.326Z" fill="black"/>
<path d="M229.475 23.8215H224.428V5.65063H229.728C233.009 5.65063 235.028 7.41725 235.028 10.4457C235.028 12.4647 234.018 13.7266 232.504 14.4837C234.018 15.2408 235.28 16.7551 235.28 18.774C235.28 21.8025 233.009 23.8215 229.475 23.8215ZM229.728 7.92199H226.699V13.2218H229.475C231.242 13.2218 232.504 12.2123 232.504 10.4457C232.504 8.67911 231.494 7.92199 229.728 7.92199ZM229.475 15.4932H226.699V21.5501H229.475C231.242 21.5501 232.756 20.5407 232.756 18.774C232.756 16.7551 231.242 15.4932 229.475 15.4932Z" fill="black"/>
<path d="M244.368 22.8129C244.115 23.3177 243.106 24.0748 241.591 24.0748C239.068 24.0748 237.553 22.8129 237.553 20.2892C237.553 17.7655 239.32 16.5036 241.591 16.5036C242.853 16.5036 243.863 17.0083 244.368 17.5131V15.7465C244.368 14.2322 243.358 13.7275 242.096 13.7275C240.582 13.7275 239.32 14.2322 238.815 14.4846L238.563 12.4656C239.32 12.2132 240.582 11.7085 242.349 11.7085C245.125 11.7085 246.639 13.2227 246.639 15.7465V23.8224H244.368V22.8129ZM244.368 19.7844C244.368 18.7749 243.358 18.2702 242.096 18.2702C240.834 18.2702 239.825 18.7749 239.825 20.2892C239.825 21.5511 240.834 22.0558 242.096 22.0558C243.358 22.0558 244.368 21.2987 244.368 20.2892V19.7844Z" fill="black"/>
<path d="M255.473 23.5697C254.968 23.8221 254.463 24.0745 253.454 24.0745C252.192 24.0745 250.425 23.5697 250.425 21.046V13.7272H248.911V11.7082H250.677V7.16546L252.949 6.91309V11.7082H254.968V13.4748H252.949V20.5412C252.949 21.2984 253.454 21.5507 253.958 21.5507C254.463 21.5507 254.968 21.2984 255.473 21.2984V23.5697Z" fill="black"/>
<path d="M259.007 9.43717C257.997 9.43717 257.492 8.93242 257.492 7.92293C257.492 6.91344 257.997 6.40869 259.007 6.40869C260.016 6.40869 260.521 6.91344 260.521 7.92293C260.521 9.1848 259.764 9.43717 259.007 9.43717ZM260.016 11.7085V23.8224H257.745V11.7085H260.016Z" fill="black"/>
<path d="M267.588 11.7085H270.111L273.14 20.7939L276.168 11.7085H278.692L274.402 23.8224H272.13L267.588 11.7085Z" fill="black"/>
<path d="M281.466 18.7749C281.718 21.0462 282.98 21.8034 284.494 21.8034C286.261 21.8034 287.27 21.2986 288.028 20.7939L288.532 23.0652C287.523 23.57 286.261 23.8223 284.494 23.8223C281.466 23.8223 278.942 22.0557 278.942 17.7654C278.942 13.7274 281.213 11.4561 283.99 11.4561C287.27 11.4561 289.037 13.7274 289.037 17.2606V18.5225H281.466V18.7749ZM286.766 17.0083C286.766 14.9893 285.756 13.7274 284.242 13.7274C282.98 13.7274 281.718 14.4845 281.466 17.0083H286.766Z" fill="black"/>
<path d="M307.21 23.8215H296.611L304.182 7.92199H297.115V5.65063H307.715L300.144 21.5501H307.21V23.8215Z" fill="black"/>
<path d="M312.257 5.65063V23.8215H309.985V5.65063H312.257Z" fill="black"/>
<path d="M317.304 6.15723H319.828L317.556 10.1952H315.79L317.304 6.15723ZM318.061 11.7094V23.8234H315.79V11.7094H318.061Z" fill="black"/>
<path d="M328.411 15.9988C328.411 14.737 327.654 13.7275 326.392 13.7275C324.878 13.7275 324.121 14.737 324.121 15.9988V23.8224H321.849V11.7085H324.121V12.718C324.625 12.2132 325.383 11.7085 326.897 11.7085C329.168 11.7085 330.935 13.2227 330.935 15.9988V23.8224H328.663V15.9988H328.411Z" fill="black"/>
<path d="M335.728 18.7759C335.98 21.0472 337.242 21.8044 338.756 21.8044C340.523 21.8044 341.532 21.2996 342.29 20.7949L342.794 23.0662C341.785 23.571 340.523 23.8234 338.756 23.8234C335.728 23.8234 333.204 22.0567 333.204 17.7664C333.204 13.7284 335.475 11.4571 338.252 11.4571C341.532 11.4571 343.299 13.7284 343.299 17.2616V18.5235H335.728V18.7759ZM334.971 6.15723H336.99L338.504 8.42859L340.018 6.15723H342.037L339.766 10.1952H337.242L334.971 6.15723ZM341.028 17.0093C341.028 14.9903 340.018 13.7284 338.504 13.7284C337.242 13.7284 335.98 14.4855 335.728 17.0093H341.028Z" fill="black"/>
</svg>
