<svg width="347" height="51" viewBox="0 0 347 51" fill="none" xmlns="http://www.w3.org/2000/svg">
<path d="M43.0309 41.2482V43.2672H37.4787V50.586H35.4597V34.6865H44.0404V36.7055H37.4787V41.2482H43.0309Z" fill="black"/>
<path d="M50.3504 49.5777C50.098 49.83 49.3409 50.5872 47.8267 50.5872C45.5553 50.5872 44.2935 49.3253 44.2935 47.3063C44.2935 45.0349 45.8077 43.7731 47.8267 43.7731C48.8362 43.7731 49.8457 44.2778 50.3504 44.5302V43.2683C50.3504 42.0065 49.5933 41.5017 48.3314 41.5017C47.0696 41.5017 46.0601 42.0065 45.3029 42.2588L45.0506 40.4922C45.8077 40.2399 46.8172 39.7351 48.3314 39.7351C50.6028 39.7351 52.117 40.997 52.117 43.2683V50.3348H50.098V49.5777H50.3504ZM50.3504 47.0539C50.3504 46.2968 49.3409 45.7921 48.3314 45.7921C47.3219 45.7921 46.3124 46.2968 46.3124 47.5587C46.3124 48.5682 47.3219 49.0729 48.3314 49.0729C49.5933 49.0729 50.3504 48.3158 50.3504 47.5587V47.0539Z" fill="black"/>
<path d="M57.4189 50.586H55.3999V34.6865H57.4189V44.2767L60.9521 39.9864H63.4758L59.6902 44.5291L64.233 50.586H61.7092L57.6713 45.0338V50.586H57.4189Z" fill="black"/>
<path d="M71.2956 49.5765C71.0432 50.0813 70.2861 50.586 68.7718 50.586C66.7528 50.586 65.491 49.0718 65.491 46.8004V39.9863H67.51V46.8004C67.51 48.0623 68.0147 48.8194 69.2766 48.8194C70.7908 48.8194 71.5479 47.8099 71.5479 46.548V39.9863H73.3145V50.586H71.2956V49.5765Z" fill="black"/>
<path d="M78.363 34.6865V50.586H76.344V34.6865H78.363Z" fill="black"/>
<path d="M86.1909 50.3334C85.9385 50.5857 85.4338 50.5857 84.4243 50.5857C83.1624 50.5857 81.9005 50.081 81.9005 47.8096V41.5003H80.6387V39.7337H81.9005V35.6957L83.9195 35.4434V39.7337H85.6861V41.5003H83.9195V47.8096C83.9195 48.5668 84.4243 48.8191 84.6766 48.8191C85.1814 48.8191 85.6861 48.5668 85.9385 48.5668L86.1909 50.3334Z" fill="black"/>
<path d="M93.5032 49.5777C93.2509 49.83 92.4938 50.5872 90.9795 50.5872C88.7082 50.5872 87.4463 49.3253 87.4463 47.3063C87.4463 45.0349 88.9605 43.7731 90.9795 43.7731C91.989 43.7731 92.9985 44.2778 93.5032 44.5302V43.2683C93.5032 42.0065 92.7461 41.5017 91.4843 41.5017C90.2224 41.5017 89.2129 42.0065 88.4558 42.2588V40.4922C89.2129 40.2399 90.2224 39.7351 91.7366 39.7351C94.008 39.7351 95.5222 40.997 95.5222 43.2683V50.3348H93.5032V49.5777ZM93.5032 47.0539C93.5032 46.2968 92.4938 45.7921 91.4843 45.7921C90.4748 45.7921 89.4653 46.2968 89.4653 47.5587C89.4653 48.5682 90.4748 49.0729 91.4843 49.0729C92.7461 49.0729 93.5032 48.3158 93.5032 47.5587V47.0539Z" fill="black"/>
<path d="M115.463 43.7731C115.463 42.5112 114.705 41.7541 113.696 41.7541C112.434 41.7541 111.677 42.5112 111.677 43.7731V50.5872H109.658V43.7731C109.658 42.5112 108.901 41.7541 107.891 41.7541C106.63 41.7541 105.872 42.5112 105.872 43.7731V50.5872H103.601V39.9875H105.62V40.7446C105.872 40.2399 106.882 39.7351 108.144 39.7351C109.406 39.7351 110.415 40.2399 111.172 41.2493C111.677 40.4922 112.687 39.7351 114.201 39.7351C116.22 39.7351 117.734 41.2493 117.734 43.5207V50.3348H115.715V43.7731H115.463Z" fill="black"/>
<path d="M126.312 49.5765C126.06 50.0813 125.303 50.586 123.789 50.586C121.77 50.586 120.508 49.0718 120.508 46.8004V39.9863H122.527V46.8004C122.527 48.0623 123.032 48.8194 124.293 48.8194C125.808 48.8194 126.565 47.8099 126.565 46.548V39.9863H128.584V50.586H126.312V49.5765Z" fill="black"/>
<path d="M133.38 34.6865V50.586H131.361V34.6865H133.38Z" fill="black"/>
<path d="M141.204 50.3342C140.951 50.5865 140.446 50.5865 139.437 50.5865C138.175 50.5865 136.913 50.0818 136.913 47.8104V41.5011H135.651V39.7345H136.913V35.6965H138.932V39.9869H140.699V41.7535H138.932V48.0628C138.932 48.8199 139.437 49.0723 139.689 49.0723C140.194 49.0723 140.699 48.8199 140.951 48.8199L141.204 50.3342Z" fill="black"/>
<path d="M144.231 37.9671C143.474 37.9671 142.969 37.4623 142.969 36.7052C142.969 35.9481 143.474 35.4434 144.231 35.4434C144.988 35.4434 145.493 35.9481 145.493 36.7052C145.493 37.7147 144.988 37.9671 144.231 37.9671ZM145.241 39.9861V50.5857H143.222V39.9861H145.241Z" fill="black"/>
<path d="M160.136 43.7731C160.136 42.5112 159.379 41.7541 158.369 41.7541C157.107 41.7541 156.35 42.5112 156.35 43.7731V50.5872H154.079V43.7731C154.079 42.5112 153.322 41.7541 152.312 41.7541C151.05 41.7541 150.293 42.5112 150.293 43.7731V50.5872H148.274V39.9875H150.293V40.7446C150.546 40.2399 151.555 39.7351 152.817 39.7351C154.079 39.7351 155.088 40.2399 155.845 41.2493C156.35 40.4922 157.36 39.7351 158.874 39.7351C160.893 39.7351 162.407 41.2493 162.407 43.5207V50.3348H160.388V43.7731H160.136Z" fill="black"/>
<path d="M166.695 46.0433C166.947 48.0623 167.956 48.8194 169.471 48.8194C170.985 48.8194 171.994 48.567 172.751 48.0623L173.004 50.0813C171.994 50.586 170.985 50.8384 169.471 50.8384C166.947 50.8384 164.676 49.3241 164.676 45.5385C164.676 42.0053 166.695 39.9863 169.218 39.9863C171.994 39.9863 173.509 42.0053 173.509 45.0338V46.0433H166.695ZM171.237 44.529C171.237 42.7624 170.228 41.7529 168.966 41.7529C167.956 41.7529 166.947 42.2577 166.695 44.529H171.237Z" fill="black"/>
<path d="M182.342 49.5767C182.089 49.8291 181.08 50.5862 179.565 50.5862C177.546 50.5862 175.275 49.3243 175.275 45.2864C175.275 41.5008 177.294 39.7342 179.565 39.7342C181.332 39.7342 181.837 40.2389 182.089 40.7437V34.4343H184.361V50.3338H182.342V49.5767ZM182.342 44.0245C182.342 42.2579 181.332 41.5008 180.07 41.5008C178.808 41.5008 177.547 42.5103 177.547 45.2864C177.547 47.8101 178.556 48.5672 180.07 48.5672C181.332 48.5672 182.594 47.8101 182.594 46.0435V44.0245H182.342Z" fill="black"/>
<path d="M188.394 37.9671C187.637 37.9671 187.132 37.4623 187.132 36.7052C187.132 35.9481 187.637 35.4434 188.394 35.4434C189.151 35.4434 189.656 35.9481 189.656 36.7052C189.656 37.7147 189.151 37.9671 188.394 37.9671ZM189.404 39.9861V50.5857H187.385V39.9861H189.404Z" fill="black"/>
<path d="M197.737 49.5764C197.485 49.8288 196.728 50.5859 195.213 50.5859C192.942 50.5859 191.68 49.3241 191.68 47.3051C191.68 45.0337 193.194 43.7719 195.213 43.7719C196.223 43.7719 197.232 44.2766 197.737 44.529V43.2671C197.737 42.0052 196.98 41.5005 195.718 41.5005C194.456 41.5005 193.447 42.0052 192.69 42.2576L192.437 40.491C193.194 40.2386 194.204 39.7339 195.718 39.7339C197.99 39.7339 199.504 40.9957 199.504 43.2671V50.3335H197.485V49.5764H197.737ZM197.737 47.0527C197.737 46.2956 196.728 45.7908 195.718 45.7908C194.709 45.7908 193.699 46.2956 193.699 47.5574C193.699 48.5669 194.709 49.0717 195.718 49.0717C196.98 49.0717 197.737 48.3146 197.737 47.5574V47.0527ZM196.475 35.1912H198.747L196.728 38.7244H195.213L196.475 35.1912Z" fill="black"/>
<path d="M204.801 34.6865V50.586H202.782V34.6865H204.801Z" fill="black"/>
<path d="M213.889 43.7731C213.889 42.5112 213.132 41.7541 212.122 41.7541C210.86 41.7541 210.103 42.5112 210.103 43.7731V50.5872H208.084V39.9875H210.103V40.7446C210.356 40.2399 211.365 39.7351 212.627 39.7351C214.646 39.7351 216.16 41.2493 216.16 43.5207V50.3348H214.141V43.7731H213.889Z" fill="black"/>
<path d="M220.199 35.1912H222.47L220.452 38.7244H218.937L220.199 35.1912ZM220.956 39.9863V50.5859H218.937V39.9863H220.956Z" fill="black"/>
<path d="M230.799 50.0811C230.547 50.3335 229.285 50.8382 228.023 50.8382C226.004 50.8382 223.48 49.8287 223.48 45.5384C223.48 41.248 226.004 40.2385 228.023 40.2385C229.285 40.2385 230.294 40.7433 230.799 40.9956L230.294 42.7623C229.79 42.5099 228.78 42.0051 228.023 42.0051C226.761 42.0051 225.752 43.0146 225.752 45.5384C225.752 48.0621 227.013 49.0716 228.023 49.0716C229.032 49.0716 229.79 48.5668 230.294 48.3145L230.799 50.0811Z" fill="black"/>
<path d="M238.87 43.772C238.87 42.5101 238.113 41.753 237.104 41.753C235.842 41.753 235.085 42.5101 235.085 43.772V50.586H233.066V34.6865H234.833V40.9959C235.085 40.4911 236.094 39.9864 237.356 39.9864C239.375 39.9864 240.889 41.5006 240.889 43.772V50.586H238.87V43.772Z" fill="black"/>
<path d="M250.987 50.586H248.969V34.6865H250.987V44.2767L254.521 39.9864H257.044L253.259 44.5291L257.802 50.586H255.278L251.24 45.0338V50.586H250.987Z" fill="black"/>
<path d="M262.345 50.586C259.821 50.586 257.55 49.0718 257.55 45.2862C257.55 41.5006 259.821 39.9863 262.345 39.9863C264.869 39.9863 267.14 41.5006 267.14 45.2862C267.14 49.3241 264.869 50.586 262.345 50.586ZM262.345 41.7529C260.831 41.7529 259.569 43.0148 259.569 45.2862C259.569 47.5575 260.831 48.8194 262.345 48.8194C263.859 48.8194 265.121 47.5575 265.121 45.2862C265.121 43.0148 263.859 41.7529 262.345 41.7529Z" fill="black"/>
<path d="M281.272 43.7731C281.272 42.5112 280.515 41.7541 279.506 41.7541C278.244 41.7541 277.487 42.5112 277.487 43.7731V50.5872H275.468V43.7731C275.468 42.5112 274.711 41.7541 273.701 41.7541C272.439 41.7541 271.682 42.5112 271.682 43.7731V50.5872H269.663V39.9875H271.682V40.7446C271.935 40.2399 272.944 39.7351 274.206 39.7351C275.468 39.7351 276.477 40.2399 277.235 41.2493C277.739 40.4922 278.749 39.7351 280.263 39.7351C282.282 39.7351 283.796 41.2493 283.796 43.5207V50.3348H281.777V43.7731H281.272Z" fill="black"/>
<path d="M292.374 49.5765C292.121 50.0813 291.364 50.586 289.85 50.586C287.831 50.586 286.569 49.0718 286.569 46.8004V39.9863H288.588V46.8004C288.588 48.0623 289.093 48.8194 290.355 48.8194C291.869 48.8194 292.626 47.8099 292.626 46.548V39.9863H294.645V50.586H292.626V49.5765H292.374Z" fill="black"/>
<path d="M303.224 43.7731C303.224 42.5112 302.466 41.7541 301.457 41.7541C300.195 41.7541 299.438 42.5112 299.438 43.7731V50.5872H297.419V39.9875H299.438V40.7446C299.69 40.2399 300.7 39.7351 301.962 39.7351C303.981 39.7351 305.495 41.2493 305.495 43.5207V50.3348H303.476V43.7731H303.224Z" fill="black"/>
<path d="M309.286 37.9671C308.528 37.9671 308.024 37.4623 308.024 36.7052C308.024 35.9481 308.528 35.4434 309.286 35.4434C310.043 35.4434 310.547 35.9481 310.547 36.7052C310.8 37.7147 310.295 37.9671 309.286 37.9671ZM310.295 39.9861V50.5857H308.276V39.9861H310.295Z" fill="black"/>
<path d="M315.593 50.586H313.574V34.6865H315.593V44.2767L319.126 39.9864H321.65L317.864 44.5291L322.407 50.586H319.883L315.845 45.0338V50.586H315.593Z" fill="black"/>
<path d="M328.719 49.5777C328.466 49.83 327.709 50.5872 326.195 50.5872C323.924 50.5872 322.662 49.3253 322.662 47.3063C322.662 45.0349 324.176 43.7731 326.195 43.7731C327.205 43.7731 328.214 44.2778 328.719 44.5302V43.2683C328.719 42.0065 327.962 41.5017 326.7 41.5017C325.438 41.5017 324.428 42.0065 323.671 42.2588L323.419 40.4922C324.176 40.2399 325.186 39.7351 326.7 39.7351C328.971 39.7351 330.485 40.997 330.485 43.2683V50.3348H328.466V49.5777H328.719ZM328.719 47.0539C328.719 46.2968 327.709 45.7921 326.7 45.7921C325.69 45.7921 324.681 46.2968 324.681 47.5587C324.681 48.5682 325.69 49.0729 326.7 49.0729C327.962 49.0729 328.719 48.3158 328.719 47.5587V47.0539Z" fill="black"/>
<path d="M340.58 50.0811C340.328 50.3335 339.066 50.8382 337.804 50.8382C335.785 50.8382 333.261 49.8287 333.261 45.5384C333.261 41.248 335.785 40.2385 337.804 40.2385C339.066 40.2385 340.076 40.7433 340.58 40.9956L340.076 42.7623C339.571 42.5099 338.561 42.0051 337.804 42.0051C336.542 42.0051 335.533 43.0146 335.533 45.5384C335.533 48.0621 336.795 49.0716 337.804 49.0716C338.814 49.0716 339.571 48.5668 340.076 48.3145L340.58 50.0811Z" fill="black"/>
<path d="M344.112 35.1912H346.383L344.365 38.7244H342.85L344.112 35.1912ZM344.617 39.9863V50.5859H342.598V39.9863H344.617Z" fill="black"/>
<path d="M18.8055 0.363281L0.129883 6.67261V0.363281H18.8055ZM0.129883 7.6821C0.129883 8.6916 1.64412 9.44872 3.41073 9.44872C4.16785 9.44872 4.6726 9.19634 5.17735 9.19634C5.93447 8.94397 23.0958 2.88701 23.0958 2.88701V27.872C23.0958 27.872 5.68209 33.9289 5.17735 34.1813C4.6726 34.4337 3.91548 34.4337 3.41073 34.4337C1.64412 34.4337 0.129883 33.4242 0.129883 31.9099V7.6821Z" fill="#E53B38"/>
<path d="M46.5675 17.019C46.5675 21.057 45.0533 23.3283 41.0153 23.3283C36.9773 23.3283 35.2107 21.057 35.2107 17.019V5.15747H37.4821V17.019C37.4821 19.7951 38.2392 21.3094 40.7629 21.3094C43.2866 21.3094 44.0438 19.7951 44.0438 17.019V5.15747H46.3151V17.019H46.5675Z" fill="black"/>
<path d="M56.913 15.5057C56.913 14.2438 56.1559 13.2343 54.894 13.2343C53.3798 13.2343 52.6227 14.2438 52.6227 15.5057V23.3292H50.3513V11.2153H52.6227V12.2248C53.1274 11.7201 53.8845 11.2153 55.3988 11.2153C57.6701 11.2153 59.4368 12.7296 59.4368 15.5057V23.3292H57.1654V15.5057H56.913Z" fill="black"/>
<path d="M63.7286 8.94401C62.7191 8.94401 62.2144 8.43926 62.2144 7.42977C62.2144 6.42027 62.7191 5.91553 63.7286 5.91553C64.7381 5.91553 65.2428 6.42027 65.2428 7.42977C65.2428 8.69163 64.7381 8.94401 63.7286 8.94401ZM64.9905 11.2154V23.3293H62.7191V11.2154H64.9905Z" fill="black"/>
<path d="M66.7583 11.2153H69.282L72.3105 20.3008L75.339 11.2153H77.8627L73.32 23.3292H71.0486L66.7583 11.2153Z" fill="black"/>
<path d="M80.6377 18.2817C80.8901 20.5531 82.152 21.3102 83.6662 21.3102C85.4328 21.3102 86.4423 20.8054 87.1994 20.3007L87.7042 22.5721C86.6947 23.0768 85.4328 23.3292 83.6662 23.3292C80.6377 23.3292 78.114 21.5626 78.114 17.2722C78.114 13.2342 80.3854 10.9629 83.1615 10.9629C86.4423 10.9629 88.2089 13.2342 88.2089 16.7675V18.0293H80.6377V18.2817ZM85.9376 16.5151C85.9376 14.4961 84.9281 13.2342 83.4139 13.2342C82.152 13.2342 80.8901 13.9914 80.6377 16.5151H85.9376Z" fill="black"/>
<path d="M96.2818 13.739C96.0295 13.739 95.5247 13.4866 94.7676 13.4866C94.0105 13.4866 93.5057 14.2437 93.5057 15.5056V23.3292H91.2344V11.2153H93.5057V12.4771C93.7581 11.72 94.5152 10.9629 95.7771 10.9629C96.2818 10.9629 96.5342 10.9629 96.7866 11.2153L96.2818 13.739Z" fill="black"/>
<path d="M106.634 23.3292H97.8005L103.605 13.2343H98.0529V11.2153H106.886L101.334 21.3103H106.634V23.3292Z" fill="black"/>
<path d="M110.417 8.94401C109.408 8.94401 108.903 8.43926 108.903 7.42977C108.903 6.42027 109.408 5.91553 110.417 5.91553C111.427 5.91553 111.931 6.42027 111.931 7.42977C111.931 8.69163 111.174 8.94401 110.417 8.94401ZM111.427 11.2154V23.3293H109.155V11.2154H111.427Z" fill="black"/>
<path d="M120.767 23.0766C120.262 23.3289 119.757 23.5813 118.748 23.5813C117.486 23.5813 115.719 23.0766 115.719 20.5528V13.234H114.205V11.215H115.719V6.67229L117.99 6.41992V11.215H120.009V12.9816H117.99V20.0481C117.99 20.8052 118.495 21.0576 119 21.0576C119.505 21.0576 120.009 20.8052 120.514 20.8052L120.767 23.0766Z" fill="black"/>
<path d="M129.092 22.3198C128.84 22.5721 128.082 23.3292 126.316 23.3292C123.792 23.3292 122.278 22.0674 122.278 19.5436C122.278 17.0199 124.044 15.758 126.316 15.758C127.578 15.758 128.587 16.2628 129.092 16.7675V15.2533C129.092 13.7391 128.082 13.2343 126.821 13.2343C125.306 13.2343 124.044 13.7391 123.54 13.9914L123.287 11.9725C124.044 11.7201 125.306 11.2153 127.073 11.2153C129.849 11.2153 131.363 12.7296 131.363 15.2533V23.3292H129.092V22.3198ZM129.092 19.2913C129.092 18.2818 128.082 17.777 126.821 17.777C125.559 17.777 124.549 18.2818 124.549 19.796C124.549 21.0579 125.559 21.5626 126.821 21.5626C128.082 21.5626 129.092 20.8055 129.092 19.796V19.2913Z" fill="black"/>
<path d="M144.236 23.3283V7.42883H139.945V5.15747H151.05V7.42883H146.507V23.3283H144.236Z" fill="black"/>
<path d="M155.592 23.3292C152.564 23.3292 150.04 21.5626 150.04 17.2723C150.04 12.7296 152.564 11.2153 155.592 11.2153C158.369 11.2153 161.145 12.9819 161.145 17.2723C161.145 21.815 158.621 23.3292 155.592 23.3292ZM155.592 13.2343C153.826 13.2343 152.564 14.7486 152.564 17.2723C152.564 19.796 153.826 21.3103 155.592 21.3103C157.359 21.3103 158.621 20.0484 158.621 17.2723C158.621 14.4962 157.359 13.2343 155.592 13.2343Z" fill="black"/>
<path d="M177.295 15.5057C177.295 14.2438 176.538 13.2343 175.276 13.2343C173.762 13.2343 173.005 14.2438 173.005 15.5057V23.3292H170.734V15.5057C170.734 14.2438 169.976 13.2343 168.715 13.2343C167.2 13.2343 166.443 14.2438 166.443 15.5057V23.3292H164.172V11.2153H166.443V12.2248C166.948 11.7201 167.705 11.2153 169.219 11.2153C170.734 11.2153 171.995 11.7201 172.5 12.9819C173.257 11.9725 174.267 11.2153 175.781 11.2153C178.052 11.2153 179.819 12.7296 179.819 15.5057V23.3292H177.548V15.5057H177.295Z" fill="black"/>
<path d="M189.409 22.3207C189.157 22.8254 188.147 23.5826 186.633 23.5826C184.109 23.5826 182.595 22.3207 182.595 19.797C182.595 17.2732 184.362 16.0114 186.633 16.0114C187.895 16.0114 188.905 16.5161 189.409 17.0209V15.2542C189.409 13.74 188.4 13.2353 187.138 13.2353C185.624 13.2353 184.362 13.74 183.857 13.9924L183.605 11.9734C184.362 11.721 185.624 11.2163 187.39 11.2163C190.166 11.2163 191.681 12.7305 191.681 15.2542V23.3302H189.409V22.3207ZM189.409 19.2922C189.409 18.2827 188.4 17.778 187.138 17.778C185.876 17.778 184.867 18.2827 184.867 19.797C184.867 21.0588 185.876 21.5636 187.138 21.5636C188.4 21.3112 189.409 20.5541 189.409 19.5446V19.2922ZM187.895 5.66406H190.419L188.147 9.70203H186.381L187.895 5.66406Z" fill="black"/>
<path d="M198.242 23.3302C196.475 23.3302 194.961 22.8254 194.204 22.5731L194.961 20.5541C195.971 21.0588 197.233 21.3112 198.494 21.3112C199.504 21.3112 200.513 21.0588 200.513 20.0493C200.513 19.0398 199.252 18.7875 197.99 18.2827C196.223 17.778 194.456 17.2732 194.456 14.7495C194.456 12.2258 196.223 11.2163 198.999 11.2163C200.766 11.2163 201.775 11.4686 202.532 11.9734L202.028 13.9924C201.018 13.4876 200.261 13.2353 198.747 13.2353C197.485 13.2353 196.475 13.74 196.475 14.7495C196.475 15.5066 197.485 15.759 198.494 16.2637C200.261 16.7685 202.532 17.2732 202.532 19.797C202.785 22.0683 201.523 23.3302 198.242 23.3302ZM195.214 5.66406H197.233L198.747 7.93542L200.261 5.66406H202.28L200.009 9.70203H197.485L195.214 5.66406Z" fill="black"/>
<path d="M207.328 18.2817C207.581 20.5531 208.843 21.3102 210.357 21.3102C212.124 21.3102 213.133 20.8054 213.89 20.3007L214.395 22.5721C213.385 23.0768 212.124 23.3292 210.357 23.3292C207.328 23.3292 204.805 21.5626 204.805 17.2722C204.805 13.2342 207.076 10.9629 209.852 10.9629C213.133 10.9629 214.9 13.2342 214.9 16.7675V18.0293H207.328V18.2817ZM212.628 16.5151C212.628 14.4961 211.619 13.2342 210.105 13.2342C208.843 13.2342 207.581 13.9914 207.328 16.5151H212.628Z" fill="black"/>
<path d="M228.777 23.3283H223.73V5.15747H229.03C232.31 5.15747 234.329 6.92408 234.329 9.95256C234.329 11.9715 233.32 13.2334 231.806 13.9905C233.32 14.7477 234.582 16.2619 234.582 18.2809C234.582 21.3094 232.31 23.3283 228.777 23.3283ZM229.03 7.42883H226.001V12.7287H228.777C230.544 12.7287 231.806 11.7192 231.806 9.95256C231.806 8.18595 230.796 7.42883 229.03 7.42883ZM228.777 15H226.001V21.057H228.777C230.544 21.057 232.058 20.0475 232.058 18.2809C232.058 16.2619 230.544 15 228.777 15Z" fill="black"/>
<path d="M243.669 22.3198C243.417 22.8245 242.407 23.5816 240.893 23.5816C238.369 23.5816 236.855 22.3198 236.855 19.796C236.855 17.2723 238.622 16.0104 240.893 16.0104C242.155 16.0104 243.165 16.5152 243.669 17.0199V15.2533C243.669 13.7391 242.66 13.2343 241.398 13.2343C239.884 13.2343 238.622 13.7391 238.117 13.9914L237.865 11.9725C238.622 11.7201 239.884 11.2153 241.65 11.2153C244.426 11.2153 245.941 12.7296 245.941 15.2533V23.3292H243.669V22.3198ZM243.669 19.2913C243.669 18.2818 242.66 17.777 241.398 17.777C240.136 17.777 239.127 18.2818 239.127 19.796C239.127 21.0579 240.136 21.5626 241.398 21.5626C242.66 21.5626 243.669 20.8055 243.669 19.796V19.2913Z" fill="black"/>
<path d="M254.774 23.0766C254.27 23.3289 253.765 23.5813 252.755 23.5813C251.493 23.5813 249.727 23.0766 249.727 20.5528V13.234H248.213V11.215H249.979V6.67229L252.251 6.41992V11.215H254.27V12.9816H252.251V20.0481C252.251 20.8052 252.755 21.0576 253.26 21.0576C253.765 21.0576 254.27 20.8052 254.774 20.8052V23.0766Z" fill="black"/>
<path d="M258.308 8.94401C257.299 8.94401 256.794 8.43926 256.794 7.42977C256.794 6.42027 257.299 5.91553 258.308 5.91553C259.318 5.91553 259.823 6.42027 259.823 7.42977C259.823 8.69163 259.066 8.94401 258.308 8.94401ZM259.318 11.2154V23.3293H257.047V11.2154H259.318Z" fill="black"/>
<path d="M266.889 11.2153H269.413L272.442 20.3008L275.47 11.2153H277.994L273.703 23.3292H271.432L266.889 11.2153Z" fill="black"/>
<path d="M280.768 18.2817C281.02 20.5531 282.282 21.3102 283.796 21.3102C285.563 21.3102 286.572 20.8054 287.329 20.3007L287.834 22.5721C286.825 23.0768 285.563 23.3292 283.796 23.3292C280.768 23.3292 278.244 21.5626 278.244 17.2722C278.244 13.2342 280.515 10.9629 283.291 10.9629C286.572 10.9629 288.339 13.2342 288.339 16.7675V18.0293H280.768V18.2817ZM286.067 16.5151C286.067 14.4961 285.058 13.2342 283.544 13.2342C282.282 13.2342 281.02 13.9914 280.768 16.5151H286.067Z" fill="black"/>
<path d="M306.512 23.3283H295.912L303.484 7.42883H296.417V5.15747H307.017L299.446 21.057H306.512V23.3283Z" fill="black"/>
<path d="M311.558 5.15747V23.3283H309.287V5.15747H311.558Z" fill="black"/>
<path d="M316.606 5.66406H319.13L316.858 9.70203H315.092L316.606 5.66406ZM317.363 11.2163V23.3302H315.092V11.2163H317.363Z" fill="black"/>
<path d="M327.713 15.5057C327.713 14.2438 326.956 13.2343 325.694 13.2343C324.18 13.2343 323.423 14.2438 323.423 15.5057V23.3292H321.151V11.2153H323.423V12.2248C323.927 11.7201 324.684 11.2153 326.199 11.2153C328.47 11.2153 330.237 12.7296 330.237 15.5057V23.3292H327.965V15.5057H327.713Z" fill="black"/>
<path d="M335.03 18.2827C335.282 20.5541 336.544 21.3112 338.058 21.3112C339.825 21.3112 340.834 20.8065 341.591 20.3017L342.096 22.5731C341.087 23.0778 339.825 23.3302 338.058 23.3302C335.03 23.3302 332.506 21.5636 332.506 17.2732C332.506 13.2353 334.777 10.9639 337.553 10.9639C340.834 10.9639 342.601 13.2353 342.601 16.7685V18.0303H335.03V18.2827ZM334.272 5.66406H336.291L337.806 7.93542L339.32 5.66406H341.339L339.068 9.70203H336.544L334.272 5.66406ZM340.329 16.5161C340.329 14.4971 339.32 13.2353 337.806 13.2353C336.544 13.2353 335.282 13.9924 335.03 16.5161H340.329Z" fill="black"/>
</svg>
