<svg width="344" height="55" viewBox="0 0 344 55" fill="none" xmlns="http://www.w3.org/2000/svg">
<path d="M43.4723 41.0041V43.0231H37.9201V50.3419H35.9011V34.4424H44.4818V36.4614H37.9201V41.0041H43.4723Z" fill="black"/>
<path d="M50.7918 49.3325C50.5394 49.5849 49.7823 50.342 48.2681 50.342C45.9967 50.342 44.7349 49.0802 44.7349 47.0612C44.7349 44.7898 46.2491 43.528 48.2681 43.528C49.2776 43.528 50.2871 44.0327 50.7918 44.2851V43.0232C50.7918 41.7613 50.0347 41.2566 48.7728 41.2566C47.511 41.2566 46.5015 41.7613 45.7444 42.0137L45.492 40.2471C46.2491 39.9947 47.2586 39.49 48.7728 39.49C51.0442 39.49 52.5584 40.7519 52.5584 43.0232V50.0897H50.5394V49.3325H50.7918ZM50.7918 46.8088C50.7918 46.0517 49.7823 45.5469 48.7728 45.5469C47.7633 45.5469 46.7538 46.0517 46.7538 47.3136C46.7538 48.3231 47.7633 48.8278 48.7728 48.8278C50.0347 48.8278 50.7918 48.0707 50.7918 47.3136V46.8088Z" fill="black"/>
<path d="M57.8601 50.3419H55.8411V34.4424H57.8601V44.0326L61.3933 39.7422H63.917L60.1314 44.2849L64.6741 50.3419H62.1504L58.1124 44.7897V50.3419H57.8601Z" fill="black"/>
<path d="M71.737 49.3333C71.4846 49.8381 70.7275 50.3428 69.2132 50.3428C67.1942 50.3428 65.9324 48.8286 65.9324 46.5572V39.7432H67.9514V46.5572C67.9514 47.8191 68.4561 48.5762 69.718 48.5762C71.2322 48.5762 71.9893 47.5667 71.9893 46.3049V39.7432H73.7559V50.3428H71.737V49.3333Z" fill="black"/>
<path d="M78.8041 34.4424V50.3419H76.7852V34.4424H78.8041Z" fill="black"/>
<path d="M86.6281 50.0902C86.3758 50.3426 85.871 50.3426 84.8615 50.3426C83.5997 50.3426 82.3378 49.8378 82.3378 47.5665V41.2572H81.0759V39.4905H82.3378V35.4526L84.3568 35.2002V39.4905H86.1234V41.2572H84.3568V47.5665C84.3568 48.3236 84.8615 48.576 85.1139 48.576C85.6186 48.576 86.1234 48.3236 86.3758 48.3236L86.6281 50.0902Z" fill="black"/>
<path d="M93.9444 49.3325C93.692 49.5849 92.9349 50.342 91.4207 50.342C89.1493 50.342 87.8875 49.0802 87.8875 47.0612C87.8875 44.7898 89.4017 43.528 91.4207 43.528C92.4302 43.528 93.4397 44.0327 93.9444 44.2851V43.0232C93.9444 41.7613 93.1873 41.2566 91.9254 41.2566C90.6636 41.2566 89.6541 41.7613 88.8969 42.0137V40.2471C89.6541 39.9947 90.6636 39.49 92.1778 39.49C94.4492 39.49 95.9634 40.7519 95.9634 43.0232V50.0897H93.9444V49.3325ZM93.9444 46.8088C93.9444 46.0517 92.9349 45.5469 91.9254 45.5469C90.9159 45.5469 89.9064 46.0517 89.9064 47.3136C89.9064 48.3231 90.9159 48.8278 91.9254 48.8278C93.1873 48.8278 93.9444 48.0707 93.9444 47.3136V46.8088Z" fill="black"/>
<path d="M108.581 50.0902C108.328 50.3426 107.823 50.3426 106.814 50.3426C105.552 50.3426 104.29 49.8378 104.29 47.5665V41.2572H103.028V39.4905H104.29V35.4526L106.309 35.2002V39.4905H108.076V41.2572H106.309V47.5665C106.309 48.3236 106.814 48.576 107.066 48.576C107.571 48.576 108.076 48.3236 108.328 48.3236L108.581 50.0902Z" fill="black"/>
<path d="M112.119 45.8001C112.371 47.8191 113.381 48.5762 114.895 48.5762C116.409 48.5762 117.419 48.3239 118.176 47.8191L118.428 49.8381C117.419 50.3428 116.409 50.5952 114.895 50.5952C112.371 50.5952 110.1 49.081 110.1 45.2954C110.1 41.7621 112.119 39.7432 114.643 39.7432C117.419 39.7432 118.933 41.7622 118.933 44.7906V45.8001H112.119ZM116.914 44.2859C116.914 42.5193 115.905 41.5098 114.643 41.5098C113.633 41.5098 112.624 42.0145 112.371 44.2859H116.914Z" fill="black"/>
<path d="M128.016 49.8372C127.763 50.0896 126.501 50.5943 125.24 50.5943C123.221 50.5943 120.697 49.5848 120.697 45.2945C120.697 41.0041 123.221 39.9946 125.24 39.9946C126.501 39.9946 127.511 40.4994 128.016 40.7517L127.511 42.5184C127.006 42.266 125.997 41.7612 125.24 41.7612C123.978 41.7612 122.968 42.7707 122.968 45.2945C122.968 47.8182 124.23 48.8277 125.24 48.8277C126.249 48.8277 127.006 48.3229 127.511 48.0706L128.016 49.8372Z" fill="black"/>
<path d="M136.094 43.5278C136.094 42.266 135.337 41.5088 134.327 41.5088C133.065 41.5088 132.308 42.266 132.308 43.5278V50.3419H130.289V34.4424H132.308V40.7517C132.561 40.247 133.57 39.7422 134.832 39.7422C136.851 39.7422 138.365 41.2565 138.365 43.5278V50.3419H136.346V43.5278H136.094Z" fill="black"/>
<path d="M147.196 43.528C147.196 42.2661 146.439 41.509 145.43 41.509C144.168 41.509 143.411 42.2661 143.411 43.528V50.342H141.392V39.7424H143.411V40.4995C143.663 39.9947 144.672 39.49 145.934 39.49C147.953 39.49 149.468 41.0042 149.468 43.2756V50.0897H147.449V43.528H147.196Z" fill="black"/>
<path d="M156.281 50.3428C153.757 50.3428 151.486 48.8286 151.486 45.043C151.486 41.2574 153.757 39.7432 156.281 39.7432C158.805 39.7432 161.076 41.2574 161.076 45.043C161.076 49.081 158.805 50.3428 156.281 50.3428ZM156.281 41.5098C154.767 41.5098 153.505 42.7716 153.505 45.043C153.505 47.3144 154.767 48.5762 156.281 48.5762C157.795 48.5762 159.057 47.3144 159.057 45.043C159.057 42.7716 157.795 41.5098 156.281 41.5098Z" fill="black"/>
<path d="M165.622 34.4424V50.3419H163.603V34.4424H165.622Z" fill="black"/>
<path d="M172.689 50.3428C170.165 50.3428 167.894 48.8286 167.894 45.043C167.894 41.2574 170.165 39.7432 172.689 39.7432C175.213 39.7432 177.484 41.2574 177.484 45.043C177.484 49.081 175.213 50.3428 172.689 50.3428ZM172.689 41.5098C171.175 41.5098 169.913 42.7716 169.913 45.043C169.913 47.3144 171.175 48.5762 172.689 48.5762C174.203 48.5762 175.465 47.3144 175.465 45.043C175.465 42.7716 174.455 41.5098 172.689 41.5098Z" fill="black"/>
<path d="M188.587 50.3419C188.587 53.6228 186.82 54.6323 184.297 54.6323C182.53 54.6323 181.268 54.1275 180.764 53.8752L181.016 52.1085C181.773 52.3609 182.782 52.8657 184.044 52.8657C185.306 52.8657 186.316 51.8562 186.316 50.3419V49.0801C186.063 49.3324 185.054 50.3419 183.54 50.3419C181.521 50.3419 179.249 49.0801 179.249 45.2945C179.249 41.5089 181.268 39.9946 183.54 39.9946C185.306 39.9946 185.811 40.4994 186.063 41.0041V40.247H188.082V50.3419H188.587ZM186.568 43.7802C186.568 42.0136 185.559 41.2565 184.297 41.2565C183.035 41.2565 181.773 42.266 181.773 44.7897C181.773 47.3135 182.782 48.0706 184.297 48.0706C185.559 48.0706 186.82 47.3135 186.82 45.5468V43.7802H186.568Z" fill="black"/>
<path d="M192.625 37.7239C191.868 37.7239 191.363 37.2192 191.363 36.4621C191.363 35.7049 191.868 35.2002 192.625 35.2002C193.382 35.2002 193.887 35.7049 193.887 36.4621C193.887 37.4716 193.382 37.7239 192.625 37.7239ZM193.634 39.7429V50.3426H191.615V39.7429H193.634Z" fill="black"/>
<path d="M203.226 49.8372C202.973 50.0896 201.711 50.5943 200.449 50.5943C198.43 50.5943 195.907 49.5848 195.907 45.2945C195.907 41.0041 198.43 39.9946 200.449 39.9946C201.711 39.9946 202.721 40.4994 203.226 40.7517L202.721 42.5184C202.216 42.266 201.207 41.7612 200.449 41.7612C199.188 41.7612 198.178 42.7707 198.178 45.2945C198.178 47.8182 199.44 48.8277 200.449 48.8277C201.459 48.8277 202.216 48.3229 202.721 48.0706L203.226 49.8372Z" fill="black"/>
<path d="M207.517 50.3419H205.498V34.4424H207.517V44.0326L211.051 39.7422H213.574L209.789 44.2849L214.331 50.3419H211.808L207.517 44.7897V50.3419Z" fill="black"/>
<path d="M220.638 49.3323C220.386 49.5847 219.629 50.3418 218.115 50.3418C215.843 50.3418 214.581 49.0799 214.581 47.0609C214.581 44.7896 216.096 43.5277 218.115 43.5277C219.124 43.5277 220.133 44.0325 220.638 44.2848V43.023C220.638 41.7611 219.881 41.2563 218.619 41.2563C217.357 41.2563 216.348 41.7611 215.591 42.0135L215.338 40.2469C216.096 39.9945 217.105 39.4897 218.619 39.4897C220.891 39.4897 222.405 40.7516 222.405 43.023V50.0894H220.386V49.3323H220.638ZM220.638 46.8086C220.638 46.0514 219.629 45.5467 218.619 45.5467C217.61 45.5467 216.6 46.0514 216.6 47.3133C216.6 48.3228 217.61 48.8275 218.619 48.8275C219.881 48.8275 220.638 48.0704 220.638 47.3133V46.8086ZM219.376 34.947H221.648L219.629 38.4802H218.115L219.376 34.947Z" fill="black"/>
<path d="M19.2469 0.120117L0.571289 6.42945V0.120117H19.2469ZM0.571289 7.43894C0.571289 8.44843 2.08553 9.20555 3.85214 9.20555C4.60926 9.20555 5.11401 8.95318 5.61875 8.95318C6.37587 8.7008 23.5373 2.64385 23.5373 2.64385V27.6288C23.5373 27.6288 6.1235 33.6857 5.61875 33.9381C5.11401 34.1905 4.35689 34.1905 3.85214 34.1905C2.08553 34.1905 0.571289 33.181 0.571289 31.6668V7.43894Z" fill="#172983"/>
<path d="M47.0089 16.7758C47.0089 20.8138 45.4947 23.0852 41.4567 23.0852C37.4187 23.0852 35.6521 20.8138 35.6521 16.7758V4.91431H37.9235V16.7758C37.9235 19.552 38.6806 21.0662 41.2043 21.0662C43.728 21.0662 44.4852 19.552 44.4852 16.7758V4.91431H46.7565V16.7758H47.0089Z" fill="black"/>
<path d="M57.3544 15.2625C57.3544 14.0006 56.5973 12.9912 55.3354 12.9912C53.8212 12.9912 53.0641 14.0006 53.0641 15.2625V23.0861H50.7927V10.9722H53.0641V11.9817C53.5688 11.4769 54.3259 10.9722 55.8402 10.9722C58.1115 10.9722 59.8782 12.4864 59.8782 15.2625V23.0861H57.6068V15.2625H57.3544Z" fill="black"/>
<path d="M64.17 8.70084C63.1605 8.70084 62.6558 8.19609 62.6558 7.1866C62.6558 6.17711 63.1605 5.67236 64.17 5.67236C65.1795 5.67236 65.6842 6.17711 65.6842 7.1866C65.6842 8.44847 65.1795 8.70084 64.17 8.70084ZM65.4319 10.9722V23.0861H63.1605V10.9722H65.4319Z" fill="black"/>
<path d="M67.1997 10.9722H69.7234L72.7519 20.0576L75.7804 10.9722H78.3041L73.7614 23.0861H71.4901L67.1997 10.9722Z" fill="black"/>
<path d="M81.0792 18.0376C81.3315 20.3089 82.5934 21.0661 84.1076 21.0661C85.8742 21.0661 86.8837 20.5613 87.6409 20.0566L88.1456 22.3279C87.1361 22.8327 85.8742 23.085 84.1076 23.085C81.0791 23.085 78.5554 21.3184 78.5554 17.0281C78.5554 12.9901 80.8268 10.7188 83.6029 10.7188C86.8837 10.7188 88.6504 12.9901 88.6504 16.5233V17.7852H81.0792V18.0376ZM86.379 16.271C86.379 14.252 85.3695 12.9901 83.8553 12.9901C82.5934 12.9901 81.3315 13.7472 81.0792 16.271H86.379Z" fill="black"/>
<path d="M96.7232 13.4958C96.4709 13.4958 95.9661 13.2435 95.209 13.2435C94.4519 13.2435 93.9471 14.0006 93.9471 15.2624V23.086H91.6758V10.9721H93.9471V12.234C94.1995 11.4768 94.9566 10.7197 96.2185 10.7197C96.7233 10.7197 96.9756 10.7197 97.228 10.9721L96.7232 13.4958Z" fill="black"/>
<path d="M107.075 23.0861H98.2419L104.047 12.9912H98.4943V10.9722H107.327L101.775 21.0671H107.075V23.0861Z" fill="black"/>
<path d="M110.858 8.70084C109.849 8.70084 109.344 8.19609 109.344 7.1866C109.344 6.17711 109.849 5.67236 110.858 5.67236C111.868 5.67236 112.373 6.17711 112.373 7.1866C112.373 8.44847 111.616 8.70084 110.858 8.70084ZM111.868 10.9722V23.0861H109.597V10.9722H111.868Z" fill="black"/>
<path d="M121.208 22.8334C120.703 23.0858 120.198 23.3381 119.189 23.3381C117.927 23.3381 116.16 22.8334 116.16 20.3097V12.9908H114.646V10.9718H116.16V6.42913L118.432 6.17676V10.9718H120.451V12.7385H118.432V19.8049C118.432 20.562 118.937 20.8144 119.441 20.8144C119.946 20.8144 120.451 20.562 120.956 20.562L121.208 22.8334Z" fill="black"/>
<path d="M129.533 22.0766C129.281 22.329 128.524 23.0861 126.757 23.0861C124.233 23.0861 122.719 21.8242 122.719 19.3005C122.719 16.7768 124.486 15.5149 126.757 15.5149C128.019 15.5149 129.028 16.0196 129.533 16.5244V15.0101C129.533 13.4959 128.524 12.9912 127.262 12.9912C125.747 12.9912 124.486 13.4959 123.981 13.7483L123.728 11.7293C124.486 11.4769 125.747 10.9722 127.514 10.9722C130.29 10.9722 131.804 12.4864 131.804 15.0101V23.0861H129.533V22.0766ZM129.533 19.0481C129.533 18.0386 128.524 17.5339 127.262 17.5339C126 17.5339 124.99 18.0386 124.99 19.5529C124.99 20.8147 126 21.3195 127.262 21.3195C128.524 21.3195 129.533 20.5623 129.533 19.5529V19.0481Z" fill="black"/>
<path d="M144.677 23.0852V7.18567H140.386V4.91431H151.491V7.18567H146.948V23.0852H144.677Z" fill="black"/>
<path d="M156.037 23.0861C153.008 23.0861 150.485 21.3195 150.485 17.0291C150.485 12.4864 153.008 10.9722 156.037 10.9722C158.813 10.9722 161.589 12.7388 161.589 17.0291C161.589 21.5718 159.065 23.0861 156.037 23.0861ZM156.037 12.9912C154.27 12.9912 153.008 14.5054 153.008 17.0291C153.008 19.5529 154.27 21.0671 156.037 21.0671C157.803 21.0671 159.065 19.8052 159.065 17.0291C159.065 14.253 157.803 12.9912 156.037 12.9912Z" fill="black"/>
<path d="M177.737 15.2625C177.737 14.0006 176.98 12.9912 175.718 12.9912C174.203 12.9912 173.446 14.0006 173.446 15.2625V23.0861H171.175V15.2625C171.175 14.0006 170.418 12.9912 169.156 12.9912C167.642 12.9912 166.885 14.0006 166.885 15.2625V23.0861H164.613V10.9722H166.885V11.9817C167.389 11.4769 168.147 10.9722 169.661 10.9722C171.175 10.9722 172.437 11.4769 172.942 12.7388C173.699 11.7293 174.708 10.9722 176.222 10.9722C178.494 10.9722 180.26 12.4864 180.26 15.2625V23.0861H177.989V15.2625H177.737Z" fill="black"/>
<path d="M189.851 22.0775C189.598 22.5823 188.589 23.3394 187.075 23.3394C184.551 23.3394 183.037 22.0775 183.037 19.5538C183.037 17.0301 184.803 15.7682 187.075 15.7682C188.336 15.7682 189.346 16.2729 189.851 16.7777V15.0111C189.851 13.4968 188.841 12.9921 187.579 12.9921C186.065 12.9921 184.803 13.4968 184.298 13.7492L184.046 11.7302C184.803 11.4779 186.065 10.9731 187.832 10.9731C190.608 10.9731 192.122 12.4873 192.122 15.0111V23.087H189.851V22.0775ZM189.851 19.0491C189.851 18.0396 188.841 17.5348 187.579 17.5348C186.317 17.5348 185.308 18.0396 185.308 19.5538C185.308 20.8157 186.317 21.3204 187.579 21.3204C188.841 21.068 189.851 20.3109 189.851 19.3014V19.0491ZM188.336 5.4209H190.86L188.589 9.45887H186.822L188.336 5.4209Z" fill="black"/>
<path d="M198.683 23.087C196.917 23.087 195.403 22.5823 194.646 22.3299L195.403 20.3109C196.412 20.8157 197.674 21.068 198.936 21.068C199.945 21.068 200.955 20.8157 200.955 19.8062C200.955 18.7967 199.693 18.5443 198.431 18.0396C196.664 17.5348 194.898 17.0301 194.898 14.5063C194.898 11.9826 196.664 10.9731 199.441 10.9731C201.207 10.9731 202.217 11.2255 202.974 11.7302L202.469 13.7492C201.46 13.2445 200.702 12.9921 199.188 12.9921C197.926 12.9921 196.917 13.4968 196.917 14.5063C196.917 15.2635 197.926 15.5158 198.936 16.0206C200.702 16.5253 202.974 17.0301 202.974 19.5538C203.226 21.8252 201.964 23.087 198.683 23.087ZM195.655 5.4209H197.674L199.188 7.69226L200.702 5.4209H202.721L200.45 9.45887H197.926L195.655 5.4209Z" fill="black"/>
<path d="M207.77 18.0385C208.022 20.3099 209.284 21.067 210.798 21.067C212.565 21.067 213.574 20.5623 214.332 20.0575L214.836 22.3289C213.827 22.8336 212.565 23.086 210.798 23.086C207.77 23.086 205.246 21.3194 205.246 17.0291C205.246 12.9911 207.517 10.7197 210.294 10.7197C213.574 10.7197 215.341 12.9911 215.341 16.5243V17.7862H207.77V18.0385ZM213.07 16.2719C213.07 14.253 212.06 12.9911 210.546 12.9911C209.284 12.9911 208.022 13.7482 207.77 16.2719H213.07Z" fill="black"/>
<path d="M229.219 23.0852H224.171V4.91431H229.471C232.752 4.91431 234.771 6.68092 234.771 9.7094C234.771 11.7284 233.761 12.9903 232.247 13.7474C233.761 14.5045 235.023 16.0187 235.023 18.0377C235.023 21.0662 232.752 23.0852 229.219 23.0852ZM229.471 7.18567H226.443V12.4855H229.219C230.985 12.4855 232.247 11.476 232.247 9.7094C232.247 7.94279 231.238 7.18567 229.471 7.18567ZM229.219 14.7569H226.443V20.8138H229.219C230.985 20.8138 232.499 19.8043 232.499 18.0377C232.499 16.0187 230.985 14.7569 229.219 14.7569Z" fill="black"/>
<path d="M244.111 22.0766C243.858 22.5813 242.849 23.3385 241.335 23.3385C238.811 23.3385 237.297 22.0766 237.297 19.5529C237.297 17.0291 239.063 15.7673 241.335 15.7673C242.596 15.7673 243.606 16.272 244.111 16.7768V15.0101C244.111 13.4959 243.101 12.9912 241.839 12.9912C240.325 12.9912 239.063 13.4959 238.558 13.7483L238.306 11.7293C239.063 11.4769 240.325 10.9722 242.092 10.9722C244.868 10.9722 246.382 12.4864 246.382 15.0101V23.0861H244.111V22.0766ZM244.111 19.0481C244.111 18.0386 243.101 17.5339 241.839 17.5339C240.577 17.5339 239.568 18.0386 239.568 19.5529C239.568 20.8147 240.577 21.3195 241.839 21.3195C243.101 21.3195 244.111 20.5623 244.111 19.5529V19.0481Z" fill="black"/>
<path d="M255.216 22.8334C254.711 23.0858 254.206 23.3381 253.197 23.3381C251.935 23.3381 250.168 22.8334 250.168 20.3097V12.9908H248.654V10.9718H250.421V6.42913L252.692 6.17676V10.9718H254.711V12.7385H252.692V19.8049C252.692 20.562 253.197 20.8144 253.702 20.8144C254.206 20.8144 254.711 20.562 255.216 20.562V22.8334Z" fill="black"/>
<path d="M258.75 8.70084C257.74 8.70084 257.236 8.19609 257.236 7.1866C257.236 6.17711 257.74 5.67236 258.75 5.67236C259.759 5.67236 260.264 6.17711 260.264 7.1866C260.264 8.44847 259.507 8.70084 258.75 8.70084ZM259.759 10.9722V23.0861H257.488V10.9722H259.759Z" fill="black"/>
<path d="M267.331 10.9722H269.854L272.883 20.0576L275.911 10.9722H278.435L274.145 23.0861H271.873L267.331 10.9722Z" fill="black"/>
<path d="M281.209 18.0376C281.461 20.3089 282.723 21.0661 284.238 21.0661C286.004 21.0661 287.014 20.5613 287.771 20.0566L288.275 22.3279C287.266 22.8327 286.004 23.085 284.238 23.085C281.209 23.085 278.685 21.3184 278.685 17.0281C278.685 12.9901 280.957 10.7188 283.733 10.7188C287.014 10.7188 288.78 12.9901 288.78 16.5233V17.7852H281.209V18.0376ZM286.509 16.271C286.509 14.252 285.499 12.9901 283.985 12.9901C282.723 12.9901 281.461 13.7472 281.209 16.271H286.509Z" fill="black"/>
<path d="M306.953 23.0852H296.354L303.925 7.18567H296.859V4.91431H307.458L299.887 20.8138H306.953V23.0852Z" fill="black"/>
<path d="M312 4.91431V23.0852H309.729V4.91431H312Z" fill="black"/>
<path d="M317.047 5.4209H319.571L317.3 9.45887H315.533L317.047 5.4209ZM317.804 10.9731V23.087H315.533V10.9731H317.804Z" fill="black"/>
<path d="M328.154 15.2625C328.154 14.0006 327.397 12.9912 326.135 12.9912C324.621 12.9912 323.864 14.0006 323.864 15.2625V23.0861H321.593V10.9722H323.864V11.9817C324.369 11.4769 325.126 10.9722 326.64 10.9722C328.911 10.9722 330.678 12.4864 330.678 15.2625V23.0861H328.407V15.2625H328.154Z" fill="black"/>
<path d="M335.471 18.0396C335.723 20.3109 336.985 21.068 338.499 21.068C340.266 21.068 341.276 20.5633 342.033 20.0585L342.537 22.3299C341.528 22.8347 340.266 23.087 338.499 23.087C335.471 23.087 332.947 21.3204 332.947 17.0301C332.947 12.9921 335.219 10.7207 337.995 10.7207C341.276 10.7207 343.042 12.9921 343.042 16.5253V17.7872H335.471V18.0396ZM334.714 5.4209H336.733L338.247 7.69226L339.761 5.4209H341.78L339.509 9.45887H336.985L334.714 5.4209ZM340.771 16.2729C340.771 14.254 339.761 12.9921 338.247 12.9921C336.985 12.9921 335.723 13.7492 335.471 16.2729H340.771Z" fill="black"/>
</svg>
