<svg width="468" height="47" viewBox="0 0 468 47" fill="none" xmlns="http://www.w3.org/2000/svg">
<path d="M25.8873 0.564453L0.433594 9.16367V0.564453H25.8873ZM0.433594 10.5395C0.433594 11.9154 2.4974 12.9473 4.90518 12.9473C5.93709 12.9473 6.62503 12.6033 7.31296 12.6033C8.34487 12.2594 32.0787 4.00414 32.0787 4.00414V38.057C32.0787 38.057 8.34487 46.3123 7.65693 46.6562C6.96899 47.0002 5.93709 47.0002 5.24915 47.0002C2.84137 47.0002 0.777562 45.6243 0.777562 43.5605L0.433594 10.5395Z" fill="#EC751A"/>
<path d="M63.7281 23.2666C63.7281 28.7701 61.6643 31.8658 56.1608 31.8658C50.6573 31.8658 48.2495 28.7701 48.2495 23.2666V7.1001H51.6892V23.2666C51.6892 27.0503 52.7211 29.1141 56.1608 29.1141C59.6005 29.1141 60.6324 27.0503 60.6324 23.2666V7.1001H64.0721V23.2666H63.7281Z" fill="black"/>
<path d="M77.8294 21.2019C77.8294 19.4821 76.7975 18.1062 75.0777 18.1062C73.0139 18.1062 71.9819 19.4821 71.9819 21.2019V31.865H68.8862V15.3545H71.9819V16.7303C72.6699 16.0424 73.7018 15.0105 75.7656 15.0105C78.8613 15.0105 81.2691 17.0743 81.2691 20.858V31.521H78.1734V21.2019H77.8294Z" fill="black"/>
<path d="M87.1117 12.2595C85.7358 12.2595 85.0479 11.5715 85.0479 10.1956C85.0479 8.81977 85.7358 8.13184 87.1117 8.13184C88.4875 8.13184 89.1755 8.81977 89.1755 10.1956C89.1755 11.5715 88.4875 12.2595 87.1117 12.2595ZM88.8315 15.3552V31.8657H85.7358V15.3552H88.8315Z" fill="black"/>
<path d="M91.2415 15.3542H94.6811L98.8088 27.7371L102.936 15.3542H106.376L100.185 31.8647H97.0889L91.2415 15.3542Z" fill="black"/>
<path d="M110.157 24.9856C110.501 28.0813 112.221 29.1132 114.285 29.1132C116.692 29.1132 118.068 28.4253 119.444 27.7373L120.132 30.833C118.756 31.521 117.036 31.865 114.629 31.865C110.501 31.865 107.061 29.4572 107.061 23.6097C107.061 18.1062 110.157 15.0105 113.941 15.0105C118.412 15.0105 120.82 18.1062 120.82 22.9218V24.6416H110.157V24.9856ZM117.38 22.5778C117.38 19.8261 116.004 18.1062 113.597 18.1062C111.877 18.1062 110.157 19.1381 109.813 22.5778H117.38Z" fill="black"/>
<path d="M131.828 18.7942C131.484 18.7942 130.796 18.4502 129.764 18.4502C128.388 18.4502 127.7 19.4821 127.7 21.2019V31.865H124.604V15.3545H127.7V17.0743C128.044 16.0424 129.076 15.0105 130.796 15.0105C131.484 15.0105 132.172 15.3545 132.172 15.3545L131.828 18.7942Z" fill="black"/>
<path d="M145.588 31.8647H133.549L141.46 18.106H133.893V15.3542H146.276L138.708 29.113H145.932V31.8647H145.588Z" fill="black"/>
<path d="M150.747 12.2595C149.372 12.2595 148.684 11.5715 148.684 10.1956C148.684 8.81977 149.372 8.13184 150.747 8.13184C152.123 8.13184 152.811 8.81977 152.811 10.1956C152.811 11.5715 152.123 12.2595 150.747 12.2595ZM152.123 15.3552V31.8657H149.028V15.3552H152.123Z" fill="black"/>
<path d="M164.85 31.5208C164.162 31.8647 163.474 32.2087 162.098 32.2087C160.035 32.2087 157.971 31.5208 157.971 27.7371V18.106H155.907V15.3542H157.971V9.16282L161.067 8.81885V15.6982H163.818V18.45H161.067V28.0811C161.067 29.113 161.754 29.457 162.442 29.457C163.13 29.457 163.818 29.113 164.506 29.113L164.85 31.5208Z" fill="black"/>
<path d="M176.549 30.4889C175.861 31.1768 174.829 32.2087 172.421 32.2087C168.982 32.2087 166.918 30.4889 166.918 27.0492C166.918 23.6095 169.325 21.5457 172.421 21.5457C174.141 21.5457 175.517 22.2336 176.205 22.9216V20.8577C176.205 18.7939 174.829 18.106 173.109 18.106C171.045 18.106 169.326 18.7939 168.638 19.1379L168.294 16.3862C169.325 16.0422 171.045 15.3542 173.453 15.3542C177.237 15.3542 179.301 17.4181 179.301 20.8577V31.8647H176.205V30.4889H176.549ZM176.549 26.3612C176.549 24.9854 174.829 24.2974 173.453 24.2974C171.733 24.2974 170.357 24.9854 170.357 27.0492C170.357 28.769 171.733 29.457 173.453 29.457C175.173 29.457 176.549 28.425 176.549 27.0492V26.3612Z" fill="black"/>
<path d="M196.841 31.8658V10.1958H190.65V7.1001H206.128V10.1958H199.937V31.8658H196.841Z" fill="black"/>
<path d="M212.321 32.2097C208.193 32.2097 204.754 29.8019 204.754 23.9545C204.754 18.107 208.537 15.6992 212.321 15.6992C216.105 15.6992 219.888 18.107 219.888 23.9545C219.888 29.8019 216.449 32.2097 212.321 32.2097ZM212.321 18.107C209.913 18.107 208.193 20.1708 208.193 23.6105C208.193 27.0502 209.913 29.114 212.321 29.114C214.729 29.114 216.449 27.0502 216.449 23.6105C216.793 20.1708 215.073 18.107 212.321 18.107Z" fill="black"/>
<path d="M242.238 21.2019C242.238 19.4821 241.206 18.1062 239.486 18.1062C237.423 18.1062 236.391 19.4821 236.391 21.2019V31.865H233.295V21.2019C233.295 19.4821 232.263 18.1062 230.543 18.1062C228.479 18.1062 227.448 19.4821 227.448 21.2019V31.865H224.352V15.3545H227.448V16.7303C228.135 16.0424 229.167 15.0105 231.231 15.0105C233.295 15.0105 235.015 16.0424 235.703 17.4183C236.735 16.0424 238.111 15.0105 240.174 15.0105C243.27 15.0105 245.678 17.0743 245.678 20.858V31.521H242.582V21.2019H242.238Z" fill="black"/>
<path d="M258.412 30.4888C258.068 31.1767 256.692 32.2086 254.628 32.2086C251.188 32.2086 249.125 30.4888 249.125 27.0491C249.125 23.6094 251.532 21.5456 254.628 21.5456C256.348 21.5456 257.724 22.2335 258.412 22.9215V20.8577C258.412 18.7939 257.036 18.1059 255.316 18.1059C253.252 18.1059 251.532 18.7939 250.844 19.1378L250.5 16.3861C251.532 16.0421 253.252 15.3542 255.66 15.3542C259.444 15.3542 261.507 17.418 261.507 20.8577V31.8647H258.412V30.4888ZM258.412 26.3612C258.412 24.9853 256.692 24.2974 255.316 24.2974C253.596 24.2974 252.22 24.9853 252.22 27.0491C252.22 28.7689 253.596 29.4569 255.316 29.4569C257.036 29.1129 258.412 28.081 258.412 27.0491V26.3612ZM256.348 7.78687H259.788L256.692 13.2904H254.284L256.348 7.78687Z" fill="black"/>
<path d="M270.795 32.2086C268.044 32.2086 266.324 31.5207 265.292 31.1767L265.98 28.081C267.356 28.7689 269.076 29.1129 270.795 29.1129C272.171 29.1129 273.547 28.7689 273.547 27.0491C273.547 25.6732 271.827 25.3293 270.108 24.6413C268.044 24.2974 265.292 23.6094 265.292 20.1697C265.292 16.73 267.7 15.3542 271.483 15.3542C273.891 15.3542 275.267 16.0421 276.643 16.3861L276.299 19.1378C274.923 18.4499 273.891 18.1059 271.827 18.1059C270.108 18.1059 268.732 18.7939 268.732 20.1697C268.732 21.2016 270.108 21.8896 271.827 22.2335C274.235 22.9215 277.331 23.6094 277.331 27.3931C276.987 30.1448 274.923 32.2086 270.795 32.2086ZM266.324 7.78687H269.076L271.139 10.8826L273.203 7.78687H275.955L272.859 13.2904H269.42L266.324 7.78687Z" fill="black"/>
<path d="M282.83 24.9856C283.174 28.0813 284.894 29.1132 286.957 29.1132C289.365 29.1132 290.741 28.4253 292.117 27.7373L292.805 30.833C291.429 31.521 289.709 31.865 287.301 31.865C283.174 31.865 279.734 29.4572 279.734 23.6097C279.734 18.1062 282.83 15.0105 286.614 15.0105C291.085 15.0105 293.493 18.1062 293.493 22.9218V24.6416H282.83V24.9856ZM290.397 22.5778C290.397 19.8261 289.021 18.1062 286.614 18.1062C284.894 18.1062 283.174 19.1381 282.83 22.5778H290.397Z" fill="black"/>
<path d="M312.066 31.8658H305.187V7.1001H312.754C317.226 7.1001 319.977 9.50788 319.977 13.6355C319.977 16.3872 318.602 18.1071 316.538 19.139C318.946 20.1709 320.321 22.2347 320.321 24.9865C319.977 29.1141 316.882 31.8658 312.066 31.8658ZM312.754 10.1958H308.626V17.4192H312.41C314.818 17.4192 316.538 16.0433 316.538 13.6355C316.538 11.2277 314.818 10.1958 312.754 10.1958ZM312.066 20.5149H308.282V28.7701H312.066C314.818 28.7701 316.538 27.3942 316.538 24.6425C316.538 22.2347 314.818 20.5149 312.066 20.5149Z" fill="black"/>
<path d="M332.709 30.4889C332.365 31.1768 330.989 32.2087 328.925 32.2087C325.486 32.2087 323.422 30.4889 323.422 27.0492C323.422 23.6095 325.83 21.5457 328.925 21.5457C330.645 21.5457 332.021 22.2336 332.709 22.9216V20.8577C332.709 18.7939 331.333 18.106 329.613 18.106C327.549 18.106 325.83 18.7939 325.142 19.1379L324.798 16.3862C325.83 16.0422 327.55 15.3542 329.957 15.3542C333.741 15.3542 335.805 17.4181 335.805 20.8577V31.8647H332.709V30.4889ZM332.709 26.3612C332.709 24.9854 330.989 24.2974 329.613 24.2974C327.893 24.2974 326.518 24.9854 326.518 27.0492C326.518 28.769 327.893 29.457 329.613 29.457C331.333 29.457 332.709 28.425 332.709 27.0492V26.3612Z" fill="black"/>
<path d="M347.841 31.5208C347.153 31.8647 346.465 32.2087 345.089 32.2087C343.025 32.2087 340.962 31.5208 340.962 27.7371V18.106H338.898V15.3542H340.962V9.16282L344.057 8.81885V15.6982H346.809V18.45H344.057V28.0811C344.057 29.113 344.745 29.457 345.433 29.457C346.121 29.457 346.809 29.113 347.497 29.113L347.841 31.5208Z" fill="black"/>
<path d="M352.314 12.2595C350.938 12.2595 350.25 11.5715 350.25 10.1956C350.25 8.81977 350.938 8.13184 352.314 8.13184C353.69 8.13184 354.378 8.81977 354.378 10.1956C354.378 11.5715 353.69 12.2595 352.314 12.2595ZM354.034 15.3552V31.8657H350.938V15.3552H354.034Z" fill="black"/>
<path d="M364.355 15.3542H367.795L371.923 27.7371L376.05 15.3542H379.49L373.642 31.8647H370.547L364.355 15.3542Z" fill="black"/>
<path d="M383.275 24.9856C383.619 28.0813 385.338 29.1132 387.402 29.1132C389.81 29.1132 391.186 28.4253 392.562 27.7373L393.25 30.833C391.874 31.521 390.154 31.865 387.746 31.865C383.619 31.865 380.179 29.4572 380.179 23.6097C380.179 18.1062 383.275 15.0105 387.058 15.0105C391.53 15.0105 393.938 18.1062 393.938 22.9218V24.6416H383.275V24.9856ZM390.498 22.5778C390.498 19.8261 389.122 18.1062 386.714 18.1062C384.995 18.1062 383.275 19.1381 382.931 22.5778H390.498Z" fill="black"/>
<path d="M418.015 31.8658H403.568L413.887 10.1958H404.256V7.1001H418.703L408.384 28.7701H418.015V31.8658Z" fill="black"/>
<path d="M425.233 7.09912V31.8649H422.137V7.09912H425.233Z" fill="black"/>
<path d="M432.114 7.78687H435.554L432.458 13.2904H430.051L432.114 7.78687ZM433.146 15.3542V31.8647H430.051V15.3542H433.146Z" fill="black"/>
<path d="M446.908 21.2019C446.908 19.4821 445.876 18.1062 444.156 18.1062C442.092 18.1062 441.061 19.4821 441.061 21.2019V31.865H437.965V15.3545H441.061V16.7303C441.749 16.0424 442.78 15.0105 444.844 15.0105C447.94 15.0105 450.348 17.0743 450.348 20.858V31.521H447.252V21.2019H446.908Z" fill="black"/>
<path d="M457.225 24.9853C457.569 28.081 459.289 29.1129 461.353 29.1129C463.761 29.1129 465.136 28.425 466.512 27.737L467.2 30.8328C465.824 31.5207 464.105 31.8647 461.697 31.8647C457.569 31.8647 454.129 29.4569 454.129 23.6094C454.129 18.1059 457.225 15.0102 461.009 15.0102C465.48 15.0102 467.888 18.1059 467.888 22.9215V24.6413H457.225V24.9853ZM455.849 7.78687H458.601L460.665 10.8826L462.729 7.78687H465.48L462.385 13.2904H458.945L455.849 7.78687ZM464.448 22.5775C464.448 19.8258 463.073 18.1059 460.665 18.1059C458.945 18.1059 457.225 19.1378 456.881 22.5775H464.448Z" fill="black"/>
</svg>
